{
.appVersion = "3151";
.formatVersion = 3;
axes = (
{
name = Weight;
tag = wght;
}
);
customParameters = (
{
name = "Enforce Compatibility Check";
value = 1;
}
);
date = "2022-11-25 23:19:09 +0000";
familyName = Madurai;
featurePrefixes = (
{
code = "languagesystem DFLT dflt;

languagesystem tml2 dflt;";
name = Languagesystems;
},
{
code = "@list1 = [nga-tamil va-tamil];
@list1Sub = [nga-tamil.001 va-tamil];

@list2 = [iMatra-tamil];
@list2Sub = [iMatra-tamil.001];

lookup subSt {
	sub @list1 by @list1Sub;
	sub @list2 by @list2Sub;
} subSt;
";
name = lkup;
}
);
features = (
{
automatic = 1;
code = "feature akhn;
feature cjct;
feature psts;
";
tag = aalt;
},
{
code = "lookupflag 0;
script tml2;
lookup Akhn_tamil {
	sub ka-tamil pulli-tamil ssa-tamil by k_ssa-tamil;
	sub sha-tamil pulli-tamil ra-tamil iiMatra-tamil by sh_ra_iiMatra-tamil;
	sub sa-tamil pulli-tamil ra-tamil iiMatra-tamil by sh_ra_iiMatra-tamil;
} Akhn_tamil;
";
tag = akhn;
},
{
code = "script tml2;
lookup cjct_tamil {
	sub ka-tamil pulli-tamil ssa-tamil by k_ssa-tamil;
} cjct_tamil;
";
tag = cjct;
},
{
code = "script tml2;
sub [nga-tamil pa-tamil ya-tamil] uMatra-tamil' by uMatra-tamil.alt1;
sub [nya-tamil nna-tamil ta-tamil na-tamil nnna-tamil rra-tamil la-tamil]' uuMatra-tamil by [nya_uMatra-tamil nna_uMatra-tamil ta_uMatra-tamil na_uMatra-tamil nnna_uMatra-tamil rra_uMatra-tamil la_uMatra-tamil];
sub [nya_uMatra-tamil nna_uMatra-tamil ta_uMatra-tamil na_uMatra-tamil nnna_uMatra-tamil rra_uMatra-tamil la_uMatra-tamil] uuMatra-tamil' by uuMatra-tamil.alt1;

#uMatra ligatures
sub va-tamil uMatra-tamil by va_uMatra-tamil;
sub ka-tamil uMatra-tamil by ka_uMatra-tamil;
sub nga-tamil uMatra-tamil.alt1 by nga_uMatra-tamil;
sub nya-tamil uMatra-tamil by nya_uMatra-tamil;
sub na-tamil uMatra-tamil by na_uMatra-tamil;
sub ca-tamil uMatra-tamil by ca_uMatra-tamil;
sub pa-tamil uMatra-tamil.alt1 by pa_uMatra-tamil;
sub ya-tamil uMatra-tamil.alt1 by ya_uMatra-tamil;

glyphs = (
{
glyphname = "ka_uMatra-tamil";
layers = (
{
anchors = (
{
name = imatra;
pos = (490,600);
},
{
name = top;
pos = (295,600);
}
);
layerId = "7BAC99B4-31F2-487C-BACA-69B20297995E";
shapes = (
{
closed = 1;
nodes = (
(437,-150,o),
(520,-67,o),
(520,84,cs),
(520,191,ls),
(520,276,o),
(521,358,o),
(360,362,c),
(360,590,l),
(450,590,l),
(450,610,l),
(220,610,l),
(220,357,l),
(176,346,o),
(140,304,o),
(140,248,cs),
(140,102,ls),
(140,38,o),
(186,-10,o),
(250,-10,cs),
(314,-10,o),
(360,38,o),
(360,102,cs),
(360,342,l),
(501,338,o),
(500,276,o),
(500,191,cs),
(500,84,ls),
(500,-58,o),
(428,-130,o),
(280,-130,cs),
(132,-130,o),
(60,-58,o),
(60,84,cs),
(60,566,ls),
(60,678,o),
(132,770,o),
(280,770,cs),
(428,770,o),
(500,680,o),
(500,600,c),
(520,600,l),
(520,690,o),
(437,790,o),
(280,790,cs),
(123,790,o),
(40,687,o),
(40,566,cs),
(40,84,ls),
(40,-67,o),
(123,-150,o),
(280,-150,cs)
);
},
{
closed = 1;
nodes = (
(196,10,o),
(160,47,o),
(160,102,cs),
(160,248,ls),
(160,303,o),
(197,340,o),
(242,340,cs),
(340,340,l),
(340,102,ls),
(340,47,o),
(304,10,o),
(250,10,cs)
);
},
{
closed = 1;
nodes = (
(240,590,l),
(340,590,l),
(340,360,l),
(240,360,l)
);
},
{
closed = 1;
nodes = (
(500,540,l),
(520,540,l),
(520,600,l),
(500,600,l)
);
}
);
width = 560;
}
);
metricLeft = "ca-tamil";
metricRight = "ca-tamil";
},
{
glyphname = "ka_uuMatra-tamil";
layers = (
{
anchors = (
{
name = top;
pos = (375,600);
}
);
layerId = "7BAC99B4-31F2-487C-BACA-69B20297995E";
shapes = (
{
closed = 1;
nodes = (
(213,-10,o),
(260,38,o),
(260,102,cs),
(260,340,l),
(335,340,l),
(316,323,o),
(304,298,o),
(304,268,cs),
(304,242,ls),
(304,190,o),
(340,150,o),
(389,150,cs),
(439,150,o),
(474,190,o),
(474,242,cs),
(474,268,ls),
(474,298,o),
(462,323,o),
(443,340,c),
(478,340,ls),
(545,340,o),
(590,294,o),
(590,227,cs),
(590,222,ls),
(590,155,o),
(545,110,o),
(478,110,cs),
(380,110,ls),
(346,110,o),
(319,84,o),
(319,50,cs),
(319,16,o),
(346,-10,o),
(380,-10,cs),
(710,-10,l),
(710,10,l),
(380,10,ls),
(355,10,o),
(339,25,o),
(339,50,cs),
(339,75,o),
(355,90,o),
(380,90,cs),
(478,90,ls),
(554,90,o),
(610,146,o),
(610,222,cs),
(610,227,ls),
(610,303,o),
(554,360,o),
(478,360,cs),
(260,360,l),
(260,590,l),
(370,590,l),
(370,610,l),
(120,610,l),
(120,357,l),
(75,347,o),
(40,303,o),
(40,248,cs),
(40,102,ls),
(40,38,o),
(87,-10,o),
(150,-10,cs)
);
},
{
closed = 1;
nodes = (
(96,10,o),
(60,47,o),
(60,102,cs),
(60,248,ls),
(60,303,o),
(97,340,o),
(142,340,cs),
(240,340,l),
(240,102,ls),
(240,47,o),
(204,10,o),
(150,10,cs)
);
},
{
closed = 1;
nodes = (
(350,170,o),
(324,199,o),
(324,242,cs),
(324,268,ls),
(324,311,o),
(350,340,o),
(389,340,cs),
(428,340,o),
(454,311,o),
(454,268,cs),
(454,242,ls),
(454,199,o),
(428,170,o),
(389,170,cs)
);
},
{
closed = 1;
nodes = (
(140,590,l),
(240,590,l),
(240,360,l),
(140,360,l)
);
}
);
width = 750;
}
);
metricLeft = "ca-tamil";
metricRight = "ca-tamil";
},
{
glyphname = "nga_uMatra-tamil";
layers = (
{
anchors = (
{
name = imatra;
pos = (510,540);
},
{
name = top;
pos = (280,600);
}
);
layerId = "7BAC99B4-31F2-487C-BACA-69B20297995E";
shapes = (
{
closed = 1;
nodes = (
(500,-300,l),
(520,-300,l),
(520,0,l),
(500,0,l)
);
},
{
closed = 1;
nodes = (
(520,-10,l),
(520,460,l),
(500,460,l),
(500,10,l),
(338,9,l),
(408,38,o),
(420,114,o),
(420,185,cs),
(420,272,o),
(397,355,o),
(311,355,cs),
(279,355,o),
(252,340,o),
(240,305,c),
(240,590,l),
(370,590,l),
(370,610,l),
(40,610,l),
(40,-10,l),
(60,-10,l),
(60,590,l),
(220,590,l),
(220,140,l),
(240,140,l),
(240,260,ls),
(240,302,o),
(271,335,o),
(311,335,cs),
(377,335,o),
(400,272,o),
(400,185,cs),
(400,86,o),
(374,10,o),
(252,8,c),
(252,-12,l)
);
}
);
width = 560;
}
);
metricLeft = "ca-tamil";
metricRight = "ca-tamil";
},
{
glyphname = "nga_uuMatra-tamil";
layers = (
{
anchors = (
{
name = imatra;
pos = (570,600);
},
{
name = top;
pos = (320,600);
}
);
layerId = "7BAC99B4-31F2-487C-BACA-69B20297995E";
shapes = (
{
closed = 1;
nodes = (
(503,-220,ls),
(579,-220,o),
(635,-164,o),
(635,-88,cs),
(635,-32,ls),
(635,21,o),
(592,59,o),
(534,59,cs),
(525,59,o),
(519,59,o),
(515,59,c),
(515,39,l),
(519,39,o),
(525,39,o),
(534,39,cs),
(583,39,o),
(615,11,o),
(615,-32,cs),
(615,-88,ls),
(615,-155,o),
(570,-200,o),
(503,-200,cs),
(420,-200,ls),
(413,-200,o),
(410,-203,o),
(410,-210,cs),
(410,-216,o),
(413,-220,o),
(420,-220,cs)
);
},
{
closed = 1;
nodes = (
(442,-220,o),
(470,-192,o),
(470,-160,cs),
(470,-128,o),
(442,-100,o),
(410,-100,cs),
(377,-100,o),
(350,-128,o),
(350,-160,cs),
(350,-192,o),
(378,-220,o),
(410,-220,cs)
);
},
{
closed = 1;
nodes = (
(387,-200,o),
(370,-183,o),
(370,-160,cs),
(370,-137,o),
(387,-120,o),
(410,-120,cs),
(433,-120,o),
(450,-137,o),
(450,-160,cs),
(450,-183,o),
(433,-200,o),
(410,-200,cs)
);
},
{
closed = 1;
nodes = (
(500,-60,l),
(520,-60,l),
(520,10,l),
(500,10,l)
);
},
{
closed = 1;
nodes = (
(520,-10,l),
(520,460,l),
(500,460,l),
(500,10,l),
(338,9,l),
(408,38,o),
(420,114,o),
(420,185,cs),
(420,272,o),
(397,355,o),
(311,355,cs),
(279,355,o),
(252,340,o),
(240,305,c),
(240,590,l),
(370,590,l),
(370,610,l),
(40,610,l),
(40,-10,l),
(60,-10,l),
(60,590,l),
(220,590,l),
(220,140,l),
(240,140,l),
(240,260,ls),
(240,302,o),
(271,335,o),
(311,335,cs),
(377,335,o),
(400,272,o),
(400,185,cs),
(400,86,o),
(374,10,o),
(252,8,c),
(252,-12,l)
);
}
);
width = 675;
}
);
metricLeft = "ca-tamil";
metricRight = "ca-tamil";
},
{
glyphname = "ca_uMatra-tamil";
lastChange = "2023-04-29 09:46:55 +0000";
layers = (
{
anchors = (
{
name = imatra;
pos = (415,600);
},
{
name = top;
pos = (243,600);
}
);
layerId = "7BAC99B4-31F2-487C-BACA-69B20297995E";
shapes = (
{
closed = 1;
nodes = (
(214,-10,o),
(260,38,o),
(260,102,cs),
(260,340,l),
(370,340,l),
(370,360,l),
(260,360,l),
(260,590,l),
(370,590,l),
(370,610,l),
(120,610,l),
(120,357,l),
(76,346,o),
(40,304,o),
(40,248,cs),
(40,102,ls),
(40,38,o),
(86,-10,o),
(150,-10,cs)
);
},
{
closed = 1;
nodes = (
(96,10,o),
(60,47,o),
(60,102,cs),
(60,248,ls),
(60,303,o),
(97,340,o),
(142,340,cs),
(240,340,l),
(240,102,ls),
(240,47,o),
(204,10,o),
(150,10,cs)
);
},
{
closed = 1;
nodes = (
(140,590,l),
(240,590,l),
(240,360,l),
(140,360,l)
);
},
{
closed = 1;
nodes = (
(350,-10,l),
(370,-10,l),
(370,360,l),
(350,360,l)
);
},
{
closed = 1;
nodes = (
(370,340,l),
(410,340,l),
(410,360,l),
(370,360,l)
);
}
);
width = 450;
}
);
metricLeft = "ca-tamil";
metricRight = "ca-tamil";
},
{
glyphname = "ca_uuMatra-tamil";
lastChange = "2023-04-29 09:46:55 +0000";
layers = (
{
anchors = (
{
name = imatra;
pos = (420,600);
},
{
name = top;
pos = (245,600);
}
);
layerId = "7BAC99B4-31F2-487C-BACA-69B20297995E";
shapes = (
{
closed = 1;
nodes = (
(214,-10,o),
(260,38,o),
(260,102,cs),
(260,340,l),
(370,340,l),
(370,360,l),
(260,360,l),
(260,590,l),
(370,590,l),
(370,610,l),
(120,610,l),
(120,357,l),
(76,346,o),
(40,304,o),
(40,248,cs),
(40,102,ls),
(40,38,o),
(86,-10,o),
(150,-10,cs)
);
},
{
closed = 1;
nodes = (
(96,10,o),
(60,47,o),
(60,102,cs),
(60,248,ls),
(60,303,o),
(97,340,o),
(142,340,cs),
(240,340,l),
(240,102,ls),
(240,47,o),
(204,10,o),
(150,10,cs)
);
},
{
closed = 1;
nodes = (
(140,590,l),
(240,590,l),
(240,360,l),
(140,360,l)
);
},
{
closed = 1;
nodes = (
(350,-10,l),
(370,-10,l),
(370,360,l),
(350,360,l)
);
},
{
closed = 1;
nodes = (
(370,340,l),
(410,340,l),
(410,360,l),
(370,360,l)
);
},
{
closed = 1;
nodes = (
(353,-220,ls),
(429,-220,o),
(485,-164,o),
(485,-88,cs),
(485,-32,ls),
(485,21,o),
(442,59,o),
(384,59,cs),
(375,59,o),
(369,59,o),
(365,59,c),
(365,39,l),
(369,39,o),
(375,39,o),
(384,39,cs),
(433,39,o),
(465,11,o),
(465,-32,cs),
(465,-88,ls),
(465,-155,o),
(420,-200,o),
(353,-200,cs),
(270,-200,ls),
(263,-200,o),
(260,-203,o),
(260,-210,cs),
(260,-216,o),
(263,-220,o),
(270,-220,cs)
);
},
{
closed = 1;
nodes = (
(292,-220,o),
(320,-192,o),
(320,-160,cs),
(320,-128,o),
(292,-100,o),
(260,-100,cs),
(227,-100,o),
(200,-128,o),
(200,-160,cs),
(200,-192,o),
(228,-220,o),
(260,-220,cs)
);
},
{
closed = 1;
nodes = (
(237,-200,o),
(220,-183,o),
(220,-160,cs),
(220,-137,o),
(237,-120,o),
(260,-120,cs),
(283,-120,o),
(300,-137,o),
(300,-160,cs),
(300,-183,o),
(283,-200,o),
(260,-200,cs)
);
}
);
width = 525;
}
);
metricLeft = "ca-tamil";
metricRight = "ca-tamil";
},
{
glyphname = "nya_uMatra-tamil";
layers = (
{
anchors = (
{
name = imatra;
pos = (630,600);
},
{
name = top;
pos = (350,600);
}
);
layerId = "7BAC99B4-31F2-487C-BACA-69B20297995E";
shapes = (
{
closed = 1;
nodes = (
(380,260,ls),
(380,302,o),
(411,335,o),
(451,335,cs),
(517,335,o),
(540,272,o),
(540,185,cs),
(540,-50,l),
(130,-50,l),
(130,-117,ls),
(130,-228,o),
(213,-311,o),
(324,-311,cs),
(366,-311,ls),
(477,-311,o),
(560,-228,o),
(560,-117,cs),
(560,-70,l),
(660,-70,l),
(660,450,l),
(640,450,l),
(640,-50,l),
(560,-50,l),
(560,185,ls),
(560,272,o),
(537,355,o),
(451,355,cs),
(419,355,o),
(392,340,o),
(380,305,c),
(380,590,l),
(500,590,l),
(500,610,l),
(254,610,ls),
(131,610,o),
(40,519,o),
(40,396,cs),
(40,148,ls),
(40,87,o),
(82,40,o),
(140,40,cs),
(199,40,o),
(240,87,o),
(240,148,cs),
(240,192,ls),
(240,253,o),
(198,300,o),
(140,300,cs),
(106,300,o),
(78,284,o),
(60,258,c),
(60,396,ls),
(60,510,o),
(140,590,o),
(254,590,cs),
(360,590,l),
(360,40,l),
(380,40,l)
);
},
{
closed = 1;
nodes = (
(60,192,ls),
(60,244,o),
(92,280,o),
(140,280,cs),
(188,280,o),
(220,244,o),
(220,192,cs),
(220,148,ls),
(220,96,o),
(188,60,o),
(140,60,cs),
(92,60,o),
(60,96,o),
(60,148,cs)
);
},
{
closed = 1;
nodes = (
(150,-70,l),
(540,-70,l),
(540,-117,ls),
(540,-219,o),
(468,-291,o),
(366,-291,cs),
(324,-291,ls),
(222,-291,o),
(150,-219,o),
(150,-117,cs)
);
}
);
width = 700;
}
);
metricLeft = "ca-tamil";
metricRight = "ca-tamil";
},
{
glyphname = "nya_uuMatra-tamil";
layers = (
{
anchors = (
{
name = imatra;
pos = (655,600);
},
{
name = top;
pos = (375,600);
}
);
layerId = "7BAC99B4-31F2-487C-BACA-69B20297995E";
shapes = (
{
closed = 1;
nodes = (
(660,-10,l),
(660,590,l),
(800,590,l),
(800,-10,l),
(820,-10,l),
(820,590,l),
(890,590,l),
(890,610,l),
(640,610,l),
(640,-10,l)
);
},
{
closed = 1;
nodes = (
(380,590,l),
(500,590,l),
(500,610,l),
(254,610,ls),
(131,610,o),
(40,519,o),
(40,396,cs),
(40,148,ls),
(40,87,o),
(82,40,o),
(140,40,cs),
(199,40,o),
(240,87,o),
(240,148,cs),
(240,192,ls),
(240,253,o),
(198,300,o),
(140,300,cs),
(106,300,o),
(78,284,o),
(60,258,c),
(60,396,ls),
(60,510,o),
(140,590,o),
(254,590,cs),
(360,590,l),
(360,40,l),
(380,40,l)
);
},
{
closed = 1;
nodes = (
(222,-291,o),
(150,-219,o),
(150,-117,cs),
(150,-70,l),
(540,-70,l),
(540,-117,ls),
(540,-219,o),
(468,-291,o),
(366,-291,cs),
(324,-291,ls)
);
},
{
closed = 1;
nodes = (
(92,60,o),
(60,96,o),
(60,148,cs),
(60,192,ls),
(60,244,o),
(92,280,o),
(140,280,cs),
(188,280,o),
(220,244,o),
(220,192,cs),
(220,148,ls),
(220,96,o),
(188,60,o),
(140,60,cs)
);
},
{
closed = 1;
nodes = (
(560,185,l),
(560,272,o),
(537,355,o),
(451,355,cs),
(419,355,o),
(392,340,o),
(380,305,c),
(380,260,l),
(380,302,o),
(411,335,o),
(451,335,cs),
(517,335,o),
(540,272,o),
(540,185,c)
);
},
{
closed = 1;
nodes = (
(540,185,l),
(540,-50,l),
(130,-50,l),
(130,-117,l),
(130,-228,o),
(213,-311,o),
(324,-311,cs),
(366,-311,ls),
(477,-311,o),
(560,-228,o),
(560,-117,cs),
(560,-70,l),
(660,-70,l),
(660,450,l),
(640,450,l),
(640,-50,l),
(560,-50,l),
(560,185,l)
);
}
);
width = 930;
}
);
metricLeft = "ca-tamil";
metricRight = "ca-tamil";
},
{
glyphname = "tta_iMatra-tamil";
lastChange = "2023-04-29 09:46:55 +0000";
layers = (
{
anchors = (
{
name = imatra;
pos = (330,600);
},
{
name = top;
pos = (200,600);
}
);
layerId = "7BAC99B4-31F2-487C-BACA-69B20297995E";
shapes = (
{
closed = 1;
nodes = (
(290,-300,o),
(290,-300,cs),
(290,-10,l),
(360,-10,l),
(360,10,l),
(290,10,l),
(290,198,ls),
(290,251,o),
(251,290,o),
(200,290,cs),
(149,290,o),
(110,251,o),
(110,198,cs),
(110,82,ls),
(110,52,o),
(122,26,o),
(141,10,c),
(60,10,l),
(60,600,l),
(40,600,l),
(40,-10,l),
(270,-10,l),
(270,-300,ls),
(270,-300,o)
);
},
{
closed = 1;
nodes = (
(158,10,o),
(130,38,o),
(130,82,cs),
(130,198,ls),
(130,242,o),
(158,270,o),
(200,270,cs),
(242,270,o),
(270,242,o),
(270,198,cs),
(270,10,l),
(194,10,ls)
);
}
);
width = 400;
}
);
metricLeft = "ca-tamil";
metricRight = "ca-tamil";
},
{
glyphname = "tta_iiMatra-tamil";
layers = (
{
anchors = (
{
name = imatra;
pos = (330,600);
},
{
name = top;
pos = (200,600);
}
);
layerId = "7BAC99B4-31F2-487C-BACA-69B20297995E";
shapes = (
{
closed = 1;
nodes = (
(360,-10,l),
(360,10,l),
(240,10,ls),
(192,10,o),
(161,47,o),
(161,102,cs),
(161,221,l),
(176,202,o),
(199,190,o),
(226,190,cs),
(276,190,o),
(311,230,o),
(311,282,cs),
(311,318,ls),
(311,370,o),
(275,410,o),
(226,410,cs),
(177,410,o),
(141,370,o),
(141,318,cs),
(141,102,ls),
(141,63,o),
(156,30,o),
(181,10,c),
(60,10,l),
(60,600,l),
(40,600,l),
(40,-10,l)
);
},
{
closed = 1;
nodes = (
(187,210,o),
(161,239,o),
(161,282,cs),
(161,318,ls),
(161,361,o),
(187,390,o),
(226,390,cs),
(265,390,o),
(291,361,o),
(291,318,cs),
(291,282,ls),
(291,239,o),
(265,210,o),
(226,210,cs)
);
}
);
width = 400;
}
);
metricLeft = "ca-tamil";
metricRight = "ca-tamil";
},
{
glyphname = "tta_uMatra-tamil";
layers = (
{
anchors = (
{
name = imatra;
pos = (420,600);
},
{
name = top;
pos = (260,600);
}
);
layerId = "7BAC99B4-31F2-487C-BACA-69B20297995E";
shapes = (
{
closed = 1;
nodes = (
(400,-150,o),
(480,-80,o),
(480,83,cs),
(480,174,ls),
(480,306,o),
(430,346,o),
(355,346,cs),
(312,346,o),
(287,333,o),
(270,312,c),
(270,600,l),
(250,600,l),
(250,146,l),
(270,146,l),
(270,254,ls),
(270,297,o),
(299,326,o),
(355,326,cs),
(421,326,o),
(460,297,o),
(460,174,cs),
(460,83,ls),
(460,-71,o),
(391,-130,o),
(260,-130,cs),
(129,-130,o),
(60,-71,o),
(60,83,cs),
(60,587,ls),
(60,731,o),
(129,790,o),
(260,790,cs),
(391,790,o),
(460,731,o),
(460,587,cs),
(460,540,l),
(480,540,l),
(480,587,ls),
(480,740,o),
(400,810,o),
(260,810,cs),
(120,810,o),
(40,740,o),
(40,587,cs),
(40,83,ls),
(40,-80,o),
(120,-150,o),
(260,-150,cs)
);
}
);
width = 520;
}
);
metricLeft = "ca-tamil";
metricRight = "ca-tamil";
},
{
glyphname = "tta_uuMatra-tamil";
layers = (
{
layerId = "7BAC99B4-31F2-487C-BACA-69B20297995E";
shapes = (
{
closed = 1;
nodes = (
(452,480,o),
(480,508,o),
(480,540,cs),
(480,572,o),
(452,600,o),
(420,600,cs),
(387,600,o),
(360,572,o),
(360,540,cs),
(360,508,o),
(388,480,o),
(420,480,cs)
);
},
{
closed = 1;
nodes = (
(397,500,o),
(380,517,o),
(380,540,cs),
(380,563,o),
(397,580,o),
(420,580,cs),
(443,580,o),
(460,563,o),
(460,540,cs),
(460,517,o),
(443,500,o),
(420,500,cs)
);
},
{
closed = 1;
nodes = (
(400,-150,o),
(480,-80,o),
(480,83,cs),
(480,174,ls),
(480,306,o),
(430,346,o),
(355,346,cs),
(312,346,o),
(287,333,o),
(270,312,c),
(270,600,l),
(250,600,l),
(250,146,l),
(270,146,l),
(270,254,ls),
(270,297,o),
(299,326,o),
(355,326,cs),
(421,326,o),
(460,297,o),
(460,174,cs),
(460,83,ls),
(460,-71,o),
(391,-130,o),
(260,-130,cs),
(129,-130,o),
(60,-71,o),
(60,83,cs),
(60,587,ls),
(60,731,o),
(129,790,o),
(260,790,cs),
(391,790,o),
(460,731,o),
(460,587,cs),
(460,540,l),
(480,540,l),
(480,587,ls),
(480,740,o),
(400,810,o),
(260,810,cs),
(120,810,o),
(40,740,o),
(40,587,cs),
(40,83,ls),
(40,-80,o),
(120,-150,o),
(260,-150,cs)
);
}
);
width = 520;
}
);
metricLeft = "ca-tamil";
metricRight = "ca-tamil";
},
{
glyphname = "nna_uMatra-tamil";
layers = (
{
layerId = "7BAC99B4-31F2-487C-BACA-69B20297995E";
shapes = (
{
closed = 1;
nodes = (
(172,10,l),
(106,10,o),
(60,55,o),
(60,122,cs),
(60,416,ls),
(60,518,o),
(132,590,o),
(234,590,cs),
(330,590,l),
(307,572,o),
(292,544,o),
(292,511,cs),
(292,89,ls),
(292,33,o),
(334,-10,o),
(389,-10,cs),
(444,-10,o),
(487,33,o),
(487,89,cs),
(487,511,ls),
(487,544,o),
(473,572,o),
(450,590,c),
(570,590,l),
(547,572,o),
(532,544,o),
(532,511,cs),
(532,89,ls),
(532,33,o),
(574,-10,o),
(629,-10,cs),
(684,-10,o),
(727,33,o),
(727,89,cs),
(727,511,ls),
(727,544,o),
(713,572,o),
(690,590,c),
(717,590,ls),
(815,590,o),
(870,535,o),
(870,437,cs),
(870,-10,l),
(890,-10,l),
(890,437,ls),
(890,545,o),
(825,610,o),
(717,610,cs),
(234,610,ls),
(123,610,o),
(40,527,o),
(40,416,cs),
(40,122,ls),
(40,46,o),
(97,-10,o),
(172,-10,c)
);
},
{
closed = 1;
nodes = (
(343,10,o),
(312,42,o),
(312,89,cs),
(312,511,ls),
(312,558,o),
(344,590,o),
(391,590,cs),
(436,590,o),
(467,558,o),
(467,511,cs),
(467,89,ls),
(467,42,o),
(435,10,o),
(389,10,cs)
);
},
{
closed = 1;
nodes = (
(583,10,o),
(552,42,o),
(552,89,cs),
(552,511,ls),
(552,558,o),
(584,590,o),
(631,590,cs),
(676,590,o),
(707,558,o),
(707,511,cs),
(707,89,ls),
(707,42,o),
(675,10,o),
(629,10,cs)
);
},
{
closed = 1;
nodes = (
(231,-10,o),
(272,37,o),
(272,98,cs),
(272,142,ls),
(272,203,o),
(230,250,o),
(172,250,cs),
(114,250,o),
(72,203,o),
(72,142,cs),
(72,98,ls),
(72,37,o),
(114,-10,o),
(172,-10,cs)
);
},
{
closed = 1;
nodes = (
(124,10,o),
(92,46,o),
(92,98,cs),
(92,142,ls),
(92,194,o),
(124,230,o),
(172,230,cs),
(220,230,o),
(252,194,o),
(252,142,cs),
(252,98,ls),
(252,46,o),
(220,10,o),
(172,10,cs)
);
},
{
closed = 1;
nodes = (
(696,-311,ls),
(807,-311,o),
(890,-228,o),
(890,-117,cs),
(890,-70,l),
(990,-70,l),
(990,490,l),
(970,490,l),
(970,-50,l),
(890,-50,l),
(890,55,l),
(870,55,l),
(870,-50,l),
(460,-50,l),
(460,-117,ls),
(460,-228,o),
(543,-311,o),
(654,-311,cs)
);
},
{
closed = 1;
nodes = (
(552,-291,o),
(480,-219,o),
(480,-117,cs),
(480,-70,l),
(870,-70,l),
(870,-117,ls),
(870,-219,o),
(798,-291,o),
(696,-291,cs),
(654,-291,ls)
);
}
);
width = 1030;
}
);
metricLeft = "ca-tamil";
metricRight = "ca-tamil";
},
{
glyphname = "nna_uuMatra-tamil";
layers = (
{
layerId = "7BAC99B4-31F2-487C-BACA-69B20297995E";
shapes = (
{
closed = 1;
nodes = (
(172,10,l),
(106,10,o),
(60,55,o),
(60,122,cs),
(60,416,ls),
(60,518,o),
(132,590,o),
(234,590,cs),
(330,590,l),
(307,572,o),
(292,544,o),
(292,511,cs),
(292,89,ls),
(292,33,o),
(334,-10,o),
(389,-10,cs),
(444,-10,o),
(487,33,o),
(487,89,cs),
(487,511,ls),
(487,544,o),
(473,572,o),
(450,590,c),
(570,590,l),
(547,572,o),
(532,544,o),
(532,511,cs),
(532,89,ls),
(532,33,o),
(574,-10,o),
(629,-10,cs),
(684,-10,o),
(727,33,o),
(727,89,cs),
(727,511,ls),
(727,544,o),
(713,572,o),
(690,590,c),
(717,590,ls),
(815,590,o),
(870,535,o),
(870,437,cs),
(870,-10,l),
(890,-10,l),
(890,437,ls),
(890,545,o),
(825,610,o),
(717,610,cs),
(234,610,ls),
(123,610,o),
(40,527,o),
(40,416,cs),
(40,122,ls),
(40,46,o),
(97,-10,o),
(172,-10,c)
);
},
{
closed = 1;
nodes = (
(343,10,o),
(312,42,o),
(312,89,cs),
(312,511,ls),
(312,558,o),
(344,590,o),
(391,590,cs),
(436,590,o),
(467,558,o),
(467,511,cs),
(467,89,ls),
(467,42,o),
(435,10,o),
(389,10,cs)
);
},
{
closed = 1;
nodes = (
(583,10,o),
(552,42,o),
(552,89,cs),
(552,511,ls),
(552,558,o),
(584,590,o),
(631,590,cs),
(676,590,o),
(707,558,o),
(707,511,cs),
(707,89,ls),
(707,42,o),
(675,10,o),
(629,10,cs)
);
},
{
closed = 1;
nodes = (
(231,-10,o),
(272,37,o),
(272,98,cs),
(272,142,ls),
(272,203,o),
(230,250,o),
(172,250,cs),
(114,250,o),
(72,203,o),
(72,142,cs),
(72,98,ls),
(72,37,o),
(114,-10,o),
(172,-10,cs)
);
},
{
closed = 1;
nodes = (
(124,10,o),
(92,46,o),
(92,98,cs),
(92,142,ls),
(92,194,o),
(124,230,o),
(172,230,cs),
(220,230,o),
(252,194,o),
(252,142,cs),
(252,98,ls),
(252,46,o),
(220,10,o),
(172,10,cs)
);
},
{
closed = 1;
nodes = (
(696,-311,ls),
(807,-311,o),
(890,-228,o),
(890,-117,cs),
(890,-70,l),
(965,-70,l),
(965,450,l),
(945,450,l),
(945,-50,l),
(890,-50,l),
(890,55,l),
(870,55,l),
(870,-50,l),
(460,-50,l),
(460,-117,ls),
(460,-228,o),
(543,-311,o),
(654,-311,cs)
);
},
{
closed = 1;
nodes = (
(552,-291,o),
(480,-219,o),
(480,-117,cs),
(480,-70,l),
(870,-70,l),
(870,-117,ls),
(870,-219,o),
(798,-291,o),
(696,-291,cs),
(654,-291,ls)
);
},
{
closed = 1;
nodes = (
(965,-10,l),
(965,590,l),
(1130,590,l),
(1130,-10,l),
(1150,-10,l),
(1150,590,l),
(1220,590,l),
(1220,610,l),
(945,610,l),
(945,-10,l)
);
}
);
width = 1260;
}
);
metricLeft = "ca-tamil";
metricRight = "ca-tamil";
},
{
glyphname = "ta_uMatra-tamil";
layers = (
{
anchors = (
{
name = imatra;
pos = (489,600);
},
{
name = top;
pos = (280,600);
}
);
layerId = "7BAC99B4-31F2-487C-BACA-69B20297995E";
shapes = (
{
closed = 1;
nodes = (
(231,-309,ls),
(339,-309,o),
(419,-229,o),
(419,-121,cs),
(419,-68,l),
(519,-68,l),
(519,462,l),
(499,462,l),
(499,-48,l),
(419,-48,l),
(419,145,ls),
(419,284,o),
(374,360,o),
(270,360,cs),
(260,360,l),
(260,590,l),
(370,590,l),
(370,610,l),
(120,610,l),
(120,357,l),
(75,347,o),
(40,303,o),
(40,248,cs),
(40,102,ls),
(40,38,o),
(87,-10,o),
(150,-10,cs),
(213,-10,o),
(260,38,o),
(260,102,cs),
(260,340,l),
(270,340,ls),
(361,340,o),
(399,277,o),
(399,145,cs),
(399,-48,l),
(40,-48,l),
(40,-121,l),
(40,-229,o),
(120,-309,o),
(228,-309,cs)
);
},
{
closed = 1;
nodes = (
(129,-289,o),
(60,-220,o),
(60,-121,cs),
(60,-68,l),
(399,-68,l),
(399,-121,ls),
(399,-220,o),
(330,-289,o),
(231,-289,cs),
(228,-289,ls)
);
},
{
closed = 1;
nodes = (
(96,10,o),
(60,47,o),
(60,102,cs),
(60,248,ls),
(60,303,o),
(97,340,o),
(142,340,cs),
(240,340,l),
(240,102,ls),
(240,47,o),
(204,10,o),
(150,10,cs)
);
},
{
closed = 1;
nodes = (
(140,590,l),
(240,590,l),
(240,360,l),
(140,360,l)
);
}
);
width = 559;
}
);
metricLeft = "ca-tamil";
metricRight = "ca-tamil";
},
{
glyphname = "ta_uuMatra-tamil";
layers = (
{
anchors = (
{
name = imatra;
pos = (489,600);
},
{
name = top;
pos = (280,600);
}
);
layerId = "7BAC99B4-31F2-487C-BACA-69B20297995E";
shapes = (
{
closed = 1;
nodes = (
(231,-309,ls),
(339,-309,o),
(419,-229,o),
(419,-121,cs),
(419,-68,l),
(494,-68,l),
(494,462,l),
(474,462,l),
(474,-48,l),
(419,-48,l),
(419,145,ls),
(419,284,o),
(374,360,o),
(270,360,cs),
(260,360,l),
(260,590,l),
(370,590,l),
(370,610,l),
(120,610,l),
(120,357,l),
(75,347,o),
(40,303,o),
(40,248,cs),
(40,102,ls),
(40,38,o),
(87,-10,o),
(150,-10,cs),
(213,-10,o),
(260,38,o),
(260,102,cs),
(260,340,l),
(270,340,ls),
(361,340,o),
(399,277,o),
(399,145,cs),
(399,-48,l),
(40,-48,l),
(40,-121,l),
(40,-229,o),
(120,-309,o),
(228,-309,cs)
);
},
{
closed = 1;
nodes = (
(129,-289,o),
(60,-220,o),
(60,-121,cs),
(60,-68,l),
(399,-68,l),
(399,-121,ls),
(399,-220,o),
(330,-289,o),
(231,-289,cs),
(228,-289,ls)
);
},
{
closed = 1;
nodes = (
(96,10,o),
(60,47,o),
(60,102,cs),
(60,248,ls),
(60,303,o),
(97,340,o),
(142,340,cs),
(240,340,l),
(240,102,ls),
(240,47,o),
(204,10,o),
(150,10,cs)
);
},
{
closed = 1;
nodes = (
(140,590,l),
(240,590,l),
(240,360,l),
(140,360,l)
);
},
{
closed = 1;
nodes = (
(494,-10,l),
(494,590,l),
(634,590,l),
(634,-10,l),
(654,-10,l),
(654,590,l),
(724,590,l),
(724,610,l),
(474,610,l),
(474,-10,l)
);
}
);
width = 764;
}
);
metricLeft = "ca-tamil";
metricRight = "ca-tamil";
},
{
glyphname = "na_uMatra-tamil";
layers = (
{
anchors = (
{
name = imatra;
pos = (490,600);
},
{
name = top;
pos = (280,600);
}
);
layerId = "7BAC99B4-31F2-487C-BACA-69B20297995E";
shapes = (
{
closed = 1;
nodes = (
(232,-309,ls),
(340,-309,o),
(420,-229,o),
(420,-121,cs),
(420,-68,l),
(520,-68,l),
(520,462,l),
(500,462,l),
(500,-48,l),
(420,-48,l),
(420,4,l),
(400,4,l),
(400,-48,l),
(41,-48,l),
(41,-121,ls),
(41,-229,o),
(121,-309,o),
(229,-309,cs)
);
},
{
closed = 1;
nodes = (
(130,-289,o),
(61,-220,o),
(61,-121,cs),
(61,-68,l),
(400,-68,l),
(400,-121,ls),
(400,-220,o),
(331,-289,o),
(232,-289,cs),
(229,-289,ls)
);
},
{
closed = 1;
nodes = (
(420,185,l),
(420,272,o),
(397,355,o),
(311,355,cs),
(279,355,o),
(252,340,o),
(240,305,c),
(240,590,l),
(370,590,l),
(370,610,l),
(40,610,l),
(40,-10,l),
(60,-10,l),
(60,590,l),
(220,590,l),
(220,140,l),
(240,140,l),
(240,260,ls),
(240,302,o),
(271,335,o),
(311,335,cs),
(377,335,o),
(400,272,o),
(400,185,c)
);
},
{
closed = 1;
nodes = (
(400,185,l),
(400,4,l),
(420,4,l),
(420,185,l)
);
}
);
width = 560;
}
);
metricLeft = "ca-tamil";
metricRight = "ca-tamil";
},
{
glyphname = "na_uuMatra-tamil";
layers = (
{
anchors = (
{
name = imatra;
pos = (515,600);
},
{
name = top;
pos = (305,600);
}
);
layerId = "7BAC99B4-31F2-487C-BACA-69B20297995E";
shapes = (
{
closed = 1;
nodes = (
(520,-10,l),
(520,590,l),
(660,590,l),
(660,-10,l),
(680,-10,l),
(680,590,l),
(750,590,l),
(750,610,l),
(500,610,l),
(500,-10,l)
);
},
{
closed = 1;
nodes = (
(232,-309,ls),
(340,-309,o),
(420,-229,o),
(420,-121,cs),
(420,-68,l),
(520,-68,l),
(520,462,l),
(500,462,l),
(500,-48,l),
(420,-48,l),
(420,4,l),
(400,4,l),
(400,-48,l),
(41,-48,l),
(41,-121,ls),
(41,-229,o),
(121,-309,o),
(229,-309,cs)
);
},
{
closed = 1;
nodes = (
(130,-289,o),
(61,-220,o),
(61,-121,cs),
(61,-68,l),
(400,-68,l),
(400,-121,ls),
(400,-220,o),
(331,-289,o),
(232,-289,cs),
(229,-289,ls)
);
},
{
closed = 1;
nodes = (
(420,185,l),
(420,272,o),
(397,355,o),
(311,355,cs),
(279,355,o),
(252,340,o),
(240,305,c),
(240,590,l),
(370,590,l),
(370,610,l),
(40,610,l),
(40,10,l),
(60,10,l),
(60,590,l),
(220,590,l),
(220,140,l),
(240,140,l),
(240,260,ls),
(240,302,o),
(271,335,o),
(311,335,cs),
(377,335,o),
(400,272,o),
(400,185,c)
);
},
{
closed = 1;
nodes = (
(400,185,l),
(400,4,l),
(420,4,l),
(420,185,l)
);
}
);
width = 790;
}
);
metricLeft = "ca-tamil";
metricRight = "ca-tamil";
},
{
glyphname = "nnna_uMatra-tamil";
layers = (
{
anchors = (
{
name = imatra;
pos = (777,600);
},
{
name = top;
pos = (424,600);
}
);
layerId = "7BAC99B4-31F2-487C-BACA-69B20297995E";
shapes = (
{
closed = 1;
nodes = (
(453,-311,ls),
(564,-311,o),
(647,-228,o),
(647,-117,cs),
(647,-70,l),
(807,-70,l),
(807,490,l),
(787,490,l),
(787,-50,l),
(647,-50,l),
(647,478,ls),
(647,554,o),
(591,610,o),
(515,610,cs),
(234,610,ls),
(123,610,o),
(40,527,o),
(40,416,cs),
(40,122,ls),
(40,48,o),
(93,-6,o),
(164,-10,cs),
(166,-10,o),
(168,-10,o),
(170,-10,cs),
(172,-10,ls),
(221,-10,o),
(255,31,o),
(255,82,cs),
(255,118,ls),
(255,170,o),
(219,210,o),
(170,210,cs),
(121,210,o),
(85,170,o),
(85,118,cs),
(85,82,ls),
(85,66,o),
(89,51,o),
(95,37,c),
(73,57,o),
(60,87,o),
(60,122,cs),
(60,416,ls),
(60,518,o),
(132,590,o),
(234,590,cs),
(330,590,l),
(307,572,o),
(292,544,o),
(292,511,cs),
(292,89,ls),
(292,33,o),
(334,-10,o),
(389,-10,cs),
(444,-10,o),
(487,33,o),
(487,89,cs),
(487,511,ls),
(487,548,o),
(474,574,o),
(453,590,c),
(515,590,ls),
(582,590,o),
(627,545,o),
(627,478,cs),
(627,-50,l),
(184,-50,l),
(184,-117,l),
(184,-228,o),
(267,-311,o),
(378,-311,cs)
);
},
{
closed = 1;
nodes = (
(276,-291,o),
(204,-219,o),
(204,-117,cs),
(204,-70,l),
(627,-70,l),
(627,-117,ls),
(627,-219,o),
(555,-291,o),
(453,-291,cs),
(378,-291,ls)
);
},
{
closed = 1;
nodes = (
(129,10,o),
(105,41,o),
(105,82,cs),
(105,118,ls),
(105,161,o),
(131,190,o),
(170,190,cs),
(209,190,o),
(235,161,o),
(235,118,cs),
(235,82,ls),
(235,39,o),
(210,10,o),
(171,10,cs),
(165,10,ls)
);
},
{
closed = 1;
nodes = (
(343,10,o),
(312,42,o),
(312,89,cs),
(312,511,ls),
(312,557,o),
(343,589,o),
(389,590,cs),
(435,589,o),
(467,567,o),
(467,511,cs),
(467,89,ls),
(467,42,o),
(435,10,o),
(389,10,cs)
);
}
);
width = 847;
}
);
metricLeft = "ca-tamil";
metricRight = "ca-tamil";
},
{
glyphname = "nnna_uuMatra-tamil";
layers = (
{
anchors = (
{
name = imatra;
pos = (777,600);
},
{
name = top;
pos = (424,600);
}
);
layerId = "7BAC99B4-31F2-487C-BACA-69B20297995E";
shapes = (
{
closed = 1;
nodes = (
(453,-311,ls),
(564,-311,o),
(647,-228,o),
(647,-117,cs),
(647,-70,l),
(722,-70,l),
(722,460,l),
(702,460,l),
(702,-50,l),
(647,-50,l),
(647,478,ls),
(647,554,o),
(591,610,o),
(515,610,cs),
(234,610,ls),
(123,610,o),
(40,527,o),
(40,416,cs),
(40,122,ls),
(40,48,o),
(93,-6,o),
(164,-10,cs),
(166,-10,o),
(168,-10,o),
(170,-10,cs),
(172,-10,ls),
(221,-10,o),
(255,31,o),
(255,82,cs),
(255,118,ls),
(255,170,o),
(219,210,o),
(170,210,cs),
(121,210,o),
(85,170,o),
(85,118,cs),
(85,82,ls),
(85,66,o),
(89,51,o),
(95,37,c),
(73,57,o),
(60,87,o),
(60,122,cs),
(60,416,ls),
(60,518,o),
(132,590,o),
(234,590,cs),
(330,590,l),
(307,572,o),
(292,544,o),
(292,511,cs),
(292,89,ls),
(292,33,o),
(334,-10,o),
(389,-10,cs),
(444,-10,o),
(487,33,o),
(487,89,cs),
(487,511,ls),
(487,548,o),
(474,574,o),
(453,590,c),
(515,590,ls),
(582,590,o),
(627,545,o),
(627,478,cs),
(627,-50,l),
(184,-50,l),
(184,-117,l),
(184,-228,o),
(267,-311,o),
(378,-311,cs)
);
},
{
closed = 1;
nodes = (
(276,-291,o),
(204,-219,o),
(204,-117,cs),
(204,-70,l),
(627,-70,l),
(627,-117,ls),
(627,-219,o),
(555,-291,o),
(453,-291,cs),
(378,-291,ls)
);
},
{
closed = 1;
nodes = (
(129,10,o),
(105,41,o),
(105,82,cs),
(105,118,ls),
(105,161,o),
(131,190,o),
(170,190,cs),
(209,190,o),
(235,161,o),
(235,118,cs),
(235,82,ls),
(235,39,o),
(210,10,o),
(171,10,cs),
(165,10,ls)
);
},
{
closed = 1;
nodes = (
(343,10,o),
(312,42,o),
(312,89,cs),
(312,511,ls),
(312,557,o),
(343,589,o),
(389,590,cs),
(435,589,o),
(467,567,o),
(467,511,cs),
(467,89,ls),
(467,42,o),
(435,10,o),
(389,10,cs)
);
},
{
closed = 1;
nodes = (
(722,-10,l),
(722,590,l),
(862,590,l),
(862,-10,l),
(882,-10,l),
(882,590,l),
(952,590,l),
(952,610,l),
(702,610,l),
(702,-10,l)
);
}
);
width = 992;
}
);
metricLeft = "ca-tamil";
metricRight = "ca-tamil";
},
{
glyphname = "pa_uMatra-tamil";
layers = (
{
anchors = (
{
name = top;
pos = (200,600);
}
);
layerId = "7BAC99B4-31F2-487C-BACA-69B20297995E";
shapes = (
{
closed = 1;
nodes = (
(360,-310,l),
(360,610,l),
(340,610,l),
(340,10,l),
(60,10,l),
(60,610,l),
(40,610,l),
(40,-10,l),
(340,-10,l),
(340,-310,l)
);
}
);
width = 400;
}
);
metricLeft = "ca-tamil";
metricRight = "ca-tamil";
},
{
glyphname = "pa_uuMatra-tamil";
layers = (
{
anchors = (
{
name = imatra;
pos = (410,600);
},
{
name = top;
pos = (240,600);
}
);
layerId = "7BAC99B4-31F2-487C-BACA-69B20297995E";
shapes = (
{
closed = 1;
nodes = (
(360,-10,l),
(360,610,l),
(340,610,l),
(340,10,l),
(60,10,l),
(60,610,l),
(40,610,l),
(40,-6,o),
(40,-10,o),
(40,-10,cs)
);
},
{
closed = 1;
nodes = (
(343,-220,ls),
(419,-220,o),
(475,-164,o),
(475,-88,cs),
(475,-32,ls),
(475,21,o),
(432,59,o),
(374,59,cs),
(365,59,o),
(359,59,o),
(355,59,c),
(355,39,l),
(359,39,o),
(365,39,o),
(374,39,cs),
(423,39,o),
(455,11,o),
(455,-32,cs),
(455,-88,ls),
(455,-155,o),
(410,-200,o),
(343,-200,cs),
(260,-200,ls),
(253,-200,o),
(250,-203,o),
(250,-210,cs),
(250,-216,o),
(253,-220,o),
(260,-220,cs)
);
},
{
closed = 1;
nodes = (
(282,-220,o),
(310,-192,o),
(310,-160,cs),
(310,-128,o),
(282,-100,o),
(250,-100,cs),
(217,-100,o),
(190,-128,o),
(190,-160,cs),
(190,-192,o),
(218,-220,o),
(250,-220,cs)
);
},
{
closed = 1;
nodes = (
(227,-200,o),
(210,-183,o),
(210,-160,cs),
(210,-137,o),
(227,-120,o),
(250,-120,cs),
(273,-120,o),
(290,-137,o),
(290,-160,cs),
(290,-183,o),
(273,-200,o),
(250,-200,cs)
);
},
{
closed = 1;
nodes = (
(340,-60,l),
(360,-60,l),
(360,10,l),
(340,10,l)
);
}
);
width = 515;
}
);
metricLeft = "ca-tamil";
metricRight = "ca-tamil";
},
{
glyphname = "ma_uMatra-tamil";
layers = (
{
anchors = (
{
name = imatra;
pos = (480,600);
},
{
name = top;
pos = (275,600);
}
);
layerId = "7BAC99B4-31F2-487C-BACA-69B20297995E";
shapes = (
{
closed = 1;
nodes = (
(197,-190,ls),
(276,-190,o),
(336,-132,o),
(335,-53,cs),
(335,0,l),
(315,0,l),
(315,-53,ls),
(315,-123,o),
(267,-170,o),
(197,-170,cs),
(177,-170,ls),
(107,-170,o),
(60,-122,o),
(60,-52,cs),
(60,460,l),
(40,460,l),
(40,-52,ls),
(40,-131,o),
(98,-190,o),
(177,-190,cs)
);
},
{
closed = 1;
nodes = (
(411,-10,ls),
(467,-10,o),
(510,33,o),
(510,89,cs),
(510,511,ls),
(510,567,o),
(468,610,o),
(413,610,cs),
(358,610,o),
(315,567,o),
(315,511,cs),
(315,10,l),
(160,10,l),
(160,610,l),
(140,610,l),
(140,-10,l)
);
},
{
closed = 1;
nodes = (
(335,511,ls),
(335,558,o),
(367,590,o),
(413,590,cs),
(459,590,o),
(490,558,o),
(490,511,cs),
(490,89,ls),
(490,42,o),
(458,10,o),
(411,10,cs),
(335,10,l)
);
}
);
width = 550;
}
);
metricLeft = "ca-tamil";
metricRight = "ca-tamil";
},
{
glyphname = "ma_uuMatra-tamil";
layers = (
{
anchors = (
{
name = imatra;
pos = (520,600);
},
{
name = top;
pos = (315,600);
}
);
layerId = "7BAC99B4-31F2-487C-BACA-69B20297995E";
shapes = (
{
closed = 1;
nodes = (
(237,-190,ls),
(316,-190,o),
(375,-132,o),
(375,-53,cs),
(375,0,l),
(355,0,l),
(355,-53,ls),
(355,-123,o),
(307,-170,o),
(237,-170,cs),
(177,-170,ls),
(107,-170,o),
(60,-122,o),
(60,-52,cs),
(60,460,l),
(40,460,l),
(40,-52,ls),
(40,-131,o),
(98,-190,o),
(177,-190,cs)
);
},
{
closed = 1;
nodes = (
(451,-10,ls),
(507,-10,o),
(550,33,o),
(550,89,cs),
(550,511,ls),
(550,567,o),
(508,610,o),
(453,610,cs),
(398,610,o),
(355,567,o),
(355,511,cs),
(355,10,l),
(200,10,l),
(200,610,l),
(180,610,l),
(180,-10,l)
);
},
{
closed = 1;
nodes = (
(375,511,ls),
(375,558,o),
(407,590,o),
(453,590,cs),
(499,590,o),
(530,558,o),
(530,511,cs),
(530,89,ls),
(530,42,o),
(498,10,o),
(451,10,cs),
(375,10,l)
);
},
{
closed = 1;
nodes = (
(132,400,o),
(160,428,o),
(160,460,cs),
(160,492,o),
(132,520,o),
(100,520,cs),
(67,520,o),
(40,492,o),
(40,460,cs),
(40,428,o),
(68,400,o),
(100,400,cs)
);
},
{
closed = 1;
nodes = (
(77,420,o),
(60,437,o),
(60,460,cs),
(60,483,o),
(77,500,o),
(100,500,cs),
(123,500,o),
(140,483,o),
(140,460,cs),
(140,437,o),
(123,420,o),
(100,420,cs)
);
}
);
width = 590;
}
);
metricLeft = "ca-tamil";
metricRight = "ca-tamil";
},
{
glyphname = "ya_uMatra-tamil";
lastChange = "2023-04-29 09:46:55 +0000";
layers = (
{
anchors = (
{
name = top;
pos = (230,600);
}
);
layerId = "7BAC99B4-31F2-487C-BACA-69B20297995E";
shapes = (
{
closed = 1;
nodes = (
(400,-300,l),
(420,-300,l),
(420,0,l),
(400,0,l)
);
},
{
closed = 1;
nodes = (
(174,-10,o),
(202,5,o),
(220,29,c),
(220,-10,l),
(420,-10,l),
(420,610,l),
(400,610,l),
(400,10,l),
(240,10,l),
(240,590,l),
(220,590,l),
(220,92,ls),
(220,43,o),
(188,10,o),
(140,10,cs),
(92,10,o),
(60,43,o),
(60,92,cs),
(60,610,l),
(40,610,l),
(40,92,ls),
(40,34,o),
(82,-10,o),
(140,-10,cs)
);
}
);
width = 460;
}
);
metricLeft = "ca-tamil";
metricRight = "ca-tamil";
},
{
glyphname = "ya_uuMatra-tamil";
lastChange = "2023-04-29 09:46:55 +0000";
layers = (
{
anchors = (
{
name = imatra;
pos = (470,600);
},
{
name = top;
pos = (270,600);
}
);
layerId = "7BAC99B4-31F2-487C-BACA-69B20297995E";
shapes = (
{
closed = 1;
nodes = (
(174,-10,o),
(202,5,o),
(220,29,c),
(220,-10,l),
(420,-10,l),
(420,610,l),
(400,610,l),
(400,10,l),
(240,10,l),
(240,590,l),
(220,590,l),
(220,92,ls),
(220,43,o),
(188,10,o),
(140,10,cs),
(92,10,o),
(60,43,o),
(60,92,cs),
(60,610,l),
(40,610,l),
(40,92,ls),
(40,34,o),
(82,-10,o),
(140,-10,cs)
);
},
{
closed = 1;
nodes = (
(403,-220,ls),
(479,-220,o),
(535,-164,o),
(535,-88,cs),
(535,-32,ls),
(535,21,o),
(492,59,o),
(434,59,cs),
(425,59,o),
(419,59,o),
(415,59,c),
(415,39,l),
(419,39,o),
(425,39,o),
(434,39,cs),
(483,39,o),
(515,11,o),
(515,-32,cs),
(515,-88,ls),
(515,-155,o),
(470,-200,o),
(403,-200,cs),
(320,-200,ls),
(313,-200,o),
(310,-203,o),
(310,-210,cs),
(310,-216,o),
(313,-220,o),
(320,-220,cs)
);
},
{
closed = 1;
nodes = (
(342,-220,o),
(370,-192,o),
(370,-160,cs),
(370,-128,o),
(342,-100,o),
(310,-100,cs),
(277,-100,o),
(250,-128,o),
(250,-160,cs),
(250,-192,o),
(278,-220,o),
(310,-220,cs)
);
},
{
closed = 1;
nodes = (
(287,-200,o),
(270,-183,o),
(270,-160,cs),
(270,-137,o),
(287,-120,o),
(310,-120,cs),
(333,-120,o),
(350,-137,o),
(350,-160,cs),
(350,-183,o),
(333,-200,o),
(310,-200,cs)
);
},
{
closed = 1;
nodes = (
(400,-60,l),
(420,-60,l),
(420,10,l),
(400,10,l)
);
}
);
width = 575;
}
);
metricLeft = "ca-tamil";
metricRight = "ca-tamil";
},
{
glyphname = "ra_uMatra-tamil";
layers = (
{
anchors = (
{
name = imatra;
pos = (490,600);
},
{
name = top;
pos = (280,600);
}
);
layerId = "7BAC99B4-31F2-487C-BACA-69B20297995E";
shapes = (
{
closed = 1;
nodes = (
(500,185,l),
(500,104,ls),
(500,-38,o),
(428,-130,o),
(280,-130,cs),
(132,-130,o),
(60,-38,o),
(60,104,cs),
(60,576,ls),
(60,718,o),
(152,790,o),
(280,790,cs),
(408,790,o),
(500,718,o),
(500,576,cs),
(500,540,l),
(520,540,l),
(520,576,ls),
(520,727,o),
(417,810,o),
(280,810,cs),
(143,810,o),
(40,727,o),
(40,576,cs),
(40,104,ls),
(40,-47,o),
(123,-150,o),
(280,-150,cs),
(437,-150,o),
(520,-47,o),
(520,104,cs),
(520,185,l)
);
},
{
closed = 1;
nodes = (
(520,185,l),
(520,272,o),
(497,355,o),
(411,355,cs),
(379,355,o),
(352,340,o),
(340,305,c),
(340,590,l),
(440,590,l),
(440,610,l),
(140,610,l),
(140,80,l),
(160,80,l),
(160,590,l),
(320,590,l),
(320,140,l),
(340,140,l),
(340,260,ls),
(340,302,o),
(371,335,o),
(411,335,cs),
(477,335,o),
(500,272,o),
(500,185,c)
);
}
);
width = 560;
}
);
metricLeft = "ca-tamil";
metricRight = "ca-tamil";
},
{
glyphname = "ra_uuMatra-tamil";
layers = (
{
anchors = (
{
name = imatra;
pos = (490,600);
},
{
name = top;
pos = (280,600);
}
);
layerId = "7BAC99B4-31F2-487C-BACA-69B20297995E";
shapes = (
{
closed = 1;
nodes = (
(492,400,o),
(520,428,o),
(520,460,cs),
(520,492,o),
(492,520,o),
(460,520,cs),
(427,520,o),
(400,492,o),
(400,460,cs),
(400,428,o),
(428,400,o),
(460,400,cs)
);
},
{
closed = 1;
nodes = (
(437,420,o),
(420,437,o),
(420,460,cs),
(420,483,o),
(437,500,o),
(460,500,cs),
(483,500,o),
(500,483,o),
(500,460,cs),
(500,437,o),
(483,420,o),
(460,420,cs)
);
},
{
closed = 1;
nodes = (
(500,565,l),
(500,460,l),
(520,460,l),
(520,565,l)
);
},
{
closed = 1;
nodes = (
(500,185,l),
(500,104,ls),
(500,-38,o),
(428,-130,o),
(280,-130,cs),
(132,-130,o),
(60,-38,o),
(60,104,cs),
(60,576,ls),
(60,718,o),
(152,790,o),
(280,790,cs),
(408,790,o),
(500,718,o),
(500,576,cs),
(500,540,l),
(520,540,l),
(520,576,ls),
(520,727,o),
(417,810,o),
(280,810,cs),
(143,810,o),
(40,727,o),
(40,576,cs),
(40,104,ls),
(40,-47,o),
(123,-150,o),
(280,-150,cs),
(437,-150,o),
(520,-47,o),
(520,104,cs),
(520,185,l)
);
},
{
closed = 1;
nodes = (
(520,185,l),
(520,272,o),
(497,355,o),
(411,355,cs),
(379,355,o),
(352,340,o),
(340,305,c),
(340,590,l),
(440,590,l),
(440,610,l),
(140,610,l),
(140,80,l),
(160,80,l),
(160,590,l),
(320,590,l),
(320,140,l),
(340,140,l),
(340,260,ls),
(340,302,o),
(371,335,o),
(411,335,cs),
(477,335,o),
(500,272,o),
(500,185,c)
);
}
);
width = 560;
}
);
metricLeft = "ca-tamil";
metricRight = "ca-tamil";
},
{
glyphname = "rra_uMatra-tamil";
layers = (
{
anchors = (
{
name = imatra;
pos = (281,601);
},
{
name = top;
pos = (200,600);
}
);
layerId = "7BAC99B4-31F2-487C-BACA-69B20297995E";
shapes = (
{
closed = 1;
nodes = (
(227,-311,ls),
(320,-311,o),
(390,-241,o),
(390,-148,cs),
(390,-70,l),
(490,-70,l),
(490,460,l),
(470,460,l),
(470,-50,l),
(390,-50,l),
(390,369,ls),
(390,507,o),
(385,611,o),
(281,611,cs),
(238,611,o),
(213,592,o),
(200,565,c),
(186,593,o),
(158,610,o),
(125,610,cs),
(77,610,o),
(40,573,o),
(40,524,cs),
(40,70,l),
(60,70,l),
(60,524,ls),
(60,564,o),
(86,590,o),
(125,590,cs),
(164,590,o),
(190,564,o),
(190,524,cs),
(190,110,l),
(210,110,l),
(210,516,ls),
(210,559,o),
(227,591,o),
(281,591,cs),
(366,591,o),
(370,506,o),
(370,369,cs),
(370,-50,l),
(40,-50,l),
(40,-148,l),
(40,-241,o),
(110,-311,o),
(203,-311,cs)
);
},
{
closed = 1;
nodes = (
(119,-291,o),
(60,-232,o),
(60,-148,cs),
(60,-70,l),
(370,-70,l),
(370,-148,ls),
(370,-232,o),
(311,-291,o),
(227,-291,cs),
(203,-291,ls)
);
}
);
width = 530;
}
);
metricLeft = "ca-tamil";
metricRight = "ca-tamil";
},
{
glyphname = "rra_uuMatra-tamil";
layers = (
{
anchors = (
{
name = imatra;
pos = (281,601);
},
{
name = top;
pos = (200,600);
}
);
layerId = "7BAC99B4-31F2-487C-BACA-69B20297995E";
shapes = (
{
closed = 1;
nodes = (
(227,-311,ls),
(320,-311,o),
(390,-241,o),
(390,-148,cs),
(390,-70,l),
(465,-70,l),
(465,460,l),
(445,460,l),
(445,-50,l),
(390,-50,l),
(390,369,ls),
(390,507,o),
(385,611,o),
(281,611,cs),
(238,611,o),
(213,592,o),
(200,565,c),
(186,593,o),
(158,610,o),
(125,610,cs),
(77,610,o),
(40,573,o),
(40,524,cs),
(40,70,l),
(60,70,l),
(60,524,ls),
(60,564,o),
(86,590,o),
(125,590,cs),
(164,590,o),
(190,564,o),
(190,524,cs),
(190,110,l),
(210,110,l),
(210,516,ls),
(210,559,o),
(227,591,o),
(281,591,cs),
(366,591,o),
(370,506,o),
(370,369,cs),
(370,-50,l),
(40,-50,l),
(40,-148,l),
(40,-241,o),
(110,-311,o),
(203,-311,cs)
);
},
{
closed = 1;
nodes = (
(119,-291,o),
(60,-232,o),
(60,-148,cs),
(60,-70,l),
(370,-70,l),
(370,-148,ls),
(370,-232,o),
(311,-291,o),
(227,-291,cs),
(203,-291,ls)
);
},
{
closed = 1;
nodes = (
(465,-10,l),
(465,590,l),
(605,590,l),
(605,-10,l),
(625,-10,l),
(625,590,l),
(695,590,l),
(695,610,l),
(445,610,l),
(445,-10,l)
);
}
);
width = 735;
}
);
metricLeft = "ca-tamil";
metricRight = "ca-tamil";
},
{
glyphname = "la_iMatra-tamil";
layers = (
{
anchors = (
{
name = imatra;
pos = (527,600);
},
{
name = top;
pos = (299,600);
}
);
layerId = "7BAC99B4-31F2-487C-BACA-69B20297995E";
shapes = (
{
closed = 1;
nodes = (
(129,10,o),
(105,41,o),
(105,82,cs),
(105,118,ls),
(105,161,o),
(131,190,o),
(170,190,cs),
(209,190,o),
(235,161,o),
(235,118,cs),
(235,82,ls),
(235,39,o),
(210,10,o),
(171,10,cs),
(165,10,ls)
);
},
{
closed = 1;
nodes = (
(560,-10,l),
(560,638,ls),
(560,766,o),
(526,810,o),
(450,810,cs),
(384,810,o),
(340,766,o),
(340,655,cs),
(340,554,o),
(384,510,o),
(442,510,cs),
(460,510,l),
(460,530,l),
(442,530,ls),
(393,530,o),
(360,563,o),
(360,655,cs),
(360,757,o),
(393,790,o),
(450,790,cs),
(517,790,o),
(540,757,o),
(540,638,cs),
(540,-10,l)
);
},
{
closed = 1;
nodes = (
(457,600,l),
(457,76,l),
(457,36,o),
(431,10,o),
(392,10,cs),
(353,10,o),
(327,36,o),
(327,76,cs),
(327,473,ls),
(327,558,o),
(269,610,o),
(196,610,cs),
(172,610,ls),
(96,610,o),
(40,554,o),
(40,478,cs),
(40,122,ls),
(40,48,o),
(93,-6,o),
(164,-10,cs),
(166,-10,o),
(168,-10,o),
(170,-10,cs),
(172,-10,ls),
(221,-10,o),
(255,31,o),
(255,82,cs),
(255,118,ls),
(255,170,o),
(219,210,o),
(170,210,cs),
(121,210,o),
(85,170,o),
(85,118,cs),
(85,82,ls),
(85,66,o),
(89,51,o),
(95,37,c),
(73,57,o),
(60,87,o),
(60,122,cs),
(60,478,ls),
(60,545,o),
(105,590,o),
(172,590,cs),
(196,590,ls),
(260,590,o),
(307,548,o),
(307,473,cs),
(307,76,ls),
(307,27,o),
(344,-10,o),
(392,-10,cs),
(440,-10,o),
(477,27,o),
(477,76,cs),
(477,600,l)
);
}
);
width = 600;
}
);
metricLeft = "ca-tamil";
metricRight = "ca-tamil";
},
{
glyphname = "la_iiMatra-tamil";
layers = (
{
anchors = (
{
name = imatra;
pos = (527,600);
},
{
name = top;
pos = (299,600);
}
);
layerId = "7BAC99B4-31F2-487C-BACA-69B20297995E";
shapes = (
{
closed = 1;
nodes = (
(129,10,o),
(105,41,o),
(105,82,cs),
(105,118,ls),
(105,161,o),
(131,190,o),
(170,190,cs),
(209,190,o),
(235,161,o),
(235,118,cs),
(235,82,ls),
(235,39,o),
(210,10,o),
(171,10,cs),
(165,10,ls)
);
},
{
closed = 1;
nodes = (
(462,510,l),
(413,510,o),
(350,543,o),
(350,650,cs),
(350,757,o),
(413,790,o),
(462,790,cs),
(468,790,ls),
(494,790,o),
(516,780,o),
(530,764,c),
(524,767,o),
(517,768,o),
(510,768,cs),
(478,768,o),
(450,740,o),
(450,708,cs),
(450,676,o),
(478,648,o),
(510,648,cs),
(542,648,o),
(570,676,o),
(570,708,cs),
(570,766,o),
(526,810,o),
(468,810,cs),
(462,810,ls),
(404,810,o),
(330,766,o),
(330,650,cs),
(330,534,o),
(404,490,o),
(462,490,c)
);
},
{
closed = 1;
nodes = (
(487,668,o),
(470,685,o),
(470,708,cs),
(470,731,o),
(487,748,o),
(510,748,cs),
(533,748,o),
(550,731,o),
(550,708,cs),
(550,685,o),
(533,668,o),
(510,668,cs)
);
},
{
closed = 1;
nodes = (
(457,600,l),
(457,76,l),
(457,36,o),
(431,10,o),
(392,10,cs),
(353,10,o),
(327,36,o),
(327,76,cs),
(327,473,ls),
(327,558,o),
(269,610,o),
(196,610,cs),
(172,610,ls),
(96,610,o),
(40,554,o),
(40,478,cs),
(40,122,ls),
(40,48,o),
(93,-10,o),
(164,-10,cs),
(170,-10,l),
(172,-10,ls),
(221,-10,o),
(255,31,o),
(255,82,cs),
(255,118,ls),
(255,170,o),
(219,210,o),
(170,210,cs),
(121,210,o),
(85,170,o),
(85,118,cs),
(85,82,ls),
(85,66,o),
(89,51,o),
(95,37,c),
(73,57,o),
(60,87,o),
(60,122,cs),
(60,478,ls),
(60,545,o),
(105,590,o),
(172,590,cs),
(196,590,ls),
(260,590,o),
(307,548,o),
(307,473,cs),
(307,76,ls),
(307,27,o),
(344,-10,o),
(392,-10,cs),
(440,-10,o),
(477,27,o),
(477,76,cs),
(477,600,l)
);
}
);
width = 597;
}
);
metricLeft = "ca-tamil";
},
{
glyphname = "la_uMatra-tamil";
layers = (
{
anchors = (
{
name = imatra;
pos = (519,600);
},
{
name = top;
pos = (280,600);
}
);
layerId = "7BAC99B4-31F2-487C-BACA-69B20297995E";
shapes = (
{
closed = 1;
nodes = (
(239,-311,ls),
(332,-311,o),
(402,-241,o),
(402,-148,cs),
(402,-70,l),
(552,-70,l),
(552,460,l),
(532,460,l),
(532,-50,l),
(402,-50,l),
(402,0,l),
(382,0,l),
(382,-50,l),
(42,-50,l),
(42,-148,l),
(42,-241,o),
(112,-311,o),
(205,-311,cs)
);
},
{
closed = 1;
nodes = (
(121,-291,o),
(62,-232,o),
(62,-148,cs),
(62,-70,l),
(382,-70,l),
(382,-148,ls),
(382,-232,o),
(323,-291,o),
(239,-291,cs),
(205,-291,ls)
);
},
{
closed = 1;
nodes = (
(172,-10,ls),
(221,-10,o),
(255,31,o),
(255,82,cs),
(255,118,ls),
(255,170,o),
(219,210,o),
(170,210,cs),
(121,210,o),
(85,170,o),
(85,118,cs),
(85,82,ls),
(85,66,o),
(88,50,o),
(95,38,c),
(73,57,o),
(60,86,o),
(60,122,cs),
(60,478,ls),
(60,545,o),
(105,590,o),
(172,590,cs),
(196,590,ls),
(260,590,o),
(307,548,o),
(307,473,cs),
(307,76,ls),
(307,27,o),
(344,-10,o),
(392,-10,cs),
(440,-10,o),
(477,27,o),
(477,76,cs),
(477,523,ls),
(477,572,o),
(440,610,o),
(391,610,cs),
(355,610,l),
(355,590,l),
(391,590,ls),
(431,590,o),
(457,563,o),
(457,523,cs),
(457,76,ls),
(457,36,o),
(431,10,o),
(392,10,cs),
(353,10,o),
(327,36,o),
(327,76,cs),
(327,473,ls),
(327,558,o),
(269,610,o),
(196,610,cs),
(172,610,ls),
(96,610,o),
(40,554,o),
(40,478,cs),
(40,122,ls),
(40,48,o),
(92,-6,o),
(164,-10,cs),
(166,-10,o),
(168,-10,o),
(170,-10,cs)
);
},
{
closed = 1;
nodes = (
(129,10,o),
(105,41,o),
(105,82,cs),
(105,118,ls),
(105,161,o),
(132,190,o),
(170,190,cs),
(208,190,o),
(235,161,o),
(235,118,cs),
(235,82,ls),
(235,39,o),
(210,10,o),
(171,10,cs),
(164,10,ls)
);
}
);
width = 592;
}
);
metricLeft = "ca-tamil";
metricRight = "ca-tamil";
},
{
glyphname = "la_uuMatra-tamil";
layers = (
{
anchors = (
{
name = imatra;
pos = (519,600);
},
{
name = top;
pos = (280,600);
}
);
layerId = "7BAC99B4-31F2-487C-BACA-69B20297995E";
shapes = (
{
closed = 1;
nodes = (
(239,-311,ls),
(332,-311,o),
(402,-241,o),
(402,-148,cs),
(402,-70,l),
(552,-70,l),
(552,460,l),
(532,460,l),
(532,-50,l),
(402,-50,l),
(402,0,l),
(382,0,l),
(382,-50,l),
(42,-50,l),
(42,-148,l),
(42,-241,o),
(112,-311,o),
(205,-311,cs)
);
},
{
closed = 1;
nodes = (
(121,-291,o),
(62,-232,o),
(62,-148,cs),
(62,-70,l),
(382,-70,l),
(382,-148,ls),
(382,-232,o),
(323,-291,o),
(239,-291,cs),
(205,-291,ls)
);
},
{
closed = 1;
nodes = (
(172,-10,ls),
(221,-10,o),
(255,31,o),
(255,82,cs),
(255,118,ls),
(255,170,o),
(219,210,o),
(170,210,cs),
(121,210,o),
(85,170,o),
(85,118,cs),
(85,82,ls),
(85,66,o),
(88,50,o),
(95,38,c),
(73,57,o),
(60,86,o),
(60,122,cs),
(60,478,ls),
(60,545,o),
(105,590,o),
(172,590,cs),
(196,590,ls),
(260,590,o),
(307,548,o),
(307,473,cs),
(307,76,ls),
(307,27,o),
(344,-10,o),
(392,-10,cs),
(440,-10,o),
(477,27,o),
(477,76,cs),
(477,523,ls),
(477,572,o),
(440,610,o),
(391,610,cs),
(355,610,l),
(355,590,l),
(391,590,ls),
(431,590,o),
(457,563,o),
(457,523,cs),
(457,76,ls),
(457,36,o),
(431,10,o),
(392,10,cs),
(353,10,o),
(327,36,o),
(327,76,cs),
(327,473,ls),
(327,558,o),
(269,610,o),
(196,610,cs),
(172,610,ls),
(96,610,o),
(40,554,o),
(40,478,cs),
(40,122,ls),
(40,48,o),
(92,-6,o),
(164,-10,cs),
(166,-10,o),
(168,-10,o),
(170,-10,cs)
);
},
{
closed = 1;
nodes = (
(129,10,o),
(105,41,o),
(105,82,cs),
(105,118,ls),
(105,161,o),
(132,190,o),
(170,190,cs),
(208,190,o),
(235,161,o),
(235,118,cs),
(235,82,ls),
(235,39,o),
(210,10,o),
(171,10,cs),
(164,10,ls)
);
},
{
closed = 1;
nodes = (
(552,-10,l),
(552,590,l),
(692,590,l),
(692,-10,l),
(712,-10,l),
(712,590,l),
(782,590,l),
(782,610,l),
(532,610,l),
(532,-10,l)
);
}
);
width = 822;
}
);
metricLeft = "ca-tamil";
metricRight = "ca-tamil";
},
{
glyphname = "lla_uMatra-tamil";
lastChange = "2023-04-29 09:46:55 +0000";
layers = (
{
anchors = (
{
name = imatra;
pos = (757,600);
},
{
name = top;
pos = (414,600);
}
);
layerId = "7BAC99B4-31F2-487C-BACA-69B20297995E";
shapes = (
{
closed = 1;
nodes = (
(573,-150,ls),
(696,-150,o),
(787,-71,o),
(787,37,cs),
(787,194,o),
(787,257,o),
(678,257,cs),
(611,257,o),
(587,210,o),
(587,162,c),
(607,162,l),
(607,204,o),
(624,237,o),
(678,237,cs),
(767,237,o),
(767,194,o),
(767,37,cs),
(767,-60,o),
(687,-130,o),
(573,-130,cs),
(254,-130,ls),
(140,-130,o),
(60,-50,o),
(60,64,cs),
(60,257,l),
(40,257,l),
(40,64,ls),
(40,-59,o),
(131,-150,o),
(254,-150,cs)
);
},
{
closed = 1;
nodes = (
(268,-10,o),
(272,-6,o),
(272,0,cs),
(272,7,o),
(269,10,o),
(262,10,cs),
(201,15,o),
(160,58,o),
(160,122,cs),
(160,478,ls),
(160,545,o),
(205,590,o),
(272,590,cs),
(296,590,ls),
(360,590,o),
(407,548,o),
(407,473,cs),
(407,200,ls),
(407,200,o),
(427,200,o),
(427,200,cs),
(427,473,ls),
(427,558,o),
(369,610,o),
(296,610,cs),
(272,610,ls),
(196,610,o),
(140,554,o),
(140,478,cs),
(140,122,ls),
(140,49,o),
(192,-5,o),
(262,-10,cs)
);
},
{
closed = 1;
nodes = (
(320,-10,o),
(355,30,o),
(355,82,cs),
(355,118,ls),
(355,170,o),
(319,210,o),
(270,210,cs),
(221,210,o),
(185,170,o),
(185,118,cs),
(185,82,ls),
(185,30,o),
(221,-10,o),
(270,-10,cs)
);
},
{
closed = 1;
nodes = (
(231,10,o),
(205,39,o),
(205,82,cs),
(205,118,ls),
(205,161,o),
(231,190,o),
(270,190,cs),
(309,190,o),
(335,161,o),
(335,118,cs),
(335,82,ls),
(335,39,o),
(309,10,o),
(270,10,cs)
);
},
{
closed = 1;
nodes = (
(587,-10,o),
(607,-10,o),
(607,-10,cs),
(607,600,ls),
(607,606,o),
(604,610,o),
(597,610,cs),
(407,610,l),
(407,200,l),
(407,200,o),
(427,200,o),
(427,200,cs),
(427,590,l),
(587,590,l),
(587,-10,ls)
);
},
{
closed = 1;
nodes = (
(697,590,ls),
(697,590,o),
(697,610,o),
(697,610,cs),
(507,610,ls),
(501,610,o),
(497,606,o),
(497,600,cs),
(497,594,o),
(501,590,o),
(507,590,cs)
);
}
);
width = 827;
}
);
metricLeft = "ca-tamil";
metricRight = "ca-tamil";
},
{
glyphname = "lla_uuMatra-tamil";
layers = (
{
anchors = (
{
name = imatra;
pos = (789,600);
},
{
name = top;
pos = (446,600);
}
);
layerId = "7BAC99B4-31F2-487C-BACA-69B20297995E";
shapes = (
{
closed = 1;
nodes = (
(605,-150,ls),
(728,-150,o),
(819,-71,o),
(819,37,cs),
(819,194,o),
(819,257,o),
(710,257,cs),
(643,257,o),
(619,210,o),
(619,162,c),
(639,162,l),
(639,204,o),
(656,237,o),
(710,237,cs),
(799,237,o),
(799,194,o),
(799,37,cs),
(799,-60,o),
(719,-130,o),
(605,-130,cs),
(254,-130,ls),
(140,-130,o),
(60,-50,o),
(60,64,cs),
(60,257,l),
(40,257,l),
(40,64,ls),
(40,-59,o),
(131,-150,o),
(254,-150,cs)
);
},
{
closed = 1;
nodes = (
(300,-10,o),
(304,-6,o),
(304,0,cs),
(304,7,o),
(301,10,o),
(294,10,cs),
(233,15,o),
(192,58,o),
(192,122,cs),
(192,478,ls),
(192,545,o),
(237,590,o),
(304,590,cs),
(328,590,ls),
(392,590,o),
(439,548,o),
(439,473,cs),
(439,200,ls),
(439,200,o),
(459,200,o),
(459,200,cs),
(459,473,ls),
(459,558,o),
(401,610,o),
(328,610,cs),
(304,610,ls),
(228,610,o),
(172,554,o),
(172,478,cs),
(172,122,ls),
(172,49,o),
(224,-5,o),
(294,-10,cs)
);
},
{
closed = 1;
nodes = (
(352,-10,o),
(387,30,o),
(387,82,cs),
(387,118,ls),
(387,170,o),
(351,210,o),
(302,210,cs),
(253,210,o),
(217,170,o),
(217,118,cs),
(217,82,ls),
(217,30,o),
(253,-10,o),
(302,-10,cs)
);
},
{
closed = 1;
nodes = (
(263,10,o),
(237,39,o),
(237,82,cs),
(237,118,ls),
(237,161,o),
(263,190,o),
(302,190,cs),
(341,190,o),
(367,161,o),
(367,118,cs),
(367,82,ls),
(367,39,o),
(341,10,o),
(302,10,cs)
);
},
{
closed = 1;
nodes = (
(619,-10,o),
(639,-10,o),
(639,-10,cs),
(639,600,ls),
(639,606,o),
(636,610,o),
(629,610,cs),
(439,610,l),
(439,200,l),
(439,200,o),
(459,200,o),
(459,200,cs),
(459,590,l),
(619,590,l),
(619,-10,ls)
);
},
{
closed = 1;
nodes = (
(729,590,ls),
(729,590,o),
(729,610,o),
(729,610,cs),
(539,610,ls),
(533,610,o),
(529,606,o),
(529,600,cs),
(529,594,o),
(533,590,o),
(539,590,cs)
);
},
{
closed = 1;
nodes = (
(132,197,o),
(160,225,o),
(160,257,cs),
(160,289,o),
(132,317,o),
(100,317,cs),
(67,317,o),
(40,289,o),
(40,257,cs),
(40,225,o),
(68,197,o),
(100,197,cs)
);
},
{
closed = 1;
nodes = (
(77,217,o),
(60,234,o),
(60,257,c),
(60,280,o),
(77,297,o),
(100,297,cs),
(123,297,o),
(140,280,o),
(140,257,cs),
(140,234,o),
(123,217,o),
(100,217,cs)
);
}
);
width = 859;
}
);
metricLeft = "ca-tamil";
metricRight = "ca-tamil";
},
{
glyphname = "llla_uMatra-tamil";
layers = (
{
anchors = (
{
name = imatra;
pos = (470,600);
},
{
name = top;
pos = (265,600);
}
);
layerId = "7BAC99B4-31F2-487C-BACA-69B20297995E";
shapes = (
{
closed = 1;
nodes = (
(275,-282,ls),
(330,-282,o),
(372,-239,o),
(372,-183,cs),
(372,-136,o),
(403,-104,o),
(449,-104,cs),
(470,-104,l),
(470,-84,l),
(417,-84,ls),
(368,-84,o),
(335,-51,o),
(335,-2,c),
(315,-2,l),
(315,-52,o),
(347,-91,o),
(393,-101,c),
(368,-119,o),
(352,-148,o),
(352,-183,cs),
(352,-230,o),
(321,-262,o),
(275,-262,cs),
(172,-262,ls),
(105,-262,o),
(60,-217,o),
(60,-150,cs),
(60,458,ls),
(60,458,o),
(40,458,o),
(40,458,cs),
(40,-150,ls),
(40,-226,o),
(96,-282,o),
(172,-282,cs)
);
},
{
closed = 1;
nodes = (
(411,-10,ls),
(467,-10,o),
(510,33,o),
(510,89,cs),
(510,511,ls),
(510,567,o),
(468,610,o),
(413,610,cs),
(358,610,o),
(315,567,o),
(315,511,cs),
(315,10,l),
(160,10,l),
(160,610,l),
(140,610,l),
(140,-10,l)
);
},
{
closed = 1;
nodes = (
(335,511,ls),
(335,558,o),
(367,590,o),
(413,590,cs),
(459,590,o),
(490,558,o),
(490,511,cs),
(490,89,ls),
(490,42,o),
(458,10,o),
(411,10,cs),
(335,10,l)
);
}
);
width = 550;
}
);
metricLeft = "ca-tamil";
metricRight = "ca-tamil";
},
{
glyphname = "llla_uuMatra-tamil";
layers = (
{
anchors = (
{
name = imatra;
pos = (510,600);
},
{
name = top;
pos = (305,600);
}
);
layerId = "7BAC99B4-31F2-487C-BACA-69B20297995E";
shapes = (
{
closed = 1;
nodes = (
(315,-282,ls),
(370,-282,o),
(412,-239,o),
(412,-183,cs),
(412,-136,o),
(443,-104,o),
(489,-104,cs),
(510,-104,l),
(510,-84,l),
(457,-84,ls),
(408,-84,o),
(375,-51,o),
(375,-2,c),
(355,-2,l),
(355,-52,o),
(387,-91,o),
(433,-101,c),
(408,-119,o),
(392,-148,o),
(392,-183,cs),
(392,-230,o),
(361,-262,o),
(315,-262,cs),
(172,-262,ls),
(105,-262,o),
(60,-217,o),
(60,-150,cs),
(60,458,ls),
(60,458,o),
(40,458,o),
(40,458,cs),
(40,-150,ls),
(40,-226,o),
(96,-282,o),
(172,-282,cs)
);
},
{
closed = 1;
nodes = (
(451,-10,ls),
(507,-10,o),
(550,33,o),
(550,89,cs),
(550,511,ls),
(550,567,o),
(508,610,o),
(453,610,cs),
(398,610,o),
(355,567,o),
(355,511,cs),
(355,10,l),
(200,10,l),
(200,610,l),
(180,610,l),
(180,-10,l)
);
},
{
closed = 1;
nodes = (
(375,511,ls),
(375,558,o),
(407,590,o),
(453,590,cs),
(499,590,o),
(530,558,o),
(530,511,cs),
(530,89,ls),
(530,42,o),
(498,10,o),
(451,10,cs),
(375,10,l)
);
},
{
closed = 1;
nodes = (
(132,398,o),
(160,426,o),
(160,458,cs),
(160,490,o),
(132,518,o),
(100,518,cs),
(67,518,o),
(40,490,o),
(40,458,cs),
(40,426,o),
(68,398,o),
(100,398,cs)
);
},
{
closed = 1;
nodes = (
(77,418,o),
(60,435,o),
(60,458,cs),
(60,481,o),
(77,498,o),
(100,498,cs),
(123,498,o),
(140,481,o),
(140,458,cs),
(140,435,o),
(123,418,o),
(100,418,cs)
);
}
);
width = 590;
}
);
metricLeft = "ca-tamil";
metricRight = "ca-tamil";
},
{
glyphname = "va_iiMatra-tamil";
layers = (
{
anchors = (
{
name = imatra;
pos = (420,540);
},
{
name = top;
pos = (320,600);
}
);
layerId = "7BAC99B4-31F2-487C-BACA-69B20297995E";
shapes = (
{
closed = 1;
nodes = (
(440,-10,l),
(440,600,l),
(420,600,l),
(420,10,l),
(110,10,ls),
(85,10,o),
(69,25,o),
(69,50,cs),
(69,75,o),
(85,90,o),
(110,90,cs),
(198,90,ls),
(274,90,o),
(330,146,o),
(330,222,cs),
(330,478,ls),
(330,554,o),
(274,610,o),
(198,610,cs),
(172,610,ls),
(96,610,o),
(40,554,o),
(40,478,cs),
(40,278,ls),
(40,226,o),
(76,186,o),
(125,186,cs),
(175,186,o),
(210,226,o),
(210,278,cs),
(210,314,ls),
(210,366,o),
(174,406,o),
(125,406,cs),
(98,406,o),
(75,394,o),
(60,375,c),
(60,478,ls),
(60,545,o),
(105,590,o),
(172,590,cs),
(198,590,ls),
(265,590,o),
(310,545,o),
(310,478,cs),
(310,222,ls),
(310,155,o),
(265,110,o),
(198,110,cs),
(110,110,ls),
(76,110,o),
(49,84,o),
(49,50,cs),
(49,16,o),
(76,-10,o),
(110,-10,cs)
);
},
{
closed = 1;
nodes = (
(86,206,o),
(60,235,o),
(60,278,cs),
(60,314,ls),
(60,357,o),
(86,386,o),
(125,386,cs),
(164,386,o),
(190,357,o),
(190,314,cs),
(190,278,ls),
(190,235,o),
(164,206,o),
(125,206,cs)
);
},
{
closed = 1;
nodes = (
(432,510,l),
(383,510,o),
(320,543,o),
(320,650,cs),
(320,757,o),
(383,790,o),
(432,790,cs),
(438,790,ls),
(464,790,o),
(486,780,o),
(500,764,c),
(494,767,o),
(487,768,o),
(480,768,cs),
(448,768,o),
(420,740,o),
(420,708,cs),
(420,676,o),
(448,648,o),
(480,648,cs),
(512,648,o),
(540,676,o),
(540,708,cs),
(540,766,o),
(496,810,o),
(438,810,cs),
(432,810,ls),
(374,810,o),
(300,766,o),
(300,650,cs),
(300,534,o),
(374,490,o),
(432,490,c)
);
},
{
closed = 1;
nodes = (
(457,668,o),
(440,685,o),
(440,708,cs),
(440,731,o),
(457,748,o),
(480,748,cs),
(503,748,o),
(520,731,o),
(520,708,cs),
(520,685,o),
(503,668,o),
(480,668,cs)
);
}
);
width = 580;
}
);
metricLeft = "ca-tamil";
metricRight = "ca-tamil";
},
{
glyphname = "va_uMatra-tamil";
layers = (
{
anchors = (
{
name = imatra;
pos = (420,500);
},
{
name = top;
pos = (320,600);
}
);
layerId = "7BAC99B4-31F2-487C-BACA-69B20297995E";
shapes = (
{
closed = 1;
nodes = (
(430,-10,l),
(430,500,l),
(410,500,l),
(410,10,l),
(110,10,ls),
(85,10,o),
(69,25,o),
(69,50,cs),
(69,75,o),
(85,90,o),
(110,90,cs),
(198,90,ls),
(274,90,o),
(330,146,o),
(330,222,cs),
(330,478,ls),
(330,554,o),
(274,610,o),
(198,610,cs),
(172,610,ls),
(96,610,o),
(40,554,o),
(40,478,cs),
(40,278,ls),
(40,226,o),
(76,186,o),
(125,186,cs),
(175,186,o),
(210,226,o),
(210,278,cs),
(210,314,ls),
(210,366,o),
(174,406,o),
(125,406,cs),
(98,406,o),
(75,394,o),
(60,375,c),
(60,478,ls),
(60,545,o),
(105,590,o),
(172,590,cs),
(198,590,ls),
(265,590,o),
(310,545,o),
(310,478,cs),
(310,222,ls),
(310,155,o),
(265,110,o),
(198,110,cs),
(110,110,ls),
(76,110,o),
(49,84,o),
(49,50,cs),
(49,16,o),
(76,-10,o),
(110,-10,cs)
);
},
{
closed = 1;
nodes = (
(86,206,o),
(60,235,o),
(60,278,cs),
(60,314,ls),
(60,357,o),
(86,386,o),
(125,386,cs),
(164,386,o),
(190,357,o),
(190,314,cs),
(190,278,ls),
(190,235,o),
(164,206,o),
(125,206,cs)
);
},
{
closed = 1;
nodes = (
(410,-300,l),
(430,-300,l),
(430,0,l),
(410,0,l)
);
}
);
width = 470;
}
);
metricLeft = "ca-tamil";
metricRight = "ca-tamil";
},
{
glyphname = "va_uuMatra-tamil";
layers = (
{
anchors = (
{
name = imatra;
pos = (480,600);
},
{
name = top;
pos = (275,600);
}
);
layerId = "7BAC99B4-31F2-487C-BACA-69B20297995E";
shapes = (
{
closed = 1;
nodes = (
(430,-10,l),
(430,500,l),
(410,500,l),
(410,10,l),
(110,10,ls),
(85,10,o),
(69,25,o),
(69,50,cs),
(69,75,o),
(85,90,o),
(110,90,cs),
(198,90,ls),
(274,90,o),
(330,146,o),
(330,222,cs),
(330,478,ls),
(330,554,o),
(274,610,o),
(198,610,cs),
(172,610,ls),
(96,610,o),
(40,554,o),
(40,478,cs),
(40,278,ls),
(40,226,o),
(76,186,o),
(125,186,cs),
(175,186,o),
(210,226,o),
(210,278,cs),
(210,314,ls),
(210,366,o),
(174,406,o),
(125,406,cs),
(98,406,o),
(75,394,o),
(60,375,c),
(60,478,ls),
(60,545,o),
(105,590,o),
(172,590,cs),
(198,590,ls),
(265,590,o),
(310,545,o),
(310,478,cs),
(310,222,ls),
(310,155,o),
(265,110,o),
(198,110,cs),
(110,110,ls),
(76,110,o),
(49,84,o),
(49,50,cs),
(49,16,o),
(76,-10,o),
(110,-10,cs)
);
},
{
closed = 1;
nodes = (
(86,206,o),
(60,235,o),
(60,278,cs),
(60,314,ls),
(60,357,o),
(86,386,o),
(125,386,cs),
(164,386,o),
(190,357,o),
(190,314,cs),
(190,278,ls),
(190,235,o),
(164,206,o),
(125,206,cs)
);
},
{
closed = 0;
nodes = (
(398,343,l)
);
},
{
closed = 1;
nodes = (
(413,-220,ls),
(489,-220,o),
(545,-164,o),
(545,-88,cs),
(545,-32,ls),
(545,21,o),
(502,59,o),
(444,59,cs),
(435,59,o),
(429,59,o),
(425,59,c),
(425,39,l),
(429,39,o),
(435,39,o),
(444,39,cs),
(493,39,o),
(525,11,o),
(525,-32,cs),
(525,-88,ls),
(525,-155,o),
(480,-200,o),
(413,-200,cs),
(330,-200,ls),
(323,-200,o),
(320,-203,o),
(320,-210,cs),
(320,-216,o),
(323,-220,o),
(330,-220,cs)
);
},
{
closed = 1;
nodes = (
(352,-220,o),
(380,-192,o),
(380,-160,cs),
(380,-128,o),
(352,-100,o),
(320,-100,cs),
(287,-100,o),
(260,-128,o),
(260,-160,cs),
(260,-192,o),
(288,-220,o),
(320,-220,cs)
);
},
{
closed = 1;
nodes = (
(297,-200,o),
(280,-183,o),
(280,-160,cs),
(280,-137,o),
(297,-120,o),
(320,-120,cs),
(343,-120,o),
(360,-137,o),
(360,-160,cs),
(360,-183,o),
(343,-200,o),
(320,-200,cs)
);
},
{
closed = 1;
nodes = (
(410,-60,l),
(430,-60,l),
(430,10,l),
(410,10,l)
);
}
);
width = 585;
}
);
metricLeft = "ca-tamil";
metricRight = "ca-tamil";
},
{
glyphname = "ssa_iMatra-tamil";
lastChange = "2023-04-29 09:46:55 +0000";
layers = (
{
anchors = (
{
name = imatra;
pos = (450,280);
},
{
name = top;
pos = (330,600);
}
);
layerId = "7BAC99B4-31F2-487C-BACA-69B20297995E";
shapes = (
{
closed = 1;
nodes = (
(560,-300,l),
(560,-10,l),
(600,-10,l),
(600,10,l),
(560,10,l),
(560,198,ls),
(560,251,o),
(521,290,o),
(470,290,cs),
(419,290,o),
(380,251,o),
(380,198,cs),
(380,82,ls),
(380,52,o),
(392,26,o),
(411,10,c),
(110,10,ls),
(85,10,o),
(69,25,o),
(69,50,cs),
(69,75,o),
(85,90,o),
(110,90,cs),
(198,90,ls),
(274,90,o),
(330,146,o),
(330,222,cs),
(330,478,ls),
(330,554,o),
(274,610,o),
(198,610,cs),
(172,610,ls),
(96,610,o),
(40,554,o),
(40,478,cs),
(40,278,ls),
(40,226,o),
(76,186,o),
(125,186,cs),
(175,186,o),
(210,226,o),
(210,278,cs),
(210,314,ls),
(210,366,o),
(174,406,o),
(125,406,cs),
(98,406,o),
(75,394,o),
(60,374,c),
(60,478,ls),
(60,545,o),
(105,590,o),
(172,590,cs),
(198,590,ls),
(265,590,o),
(310,545,o),
(310,478,cs),
(310,222,ls),
(310,155,o),
(265,110,o),
(198,110,cs),
(110,110,ls),
(76,110,o),
(49,84,o),
(49,50,cs),
(49,16,o),
(76,-10,o),
(110,-10,cs),
(540,-10,l),
(540,-300,l)
);
},
{
closed = 1;
nodes = (
(86,206,o),
(60,235,o),
(60,278,cs),
(60,314,ls),
(60,357,o),
(86,386,o),
(125,386,cs),
(164,386,o),
(190,357,o),
(190,314,cs),
(190,278,ls),
(190,235,o),
(164,206,o),
(125,206,cs)
);
},
{
closed = 1;
nodes = (
(428,10,o),
(400,38,o),
(400,82,cs),
(400,198,ls),
(400,242,o),
(428,270,o),
(470,270,cs),
(512,270,o),
(540,242,o),
(540,198,cs),
(540,10,l),
(464,10,ls)
);
},
{
closed = 1;
nodes = (
(670,-10,l),
(670,438,ls),
(670,496,o),
(630,550,o),
(562,550,cs),
(494,550,o),
(460,496,o),
(460,438,cs),
(460,280,l),
(480,280,l),
(480,438,ls),
(480,487,o),
(503,530,o),
(562,530,cs),
(621,530,o),
(650,487,o),
(650,438,cs),
(650,-10,l)
);
}
);
width = 710;
}
);
metricLeft = "ca-tamil";
metricRight = "ca-tamil";
},
{
glyphname = "ssa_iiMatra-tamil";
lastChange = "2023-04-29 09:46:55 +0000";
layers = (
{
anchors = (
{
name = imatra;
pos = (450,280);
},
{
name = top;
pos = (330,600);
}
);
layerId = "7BAC99B4-31F2-487C-BACA-69B20297995E";
shapes = (
{
closed = 1;
nodes = (
(570,-300,l),
(570,-10,l),
(650,-10,l),
(650,10,l),
(570,10,l),
(570,198,ls),
(570,251,o),
(531,290,o),
(480,290,cs),
(429,290,o),
(390,251,o),
(390,198,cs),
(390,82,ls),
(390,52,o),
(402,26,o),
(421,10,c),
(110,10,ls),
(85,10,o),
(69,25,o),
(69,50,cs),
(69,75,o),
(85,90,o),
(110,90,cs),
(198,90,ls),
(274,90,o),
(330,146,o),
(330,222,cs),
(330,478,ls),
(330,554,o),
(274,610,o),
(198,610,cs),
(172,610,ls),
(96,610,o),
(40,554,o),
(40,478,cs),
(40,278,ls),
(40,226,o),
(76,186,o),
(125,186,cs),
(175,186,o),
(210,226,o),
(210,278,cs),
(210,314,ls),
(210,366,o),
(174,406,o),
(125,406,cs),
(98,406,o),
(75,394,o),
(60,374,c),
(60,478,ls),
(60,545,o),
(105,590,o),
(172,590,cs),
(198,590,ls),
(265,590,o),
(310,545,o),
(310,478,cs),
(310,222,ls),
(310,155,o),
(265,110,o),
(198,110,cs),
(110,110,ls),
(76,110,o),
(49,84,o),
(49,50,cs),
(49,16,o),
(76,-10,o),
(110,-10,cs),
(550,-10,l),
(550,-300,l)
);
},
{
closed = 1;
nodes = (
(86,206,o),
(60,235,o),
(60,278,cs),
(60,314,ls),
(60,357,o),
(86,386,o),
(125,386,cs),
(164,386,o),
(190,357,o),
(190,314,cs),
(190,278,ls),
(190,235,o),
(164,206,o),
(125,206,cs)
);
},
{
closed = 1;
nodes = (
(438,10,o),
(410,38,o),
(410,82,cs),
(410,198,ls),
(410,242,o),
(438,270,o),
(480,270,cs),
(522,270,o),
(550,242,o),
(550,198,cs),
(550,10,l),
(474,10,ls)
);
},
{
closed = 1;
nodes = (
(480,290,l),
(431,290,o),
(378,313,o),
(378,390,cs),
(378,477,o),
(431,500,o),
(473,500,cs),
(512,500,o),
(534,490,o),
(548,474,c),
(542,477,o),
(535,478,o),
(528,478,cs),
(496,478,o),
(468,450,o),
(468,418,cs),
(468,386,o),
(496,358,o),
(528,358,cs),
(560,358,o),
(588,386,o),
(588,418,cs),
(588,476,o),
(544,520,o),
(473,520,cs),
(422,520,o),
(358,486,o),
(358,390,cs),
(358,304,o),
(422,270,o),
(480,270,c)
);
},
{
closed = 1;
nodes = (
(505,378,o),
(488,395,o),
(488,418,cs),
(488,441,o),
(505,458,o),
(528,458,cs),
(551,458,o),
(568,441,o),
(568,418,cs),
(568,395,o),
(551,378,o),
(528,378,cs)
);
}
);
width = 690;
}
);
metricLeft = "ca-tamil";
metricRight = "ca-tamil";
},
{
glyphname = "sa_iMatra-tamil";
layers = (
{
anchors = (
{
name = imatra;
pos = (667,600);
},
{
name = top;
pos = (369,600);
}
);
layerId = "7BAC99B4-31F2-487C-BACA-69B20297995E";
shapes = (
{
closed = 1;
nodes = (
(129,10,o),
(105,41,o),
(105,82,cs),
(105,118,ls),
(105,161,o),
(132,190,o),
(170,190,cs),
(208,190,o),
(235,161,o),
(235,118,cs),
(235,82,ls),
(235,39,o),
(210,10,o),
(171,10,cs),
(164,10,ls)
);
},
{
closed = 1;
nodes = (
(702,-10,l),
(702,638,ls),
(702,766,o),
(668,810,o),
(592,810,cs),
(526,810,o),
(482,766,o),
(482,655,cs),
(482,554,o),
(526,510,o),
(584,510,cs),
(602,510,l),
(602,530,l),
(584,530,ls),
(535,530,o),
(502,563,o),
(502,655,cs),
(502,757,o),
(535,790,o),
(592,790,cs),
(659,790,o),
(682,757,o),
(682,638,cs),
(682,-10,l)
);
},
{
closed = 1;
nodes = (
(599,600,l),
(599,76,ls),
(599,36,o),
(573,10,o),
(534,10,cs),
(495,10,o),
(469,36,o),
(469,76,cs),
(469,524,ls),
(469,573,o),
(432,610,o),
(384,610,cs),
(346,610,o),
(316,588,o),
(304,555,c),
(281,590,o),
(241,610,o),
(196,610,cs),
(172,610,ls),
(96,610,o),
(40,554,o),
(40,478,cs),
(40,122,ls),
(40,48,o),
(92,-10,o),
(164,-10,cs),
(170,-10,l),
(172,-10,ls),
(221,-10,o),
(255,31,o),
(255,82,cs),
(255,118,ls),
(255,170,o),
(219,210,o),
(170,210,cs),
(121,210,o),
(85,170,o),
(85,118,cs),
(85,82,ls),
(85,66,o),
(88,50,o),
(95,38,c),
(73,57,o),
(60,86,o),
(60,122,cs),
(60,478,ls),
(60,545,o),
(105,590,o),
(172,590,cs),
(196,590,ls),
(260,590,o),
(307,548,o),
(307,473,cs),
(307,76,l),
(327,76,l),
(327,473,ls),
(327,492,o),
(324,509,o),
(319,524,c),
(319,564,o),
(345,590,o),
(384,590,cs),
(423,590,o),
(449,564,o),
(449,524,cs),
(449,76,ls),
(449,27,o),
(486,-10,o),
(534,-10,cs),
(582,-10,o),
(619,27,o),
(619,76,cs),
(619,600,l)
);
}
);
width = 742;
}
);
metricRight = "ca-tamil";
},
{
glyphname = "sa_iiMatra-tamil";
layers = (
{
layerId = "7BAC99B4-31F2-487C-BACA-69B20297995E";
shapes = (
{
closed = 1;
nodes = (
(129,10,o),
(105,41,o),
(105,82,cs),
(105,118,ls),
(105,161,o),
(132,190,o),
(170,190,cs),
(208,190,o),
(235,161,o),
(235,118,cs),
(235,82,ls),
(235,39,o),
(210,10,o),
(171,10,cs),
(164,10,ls)
);
},
{
closed = 1;
nodes = (
(602,510,l),
(553,510,o),
(490,543,o),
(490,650,cs),
(490,757,o),
(553,790,o),
(605,790,cs),
(634,790,o),
(656,780,o),
(670,764,c),
(664,767,o),
(657,768,o),
(650,768,cs),
(618,768,o),
(590,740,o),
(590,708,cs),
(590,676,o),
(618,648,o),
(650,648,cs),
(682,648,o),
(710,676,o),
(710,708,cs),
(710,766,o),
(666,810,o),
(605,810,cs),
(544,810,o),
(470,766,o),
(470,650,cs),
(470,534,o),
(544,490,o),
(602,490,c)
);
},
{
closed = 1;
nodes = (
(627,668,o),
(610,685,o),
(610,708,cs),
(610,731,o),
(627,748,o),
(650,748,cs),
(673,748,o),
(690,731,o),
(690,708,cs),
(690,685,o),
(673,668,o),
(650,668,cs)
);
},
{
closed = 1;
nodes = (
(599,600,l),
(599,76,ls),
(599,36,o),
(573,10,o),
(534,10,cs),
(495,10,o),
(469,36,o),
(469,76,cs),
(469,524,ls),
(469,573,o),
(432,610,o),
(384,610,cs),
(346,610,o),
(316,588,o),
(304,555,c),
(281,590,o),
(241,610,o),
(196,610,cs),
(172,610,ls),
(96,610,o),
(40,554,o),
(40,478,cs),
(40,122,ls),
(40,48,o),
(92,-10,o),
(164,-10,cs),
(170,-10,l),
(172,-10,ls),
(221,-10,o),
(255,31,o),
(255,82,cs),
(255,118,ls),
(255,170,o),
(219,210,o),
(170,210,cs),
(121,210,o),
(85,170,o),
(85,118,cs),
(85,82,ls),
(85,66,o),
(88,50,o),
(95,38,c),
(73,57,o),
(60,86,o),
(60,122,cs),
(60,478,ls),
(60,545,o),
(105,590,o),
(172,590,cs),
(196,590,ls),
(260,590,o),
(307,548,o),
(307,473,cs),
(307,76,l),
(327,76,l),
(327,473,ls),
(327,492,o),
(324,509,o),
(319,524,c),
(319,564,o),
(345,590,o),
(384,590,cs),
(423,590,o),
(449,564,o),
(449,524,cs),
(449,76,ls),
(449,27,o),
(486,-10,o),
(534,-10,cs),
(582,-10,o),
(619,27,o),
(619,76,cs),
(619,600,l)
);
}
);
width = 750;
}
);
metricLeft = "ca-tamil";
metricRight = "ca-tamil";
},
{
glyphname = "k_ssa-tamil";
lastChange = "2023-04-29 09:46:55 +0000";
layers = (
{
anchors = (
{
name = imatra;
pos = (250,600);
},
{
name = top;
pos = (475,600);
}
);
layerId = "7BAC99B4-31F2-487C-BACA-69B20297995E";
shapes = (
{
closed = 1;
nodes = (
(813,-300,o),
(820,-300,o),
(820,-300,cs),
(820,198,ls),
(820,251,o),
(781,290,o),
(730,290,cs),
(679,290,o),
(640,251,o),
(640,198,cs),
(640,82,ls),
(640,29,o),
(679,-10,o),
(724,-10,cs),
(800,-10,l),
(800,-300,l)
);
},
{
closed = 1;
nodes = (
(688,10,o),
(660,38,o),
(660,82,cs),
(660,198,ls),
(660,242,o),
(688,270,o),
(730,270,cs),
(772,270,o),
(800,242,o),
(800,198,cs),
(800,10,l),
(724,10,ls)
);
},
{
closed = 1;
nodes = (
(213,-10,o),
(260,38,o),
(260,102,cs),
(260,340,l),
(335,340,l),
(316,323,o),
(304,298,o),
(304,268,cs),
(304,242,ls),
(304,190,o),
(340,150,o),
(389,150,cs),
(439,150,o),
(474,190,o),
(474,242,cs),
(474,268,ls),
(474,298,o),
(462,323,o),
(443,340,c),
(478,340,ls),
(545,340,o),
(590,294,o),
(590,227,cs),
(590,222,ls),
(590,155,o),
(545,110,o),
(478,110,cs),
(380,110,ls),
(346,110,o),
(319,84,o),
(319,50,cs),
(319,16,o),
(346,-10,o),
(380,-10,cs),
(910,-10,l),
(910,10,l),
(380,10,ls),
(355,10,o),
(339,25,o),
(339,50,cs),
(339,75,o),
(355,90,o),
(380,90,cs),
(478,90,ls),
(554,90,o),
(610,146,o),
(610,222,cs),
(610,227,ls),
(610,303,o),
(554,360,o),
(478,360,cs),
(260,360,l),
(260,590,l),
(370,590,l),
(370,610,l),
(120,610,l),
(120,357,l),
(75,347,o),
(40,303,o),
(40,248,cs),
(40,102,ls),
(40,38,o),
(87,-10,o),
(150,-10,cs)
);
},
{
closed = 1;
nodes = (
(96,10,o),
(60,47,o),
(60,102,cs),
(60,248,ls),
(60,303,o),
(97,340,o),
(142,340,cs),
(240,340,l),
(240,102,ls),
(240,47,o),
(204,10,o),
(150,10,cs)
);
},
{
closed = 1;
nodes = (
(350,170,o),
(324,199,o),
(324,242,cs),
(324,268,ls),
(324,311,o),
(350,340,o),
(389,340,cs),
(428,340,o),
(454,311,o),
(454,268,cs),
(454,242,ls),
(454,199,o),
(428,170,o),
(389,170,cs)
);
},
{
closed = 1;
nodes = (
(140,590,l),
(240,590,l),
(240,360,l),
(140,360,l)
);
}
);
width = 950;
}
);
metricLeft = "ca-tamil";
metricRight = "ca-tamil";
},
{
glyphname = "k_ssa_iMatra-tamil";
layers = (
{
anchors = (
{
name = imatra;
pos = (250,600);
},
{
name = top;
pos = (475,600);
}
);
layerId = "7BAC99B4-31F2-487C-BACA-69B20297995E";
shapes = (
{
closed = 1;
nodes = (
(213,-10,o),
(260,38,o),
(260,102,cs),
(260,340,l),
(335,340,l),
(316,323,o),
(304,298,o),
(304,268,cs),
(304,242,ls),
(304,190,o),
(340,150,o),
(389,150,cs),
(439,150,o),
(474,190,o),
(474,242,cs),
(474,268,ls),
(474,298,o),
(462,323,o),
(443,340,c),
(478,340,ls),
(545,340,o),
(590,294,o),
(590,227,cs),
(590,222,ls),
(590,155,o),
(545,110,o),
(478,110,cs),
(380,110,ls),
(346,110,o),
(319,84,o),
(319,50,cs),
(319,16,o),
(346,-10,o),
(380,-10,cs),
(860,-10,l),
(860,10,l),
(380,10,ls),
(355,10,o),
(339,25,o),
(339,50,cs),
(339,75,o),
(355,90,o),
(380,90,cs),
(478,90,ls),
(554,90,o),
(610,146,o),
(610,222,cs),
(610,227,ls),
(610,303,o),
(554,360,o),
(478,360,cs),
(260,360,l),
(260,590,l),
(370,590,l),
(370,610,l),
(120,610,l),
(120,357,l),
(75,347,o),
(40,303,o),
(40,248,cs),
(40,102,ls),
(40,38,o),
(87,-10,o),
(150,-10,cs)
);
},
{
closed = 1;
nodes = (
(96,10,o),
(60,47,o),
(60,102,cs),
(60,248,ls),
(60,303,o),
(97,340,o),
(142,340,cs),
(240,340,l),
(240,102,ls),
(240,47,o),
(204,10,o),
(150,10,cs)
);
},
{
closed = 1;
nodes = (
(350,170,o),
(324,199,o),
(324,242,cs),
(324,268,ls),
(324,311,o),
(350,340,o),
(389,340,cs),
(428,340,o),
(454,311,o),
(454,268,cs),
(454,242,ls),
(454,199,o),
(428,170,o),
(389,170,cs)
);
},
{
closed = 1;
nodes = (
(140,590,l),
(240,590,l),
(240,360,l),
(140,360,l)
);
},
{
closed = 1;
nodes = (
(820,-300,l),
(820,198,ls),
(820,251,o),
(781,290,o),
(730,290,cs),
(679,290,o),
(640,251,o),
(640,198,cs),
(640,82,ls),
(640,29,o),
(679,-10,o),
(724,-10,cs),
(800,-10,l),
(800,-300,l)
);
},
{
closed = 1;
nodes = (
(688,10,o),
(660,38,o),
(660,82,cs),
(660,198,ls),
(660,242,o),
(688,270,o),
(730,270,cs),
(772,270,o),
(800,242,o),
(800,198,cs),
(800,10,l),
(724,10,ls)
);
},
{
closed = 1;
nodes = (
(930,-10,l),
(930,438,ls),
(930,496,o),
(890,550,o),
(822,550,cs),
(754,550,o),
(720,496,o),
(720,438,cs),
(720,280,l),
(740,280,l),
(740,438,ls),
(740,487,o),
(763,530,o),
(822,530,cs),
(881,530,o),
(910,487,o),
(910,438,cs),
(910,-10,l)
);
}
);
width = 970;
}
);
metricLeft = "ca-tamil";
metricRight = "ca-tamil";
},
{
glyphname = "k_ssa_iiMatra-tamil";
lastChange = "2023-04-29 09:46:55 +0000";
layers = (
{
anchors = (
{
name = imatra;
pos = (250,600);
},
{
name = top;
pos = (475,600);
}
);
layerId = "7BAC99B4-31F2-487C-BACA-69B20297995E";
shapes = (
{
closed = 1;
nodes = (
(813,-300,o),
(820,-300,o),
(820,-300,cs),
(820,198,ls),
(820,251,o),
(781,290,o),
(730,290,cs),
(679,290,o),
(640,251,o),
(640,198,cs),
(640,82,ls),
(640,29,o),
(679,-10,o),
(724,-10,cs),
(800,-10,l),
(800,-300,l)
);
},
{
closed = 1;
nodes = (
(688,10,o),
(660,38,o),
(660,82,cs),
(660,198,ls),
(660,242,o),
(688,270,o),
(730,270,cs),
(772,270,o),
(800,242,o),
(800,198,cs),
(800,10,l),
(724,10,ls)
);
},
{
closed = 1;
nodes = (
(213,-10,o),
(260,38,o),
(260,102,cs),
(260,340,l),
(335,340,l),
(316,323,o),
(304,298,o),
(304,268,cs),
(304,242,ls),
(304,190,o),
(340,150,o),
(389,150,cs),
(439,150,o),
(474,190,o),
(474,242,cs),
(474,268,ls),
(474,298,o),
(462,323,o),
(443,340,c),
(478,340,ls),
(545,340,o),
(590,294,o),
(590,227,cs),
(590,222,ls),
(590,155,o),
(545,110,o),
(478,110,cs),
(380,110,ls),
(346,110,o),
(319,84,o),
(319,50,cs),
(319,16,o),
(346,-10,o),
(380,-10,cs),
(910,-10,l),
(910,10,l),
(380,10,ls),
(355,10,o),
(339,25,o),
(339,50,cs),
(339,75,o),
(355,90,o),
(380,90,cs),
(478,90,ls),
(554,90,o),
(610,146,o),
(610,222,cs),
(610,227,ls),
(610,303,o),
(554,360,o),
(478,360,cs),
(260,360,l),
(260,590,l),
(370,590,l),
(370,610,l),
(120,610,l),
(120,357,l),
(75,347,o),
(40,303,o),
(40,248,cs),
(40,102,ls),
(40,38,o),
(87,-10,o),
(150,-10,cs)
);
},
{
closed = 1;
nodes = (
(96,10,o),
(60,47,o),
(60,102,cs),
(60,248,ls),
(60,303,o),
(97,340,o),
(142,340,cs),
(240,340,l),
(240,102,ls),
(240,47,o),
(204,10,o),
(150,10,cs)
);
},
{
closed = 1;
nodes = (
(350,170,o),
(324,199,o),
(324,242,cs),
(324,268,ls),
(324,311,o),
(350,340,o),
(389,340,cs),
(428,340,o),
(454,311,o),
(454,268,cs),
(454,242,ls),
(454,199,o),
(428,170,o),
(389,170,cs)
);
},
{
closed = 1;
nodes = (
(140,590,l),
(240,590,l),
(240,360,l),
(140,360,l)
);
},
{
closed = 1;
nodes = (
(730,290,l),
(681,290,o),
(628,313,o),
(628,390,cs),
(628,477,o),
(681,500,o),
(723,500,cs),
(762,500,o),
(784,490,o),
(798,474,c),
(792,477,o),
(785,478,o),
(778,478,cs),
(746,478,o),
(718,450,o),
(718,418,cs),
(718,386,o),
(746,358,o),
(778,358,cs),
(810,358,o),
(838,386,o),
(838,418,cs),
(838,476,o),
(794,520,o),
(723,520,cs),
(672,520,o),
(608,486,o),
(608,390,cs),
(608,304,o),
(672,270,o),
(730,270,c)
);
},
{
closed = 1;
nodes = (
(755,378,o),
(738,395,o),
(738,418,cs),
(738,441,o),
(755,458,o),
(778,458,cs),
(801,458,o),
(818,441,o),
(818,418,cs),
(818,395,o),
(801,378,o),
(778,378,cs)
);
}
);
width = 950;
}
);
metricLeft = "ca-tamil";
metricRight = "ca-tamil";
},
{
glyphname = "sh_ra_iiMatra-tamil";
lastChange = "2023-04-29 09:46:55 +0000";
layers = (
{
anchors = (
{
name = imatra;
pos = (829,600);
},
{
name = top;
pos = (450,600);
}
);
layerId = "7BAC99B4-31F2-487C-BACA-69B20297995E";
shapes = (
{
closed = 1;
nodes = (
(602,-150,ls),
(684,-150,o),
(840,-94,o),
(840,97,cs),
(840,264,o),
(840,327,o),
(731,327,cs),
(697,327,o),
(674,315,o),
(660,297,c),
(660,590,l),
(750,590,l),
(750,610,l),
(659,610,l),
(659,708,ls),
(659,757,o),
(692,790,o),
(741,790,cs),
(757,790,ls),
(806,790,o),
(839,757,o),
(839,698,c),
(859,698,l),
(860,766,o),
(815,810,o),
(757,810,cs),
(741,810,ls),
(683,810,o),
(639,766,o),
(639,708,cs),
(639,610,l),
(572,610,ls),
(532,610,o),
(498,592,o),
(479,562,c),
(473,590,o),
(449,610,o),
(419,610,cs),
(411,610,ls),
(377,610,o),
(350,583,o),
(350,549,cs),
(350,10,l),
(170,10,l),
(170,610,l),
(150,610,l),
(150,-10,l),
(370,-10,l),
(370,549,l),
(370,574,o),
(386,590,o),
(411,590,cs),
(419,590,ls),
(444,590,o),
(460,574,o),
(460,549,cs),
(460,-10,ls),
(460,-10,o),
(480,-10,o),
(480,-10,cs),
(480,498,ls),
(480,553,o),
(517,590,o),
(572,590,cs),
(640,590,l),
(640,150,l),
(660,150,l),
(660,232,ls),
(660,274,o),
(677,307,o),
(731,307,cs),
(820,307,o),
(820,264,o),
(820,97,cs),
(820,-83,o),
(675,-130,o),
(602,-130,cs),
(203,-130,ls),
(119,-130,o),
(60,-71,o),
(60,13,cs),
(60,460,l),
(40,460,l),
(40,13,ls),
(40,-80,o),
(110,-150,o),
(203,-150,cs)
);
},
{
closed = 1;
nodes = (
(831,638,o),
(859,666,o),
(859,698,cs),
(859,730,o),
(831,758,o),
(799,758,cs),
(766,758,o),
(739,730,o),
(739,698,cs),
(739,666,o),
(767,638,o),
(799,638,cs)
);
},
{
closed = 1;
nodes = (
(776,658,o),
(759,675,o),
(759,698,c),
(759,721,o),
(776,738,o),
(799,738,cs),
(822,738,o),
(839,721,o),
(839,698,cs),
(839,675,o),
(822,658,o),
(799,658,cs)
);
}
);
width = 899;
}
);
metricLeft = "ca-tamil";
metricRight = "ca-tamil";
},
{
glyphname = "a-tamil";
layers = (
{
layerId = "7BAC99B4-31F2-487C-BACA-69B20297995E";
shapes = (
{
closed = 1;
nodes = (
(284,-10,o),
(340,46,o),
(340,122,cs),
(340,240,l),
(400,240,l),
(400,-10,l),
(420,-10,l),
(420,460,l),
(400,460,l),
(400,260,l),
(340,260,l),
(340,478,ls),
(340,554,o),
(284,610,o),
(190,610,cs),
(96,610,o),
(40,554,o),
(40,478,cs),
(40,376,ls),
(40,324,o),
(76,284,o),
(125,284,cs),
(175,284,o),
(210,324,o),
(210,376,cs),
(210,412,ls),
(210,464,o),
(174,504,o),
(125,504,cs),
(98,504,o),
(75,492,o),
(60,473,c),
(60,478,ls),
(60,545,o),
(105,590,o),
(190,590,cs),
(275,590,o),
(320,545,o),
(320,478,cs),
(320,260,l),
(40,260,l),
(40,122,ls),
(40,46,o),
(96,-10,o),
(190,-10,cs)
);
},
{
closed = 1;
nodes = (
(105,10,o),
(60,55,o),
(60,122,cs),
(60,240,l),
(320,240,l),
(320,122,ls),
(320,55,o),
(275,10,o),
(190,10,cs)
);
},
{
closed = 1;
nodes = (
(86,304,o),
(60,333,o),
(60,376,cs),
(60,412,ls),
(60,455,o),
(86,484,o),
(125,484,cs),
(164,484,o),
(190,455,o),
(190,412,cs),
(190,376,ls),
(190,333,o),
(164,304,o),
(125,304,cs)
);
}
);
width = 460;
}
);
metricLeft = "ca-tamil";
metricRight = "ca-tamil";
unicode = 2949;
},
{
glyphname = "aa-tamil";
layers = (
{
layerId = "7BAC99B4-31F2-487C-BACA-69B20297995E";
shapes = (
{
closed = 1;
nodes = (
(403,-220,ls),
(479,-220,o),
(535,-164,o),
(535,-88,cs),
(535,-32,ls),
(535,21,o),
(492,59,o),
(434,59,cs),
(425,59,o),
(419,59,o),
(415,59,c),
(415,39,l),
(419,39,o),
(425,39,o),
(434,39,cs),
(483,39,o),
(515,11,o),
(515,-32,cs),
(515,-88,ls),
(515,-155,o),
(470,-200,o),
(403,-200,cs),
(320,-200,ls),
(313,-200,o),
(310,-203,o),
(310,-210,cs),
(310,-216,o),
(313,-220,o),
(320,-220,cs)
);
},
{
closed = 1;
nodes = (
(342,-220,o),
(370,-192,o),
(370,-160,cs),
(370,-128,o),
(342,-100,o),
(310,-100,cs),
(278,-100,o),
(250,-128,o),
(250,-160,cs),
(250,-192,o),
(278,-220,o),
(310,-220,cs)
);
},
{
closed = 1;
nodes = (
(287,-200,o),
(270,-183,o),
(270,-160,cs),
(270,-137,o),
(287,-120,o),
(310,-120,cs),
(333,-120,o),
(350,-137,o),
(350,-160,cs),
(350,-183,o),
(333,-200,o),
(310,-200,cs)
);
},
{
closed = 1;
nodes = (
(284,-10,o),
(340,46,o),
(340,122,cs),
(340,240,l),
(400,240,l),
(400,-10,l),
(420,-10,l),
(420,460,l),
(400,460,l),
(400,260,l),
(340,260,l),
(340,478,ls),
(340,554,o),
(284,610,o),
(190,610,cs),
(96,610,o),
(40,554,o),
(40,478,cs),
(40,376,ls),
(40,324,o),
(76,284,o),
(125,284,cs),
(175,284,o),
(210,324,o),
(210,376,cs),
(210,412,ls),
(210,464,o),
(174,504,o),
(125,504,cs),
(98,504,o),
(75,492,o),
(60,473,c),
(60,478,ls),
(60,545,o),
(105,590,o),
(190,590,cs),
(275,590,o),
(320,545,o),
(320,478,cs),
(320,260,l),
(40,260,l),
(40,122,ls),
(40,46,o),
(96,-10,o),
(190,-10,cs)
);
},
{
closed = 1;
nodes = (
(105,10,o),
(60,55,o),
(60,122,cs),
(60,240,l),
(320,240,l),
(320,122,ls),
(320,55,o),
(275,10,o),
(190,10,cs)
);
},
{
closed = 1;
nodes = (
(86,304,o),
(60,333,o),
(60,376,cs),
(60,412,ls),
(60,455,o),
(86,484,o),
(125,484,cs),
(164,484,o),
(190,455,o),
(190,412,cs),
(190,376,ls),
(190,333,o),
(164,304,o),
(125,304,cs)
);
}
);
width = 575;
}
);
metricLeft = "ca-tamil";
unicode = 2950;
},
{
glyphname = "i-tamil";
layers = (
{
layerId = "7BAC99B4-31F2-487C-BACA-69B20297995E";
shapes = (
{
closed = 1;
nodes = (
(568,-10,ls),
(645,-10,o),
(700,46,o),
(700,152,c),
(700,260,l),
(590,260,l),
(590,448,ls),
(590,556,o),
(503,610,o),
(420,610,cs),
(295,610,o),
(240,555,o),
(240,448,cs),
(240,376,ls),
(240,324,o),
(276,284,o),
(325,284,cs),
(375,284,o),
(410,324,o),
(410,376,cs),
(410,412,ls),
(410,464,o),
(374,504,o),
(325,504,cs),
(299,504,o),
(277,493,o),
(261,474,c),
(269,553,o),
(316,590,o),
(420,590,cs),
(496,590,o),
(570,543,o),
(570,448,cs),
(570,260,l),
(170,260,l),
(170,444,ls),
(170,635,o),
(292,700,o),
(420,700,cs),
(539,700,o),
(670,635,o),
(670,444,cs),
(670,370,l),
(690,370,l),
(690,444,ls),
(690,648,o),
(544,720,o),
(420,720,cs),
(285,720,o),
(150,648,o),
(150,444,cs),
(150,260,l),
(40,260,l),
(40,152,l),
(40,46,o),
(95,-10,o),
(172,-10,cs)
);
},
{
closed = 1;
nodes = (
(105,10,o),
(60,55,o),
(60,152,cs),
(60,240,l),
(150,240,l),
(150,172,ls),
(150,94,o),
(171,38,o),
(214,10,c),
(172,10,ls)
);
},
{
closed = 1;
nodes = (
(206,10,o),
(170,64,o),
(170,172,cs),
(170,240,l),
(570,240,l),
(570,172,ls),
(570,64,o),
(534,10,o),
(458,10,cs),
(292,10,ls)
);
},
{
closed = 1;
nodes = (
(286,304,o),
(260,333,o),
(260,376,cs),
(260,412,ls),
(260,455,o),
(286,484,o),
(325,484,cs),
(364,484,o),
(390,455,o),
(390,412,cs),
(390,376,ls),
(390,333,o),
(364,304,o),
(325,304,cs)
);
},
{
closed = 1;
nodes = (
(570,38,o),
(590,94,o),
(590,172,cs),
(590,240,l),
(680,240,l),
(680,152,ls),
(680,55,o),
(635,10,o),
(568,10,cs),
(529,10,l)
);
}
);
width = 740;
}
);
metricLeft = "ca-tamil";
metricRight = "ca-tamil";
unicode = 2951;
},
{
glyphname = "ii-tamil";
layers = (
{
layerId = "7BAC99B4-31F2-487C-BACA-69B20297995E";
shapes = (
{
closed = 1;
nodes = (
(60,0,l),
(60,590,l),
(310,590,l),
(310,0,l),
(330,0,l),
(330,600,ls),
(330,607,o),
(326,610,o),
(320,610,cs),
(40,610,l),
(40,0,l)
);
},
{
closed = 1;
nodes = (
(217,240,o),
(245,268,o),
(245,300,cs),
(245,332,o),
(217,360,o),
(185,360,cs),
(153,360,o),
(125,332,o),
(125,300,cs),
(125,268,o),
(153,240,o),
(185,240,cs)
);
},
{
closed = 1;
nodes = (
(162,260,o),
(145,277,o),
(145,300,cs),
(145,323,o),
(162,340,o),
(185,340,cs),
(208,340,o),
(225,323,o),
(225,300,cs),
(225,277,o),
(208,260,o),
(185,260,cs)
);
},
{
closed = 1;
nodes = (
(462,240,o),
(490,268,o),
(490,300,cs),
(490,332,o),
(462,360,o),
(430,360,cs),
(398,360,o),
(370,332,o),
(370,300,cs),
(370,268,o),
(398,240,o),
(430,240,cs)
);
},
{
closed = 1;
nodes = (
(407,260,o),
(390,277,o),
(390,300,cs),
(390,323,o),
(407,340,o),
(430,340,cs),
(453,340,o),
(470,323,o),
(470,300,cs),
(470,277,o),
(453,260,o),
(430,260,cs)
);
},
{
closed = 1;
nodes = (
(440,590,l),
(440,610,l),
(320,610,ls),
(320,610,o),
(320,590,o),
(320,590,cs)
);
}
);
width = 530;
}
);
metricLeft = "ca-tamil";
metricRight = "ca-tamil";
unicode = 2952;
},
{
glyphname = "u-tamil";
layers = (
{
layerId = "7BAC99B4-31F2-487C-BACA-69B20297995E";
shapes = (
{
closed = 1;
nodes = (
(470,-10,l),
(470,10,l),
(110,10,ls),
(85,10,o),
(69,25,o),
(69,50,cs),
(69,75,o),
(85,90,o),
(110,90,cs),
(198,90,ls),
(274,90,o),
(330,146,o),
(330,222,cs),
(330,478,ls),
(330,554,o),
(274,610,o),
(198,610,cs),
(172,610,ls),
(96,610,o),
(40,554,o),
(40,478,cs),
(40,255,l),
(60,255,l),
(60,478,ls),
(60,545,o),
(105,590,o),
(172,590,cs),
(198,590,ls),
(265,590,o),
(310,545,o),
(310,478,cs),
(310,222,ls),
(310,155,o),
(265,110,o),
(198,110,cs),
(110,110,ls),
(76,110,o),
(49,84,o),
(49,50,cs),
(49,16,o),
(76,-10,o),
(110,-10,cs)
);
},
{
closed = 1;
nodes = (
(175,146,o),
(210,186,o),
(210,238,cs),
(210,274,ls),
(210,326,o),
(174,366,o),
(125,366,cs),
(76,366,o),
(40,326,o),
(40,274,cs),
(40,238,ls),
(40,186,o),
(76,146,o),
(125,146,cs)
);
},
{
closed = 1;
nodes = (
(86,166,o),
(60,195,o),
(60,238,cs),
(60,274,ls),
(60,317,o),
(86,346,o),
(125,346,cs),
(164,346,o),
(190,317,o),
(190,274,cs),
(190,238,ls),
(190,195,o),
(164,166,o),
(125,166,cs)
);
}
);
width = 510;
}
);
metricLeft = "ca-tamil";
metricRight = "ca-tamil";
unicode = 2953;
},
{
glyphname = "uu-tamil";
layers = (
{
layerId = "7BAC99B4-31F2-487C-BACA-69B20297995E";
shapes = (
{
closed = 1;
nodes = (
(478,40,o),
(482,44,o),
(482,50,cs),
(482,57,o),
(479,60,o),
(472,60,cs),
(429,65,o),
(400,96,o),
(400,142,cs),
(400,409,ls),
(400,458,o),
(432,490,o),
(482,490,cs),
(500,490,ls),
(547,490,o),
(580,460,o),
(580,405,cs),
(580,200,ls),
(580,200,o),
(600,200,o),
(600,200,cs),
(600,405,ls),
(600,470,o),
(556,510,o),
(500,510,cs),
(482,510,ls),
(423,510,o),
(380,467,o),
(380,409,cs),
(380,142,ls),
(380,86,o),
(419,45,o),
(472,40,cs)
);
},
{
closed = 1;
nodes = (
(519,40,o),
(547,71,o),
(547,112,cs),
(547,139,ls),
(547,179,o),
(519,210,o),
(480,210,cs),
(442,210,o),
(414,179,o),
(414,139,cs),
(414,112,ls),
(414,71,o),
(442,40,o),
(480,40,cs)
);
},
{
closed = 1;
nodes = (
(452,60,o),
(434,80,o),
(434,112,cs),
(434,139,ls),
(434,170,o),
(452,190,o),
(480,190,cs),
(509,190,o),
(527,170,o),
(527,139,cs),
(527,112,ls),
(527,80,o),
(509,60,o),
(480,60,cs)
);
},
{
closed = 1;
nodes = (
(735,40,l),
(735,500,ls),
(735,506,o),
(732,510,o),
(725,510,cs),
(580,510,l),
(580,200,l),
(600,200,l),
(600,490,l),
(715,490,l),
(715,40,l)
);
},
{
closed = 1;
nodes = (
(775,490,l),
(775,510,l),
(725,510,l),
(725,490,l)
);
},
{
closed = 1;
nodes = (
(775,-10,l),
(775,10,l),
(110,10,ls),
(85,10,o),
(69,25,o),
(69,50,cs),
(69,75,o),
(85,90,o),
(110,90,cs),
(198,90,ls),
(274,90,o),
(330,146,o),
(330,222,cs),
(330,478,ls),
(330,554,o),
(274,610,o),
(198,610,cs),
(172,610,ls),
(96,610,o),
(40,554,o),
(40,478,cs),
(40,255,l),
(60,255,l),
(60,478,ls),
(60,545,o),
(105,590,o),
(172,590,cs),
(198,590,ls),
(265,590,o),
(310,545,o),
(310,478,cs),
(310,222,ls),
(310,155,o),
(265,110,o),
(198,110,cs),
(110,110,ls),
(76,110,o),
(49,84,o),
(49,50,cs),
(49,16,o),
(76,-10,o),
(110,-10,cs)
);
},
{
closed = 1;
nodes = (
(175,146,o),
(210,186,o),
(210,238,cs),
(210,274,ls),
(210,326,o),
(174,366,o),
(125,366,cs),
(76,366,o),
(40,326,o),
(40,274,cs),
(40,238,ls),
(40,186,o),
(76,146,o),
(125,146,cs)
);
},
{
closed = 1;
nodes = (
(86,166,o),
(60,195,o),
(60,238,cs),
(60,274,ls),
(60,317,o),
(86,346,o),
(125,346,cs),
(164,346,o),
(190,317,o),
(190,274,cs),
(190,238,ls),
(190,195,o),
(164,166,o),
(125,166,cs)
);
}
);
width = 815;
}
);
metricLeft = "ca-tamil";
metricRight = "ca-tamil";
unicode = 2954;
},
{
glyphname = "e-tamil";
layers = (
{
layerId = "7BAC99B4-31F2-487C-BACA-69B20297995E";
shapes = (
{
closed = 1;
nodes = (
(360,0,o),
(380,0,o),
(380,0,cs),
(380,600,ls),
(380,606,o),
(376,610,o),
(370,610,cs),
(254,610,ls),
(131,610,o),
(40,519,o),
(40,396,cs),
(40,175,ls),
(40,175,o),
(60,175,o),
(60,175,cs),
(60,396,ls),
(60,510,o),
(140,590,o),
(254,590,cs),
(360,590,l),
(360,0,ls)
);
},
{
closed = 1;
nodes = (
(199,40,o),
(240,87,o),
(240,148,cs),
(240,192,ls),
(240,253,o),
(198,300,o),
(140,300,cs),
(82,300,o),
(40,253,o),
(40,192,cs),
(40,148,ls),
(40,87,o),
(82,40,o),
(140,40,cs)
);
},
{
closed = 1;
nodes = (
(92,60,o),
(60,96,o),
(60,148,cs),
(60,192,ls),
(60,244,o),
(92,280,o),
(140,280,cs),
(188,280,o),
(220,244,o),
(220,192,cs),
(220,148,ls),
(220,96,o),
(188,60,o),
(140,60,cs)
);
},
{
closed = 1;
nodes = (
(490,590,l),
(490,610,l),
(310,610,ls),
(304,610,o),
(300,606,o),
(300,600,cs),
(300,594,o),
(304,590,o),
(310,590,cs)
);
}
);
width = 515;
}
);
metricLeft = "ca-tamil";
unicode = 2958;
},
{
glyphname = "ee-tamil";
layers = (
{
layerId = "7BAC99B4-31F2-487C-BACA-69B20297995E";
shapes = (
{
closed = 1;
nodes = (
(360,0,o),
(380,0,o),
(380,0,cs),
(380,600,ls),
(380,606,o),
(376,610,o),
(370,610,cs),
(254,610,ls),
(131,610,o),
(40,519,o),
(40,396,cs),
(40,175,ls),
(40,175,o),
(60,175,o),
(60,175,cs),
(60,396,ls),
(60,510,o),
(140,590,o),
(254,590,cs),
(360,590,l),
(360,0,ls)
);
},
{
closed = 1;
nodes = (
(199,40,o),
(240,87,o),
(240,148,cs),
(240,192,ls),
(240,253,o),
(198,300,o),
(140,300,cs),
(82,300,o),
(40,253,o),
(40,192,cs),
(40,148,ls),
(40,87,o),
(82,40,o),
(140,40,cs)
);
},
{
closed = 1;
nodes = (
(92,60,o),
(60,96,o),
(60,148,cs),
(60,192,ls),
(60,244,o),
(92,280,o),
(140,280,cs),
(188,280,o),
(220,244,o),
(220,192,cs),
(220,148,ls),
(220,96,o),
(188,60,o),
(140,60,cs)
);
},
{
closed = 1;
nodes = (
(490,590,l),
(490,610,l),
(310,610,ls),
(304,610,o),
(300,606,o),
(300,600,cs),
(300,594,o),
(304,590,o),
(310,590,cs)
);
},
{
closed = 1;
nodes = (
(187,-300,l),
(207,-300,l),
(380,0,l),
(360,0,l)
);
}
);
width = 530;
}
);
metricLeft = "ca-tamil";
metricRight = "ca-tamil";
unicode = 2959;
},
{
glyphname = "ai-tamil";
layers = (
{
layerId = "7BAC99B4-31F2-487C-BACA-69B20297995E";
shapes = (
{
closed = 1;
nodes = (
(169,-10,ls),
(233,-10,o),
(280,45,o),
(280,121,cs),
(280,172,l),
(260,172,l),
(260,121,ls),
(260,54,o),
(222,10,o),
(169,10,cs),
(149,10,ls),
(97,10,o),
(60,51,o),
(60,126,cs),
(60,179,o),
(83,194,o),
(127,209,cs),
(405,304,ls),
(461,323,o),
(500,379,o),
(500,450,cs),
(500,473,ls),
(500,556,o),
(453,610,o),
(390,610,cs),
(370,610,ls),
(306,610,o),
(260,554,o),
(260,478,cs),
(260,427,ls),
(260,421,o),
(264,417,o),
(270,417,cs),
(277,417,o),
(280,421,o),
(280,427,cs),
(280,478,ls),
(280,545,o),
(317,590,o),
(370,590,cs),
(390,590,ls),
(442,590,o),
(480,548,o),
(480,473,cs),
(480,450,ls),
(480,386,o),
(448,339,o),
(399,322,cs),
(121,227,ls),
(74,212,o),
(40,191,o),
(40,126,cs),
(40,43,o),
(86,-10,o),
(149,-10,cs)
);
},
{
closed = 1;
nodes = (
(390,-10,ls),
(453,-10,o),
(500,44,o),
(500,127,cs),
(500,154,ls),
(500,203,o),
(470,241,o),
(427,241,cs),
(406,241,l),
(406,221,l),
(427,221,ls),
(459,221,o),
(480,195,o),
(480,154,cs),
(480,127,ls),
(480,52,o),
(442,10,o),
(390,10,cs),
(370,10,ls),
(319,10,o),
(284,50,o),
(280,112,cs),
(280,119,o),
(277,122,o),
(270,122,cs),
(264,122,o),
(260,118,o),
(260,112,cs),
(264,41,o),
(309,-10,o),
(370,-10,cs)
);
},
{
closed = 1;
nodes = (
(200,285,o),
(235,325,o),
(235,377,cs),
(235,413,ls),
(235,465,o),
(199,505,o),
(150,505,cs),
(101,505,o),
(65,465,o),
(65,413,cs),
(65,377,ls),
(65,325,o),
(101,285,o),
(150,285,cs)
);
},
{
closed = 1;
nodes = (
(111,305,o),
(85,334,o),
(85,377,cs),
(85,413,ls),
(85,456,o),
(111,485,o),
(150,485,cs),
(189,485,o),
(215,456,o),
(215,413,cs),
(215,377,ls),
(215,334,o),
(189,305,o),
(150,305,cs)
);
},
{
closed = 1;
nodes = (
(146,285,o),
(150,289,o),
(150,295,cs),
(150,302,o),
(147,305,o),
(140,306,cs),
(92,311,o),
(60,354,o),
(60,417,cs),
(60,478,ls),
(60,545,o),
(97,590,o),
(150,590,cs),
(170,590,ls),
(222,590,o),
(260,548,o),
(260,473,cs),
(260,371,l),
(280,371,l),
(280,473,ls),
(280,556,o),
(233,610,o),
(170,610,cs),
(150,610,ls),
(86,610,o),
(40,554,o),
(40,478,cs),
(40,417,ls),
(40,345,o),
(81,291,o),
(140,286,cs)
);
}
);
width = 540;
}
);
metricLeft = "ca-tamil";
metricRight = "ca-tamil";
unicode = 2960;
},
{
glyphname = "o-tamil";
layers = (
{
layerId = "7BAC99B4-31F2-487C-BACA-69B20297995E";
shapes = (
{
closed = 1;
nodes = (
(450,127,l),
(450,416,l),
(450,527,o),
(367,610,o),
(256,610,cs),
(234,610,ls),
(123,610,o),
(40,527,o),
(40,416,cs),
(40,284,ls),
(40,278,o),
(44,274,o),
(50,274,cs),
(57,274,o),
(60,278,o),
(60,284,cs),
(60,416,ls),
(60,518,o),
(132,590,o),
(234,590,cs),
(256,590,ls),
(358,590,o),
(430,518,o),
(430,416,cs),
(430,147,l),
(330,147,ls),
(324,147,o),
(320,144,o),
(320,137,cs),
(320,131,o),
(324,127,o),
(330,127,cs)
);
},
{
closed = 1;
nodes = (
(309,-223,o),
(359,-172,o),
(359,-106,cs),
(359,-53,o),
(393,-15,o),
(453,-10,c),
(453,10,l),
(412,10,ls),
(363,10,o),
(330,44,o),
(330,92,cs),
(330,227,l),
(310,227,l),
(310,92,ls),
(310,42,o),
(343,2,o),
(390,-8,c),
(358,-28,o),
(339,-65,o),
(339,-106,cs),
(339,-163,o),
(300,-203,o),
(244,-203,cs),
(180,-203,o),
(149,-163,o),
(149,-96,c),
(129,-96,l),
(129,-189,o),
(182,-223,o),
(244,-223,cs)
);
},
{
closed = 1;
nodes = (
(175,164,o),
(210,204,o),
(210,256,cs),
(210,292,ls),
(210,344,o),
(174,384,o),
(125,384,cs),
(76,384,o),
(40,344,o),
(40,292,cs),
(40,256,ls),
(40,204,o),
(76,164,o),
(125,164,cs)
);
},
{
closed = 1;
nodes = (
(86,184,o),
(60,213,o),
(60,256,cs),
(60,292,ls),
(60,335,o),
(86,364,o),
(125,364,cs),
(164,364,o),
(190,335,o),
(190,292,cs),
(190,256,ls),
(190,213,o),
(164,184,o),
(125,184,cs)
);
}
);
width = 493;
}
);
metricLeft = "ca-tamil";
metricRight = "ca-tamil";
unicode = 2962;
},
{
glyphname = "oo-tamil";
layers = (
{
layerId = "7BAC99B4-31F2-487C-BACA-69B20297995E";
shapes = (
{
closed = 1;
nodes = (
(450,127,l),
(450,416,l),
(450,527,o),
(367,610,o),
(256,610,cs),
(234,610,ls),
(123,610,o),
(40,527,o),
(40,416,cs),
(40,284,ls),
(40,278,o),
(44,274,o),
(50,274,cs),
(57,274,o),
(60,278,o),
(60,284,cs),
(60,416,ls),
(60,518,o),
(132,590,o),
(234,590,cs),
(256,590,ls),
(358,590,o),
(430,518,o),
(430,416,cs),
(430,147,l),
(330,147,ls),
(324,147,o),
(320,144,o),
(320,137,cs),
(320,131,o),
(324,127,o),
(330,127,cs)
);
},
{
closed = 1;
nodes = (
(309,-223,o),
(359,-172,o),
(359,-106,cs),
(359,-53,o),
(393,-15,o),
(453,-10,c),
(453,10,l),
(412,10,ls),
(363,10,o),
(330,44,o),
(330,92,cs),
(330,227,l),
(310,227,l),
(310,92,ls),
(310,42,o),
(343,2,o),
(390,-8,c),
(358,-28,o),
(339,-65,o),
(339,-106,cs),
(339,-163,o),
(300,-203,o),
(244,-203,cs),
(180,-203,o),
(149,-163,o),
(149,-96,c),
(129,-96,l),
(129,-189,o),
(182,-223,o),
(244,-223,cs)
);
},
{
closed = 1;
nodes = (
(175,164,o),
(210,204,o),
(210,256,cs),
(210,292,ls),
(210,344,o),
(174,384,o),
(125,384,cs),
(76,384,o),
(40,344,o),
(40,292,cs),
(40,256,ls),
(40,204,o),
(76,164,o),
(125,164,cs)
);
},
{
closed = 1;
nodes = (
(86,184,o),
(60,213,o),
(60,256,cs),
(60,292,ls),
(60,335,o),
(86,364,o),
(125,364,cs),
(164,364,o),
(190,335,o),
(190,292,cs),
(190,256,ls),
(190,213,o),
(164,184,o),
(125,184,cs)
);
},
{
closed = 1;
nodes = (
(221,-156,o),
(249,-128,o),
(249,-96,cs),
(249,-64,o),
(221,-36,o),
(189,-36,cs),
(157,-36,o),
(129,-64,o),
(129,-96,cs),
(129,-128,o),
(157,-156,o),
(189,-156,cs)
);
},
{
closed = 1;
nodes = (
(166,-136,o),
(149,-119,o),
(149,-96,cs),
(149,-73,o),
(166,-56,o),
(189,-56,cs),
(212,-56,o),
(229,-73,o),
(229,-96,cs),
(229,-119,o),
(212,-136,o),
(189,-136,cs)
);
}
);
width = 493;
}
);
metricLeft = "ca-tamil";
metricRight = "ca-tamil";
unicode = 2963;
},
{
glyphname = "au-tamil";
layers = (
{
layerId = "7BAC99B4-31F2-487C-BACA-69B20297995E";
shapes = (
{
closed = 1;
nodes = (
(450,127,l),
(450,416,l),
(450,527,o),
(367,610,o),
(256,610,cs),
(234,610,ls),
(123,610,o),
(40,527,o),
(40,416,cs),
(40,284,ls),
(40,278,o),
(44,274,o),
(50,274,cs),
(57,274,o),
(60,278,o),
(60,284,cs),
(60,416,ls),
(60,518,o),
(132,590,o),
(234,590,cs),
(256,590,ls),
(358,590,o),
(430,518,o),
(430,416,cs),
(430,147,l),
(330,147,ls),
(324,147,o),
(320,144,o),
(320,137,cs),
(320,131,o),
(324,127,o),
(330,127,cs)
);
},
{
closed = 1;
nodes = (
(309,-223,o),
(359,-172,o),
(359,-106,cs),
(359,-53,o),
(393,-15,o),
(453,-10,c),
(453,10,l),
(412,10,ls),
(363,10,o),
(330,44,o),
(330,92,cs),
(330,227,l),
(310,227,l),
(310,92,ls),
(310,42,o),
(343,2,o),
(390,-8,c),
(358,-28,o),
(339,-65,o),
(339,-106,cs),
(339,-163,o),
(300,-203,o),
(244,-203,cs),
(180,-203,o),
(149,-163,o),
(149,-96,c),
(129,-96,l),
(129,-189,o),
(182,-223,o),
(244,-223,cs)
);
},
{
closed = 1;
nodes = (
(175,164,o),
(210,204,o),
(210,256,cs),
(210,292,ls),
(210,344,o),
(174,384,o),
(125,384,cs),
(76,384,o),
(40,344,o),
(40,292,cs),
(40,256,ls),
(40,204,o),
(76,164,o),
(125,164,cs)
);
},
{
closed = 1;
nodes = (
(86,184,o),
(60,213,o),
(60,256,cs),
(60,292,ls),
(60,335,o),
(86,364,o),
(125,364,cs),
(164,364,o),
(190,335,o),
(190,292,cs),
(190,256,ls),
(190,213,o),
(164,184,o),
(125,184,cs)
);
},
{
closed = 1;
nodes = (
(658,-10,o),
(662,-6,o),
(662,0,cs),
(662,7,o),
(659,10,o),
(652,10,cs),
(591,15,o),
(550,58,o),
(550,122,cs),
(550,478,ls),
(550,545,o),
(595,590,o),
(662,590,cs),
(686,590,ls),
(750,590,o),
(797,548,o),
(797,473,cs),
(797,200,ls),
(797,200,o),
(817,200,o),
(817,200,cs),
(817,473,ls),
(817,558,o),
(759,610,o),
(686,610,cs),
(662,610,ls),
(586,610,o),
(530,554,o),
(530,478,cs),
(530,122,ls),
(530,49,o),
(582,-5,o),
(652,-10,cs)
);
},
{
closed = 1;
nodes = (
(710,-10,o),
(745,30,o),
(745,82,cs),
(745,118,ls),
(745,170,o),
(709,210,o),
(660,210,cs),
(611,210,o),
(575,170,o),
(575,118,cs),
(575,82,ls),
(575,30,o),
(611,-10,o),
(660,-10,cs)
);
},
{
closed = 1;
nodes = (
(621,10,o),
(595,39,o),
(595,82,cs),
(595,118,ls),
(595,161,o),
(621,190,o),
(660,190,cs),
(699,190,o),
(725,161,o),
(725,118,cs),
(725,82,ls),
(725,39,o),
(699,10,o),
(660,10,cs)
);
},
{
closed = 1;
nodes = (
(977,-10,o),
(997,-10,o),
(997,-10,cs),
(997,600,ls),
(997,606,o),
(994,610,o),
(987,610,cs),
(797,610,l),
(797,200,l),
(797,200,o),
(817,200,o),
(817,200,cs),
(817,590,l),
(977,590,l),
(977,-10,ls)
);
},
{
closed = 1;
nodes = (
(1087,590,ls),
(1087,590,o),
(1087,610,o),
(1087,610,cs),
(897,610,ls),
(891,610,o),
(887,606,o),
(887,600,cs),
(887,594,o),
(891,590,o),
(897,590,cs)
);
}
);
width = 1127;
}
);
metricLeft = "ca-tamil";
metricRight = "ca-tamil";
unicode = 2964;
},
{
glyphname = "ka-tamil";
layers = (
{
anchors = (
{
name = imatra;
pos = (270,600);
},
{
name = top;
pos = (230,600);
}
);
layerId = "7BAC99B4-31F2-487C-BACA-69B20297995E";
shapes = (
{
closed = 1;
nodes = (
(177,-10,o),
(202,-1,o),
(220,14,c),
(247,-4,o),
(276,-10,o),
(300,-10,cs),
(392,-10,o),
(420,74,o),
(420,175,cs),
(420,275,o),
(392,360,o),
(290,360,cs),
(260,360,l),
(260,590,l),
(370,590,l),
(370,610,l),
(120,610,l),
(120,357,l),
(75,347,o),
(40,303,o),
(40,248,cs),
(40,102,ls),
(40,38,o),
(87,-10,o),
(150,-10,cs)
);
},
{
closed = 1;
nodes = (
(96,10,o),
(60,47,o),
(60,102,cs),
(60,248,ls),
(60,303,o),
(97,340,o),
(142,340,cs),
(240,340,l),
(240,102,ls),
(240,47,o),
(204,10,o),
(150,10,cs)
);
},
{
closed = 1;
nodes = (
(279,10,o),
(257,14,o),
(235,29,c),
(251,48,o),
(260,73,o),
(260,102,cs),
(260,340,l),
(290,340,ls),
(377,340,o),
(400,271,o),
(400,175,cs),
(400,79,o),
(377,10,o),
(300,10,cs)
);
},
{
closed = 1;
nodes = (
(140,590,l),
(240,590,l),
(240,360,l),
(140,360,l)
);
}
);
width = 460;
}
);
metricLeft = "ca-tamil";
metricRight = "ca-tamil";
unicode = 2965;
},
{
glyphname = "nga-tamil";
layers = (
{
anchors = (
{
name = imatra;
pos = (285,600);
},
{
name = top;
pos = (232,600);
}
);
layerId = "7BAC99B4-31F2-487C-BACA-69B20297995E";
shapes = (
{
closed = 1;
nodes = (
(520,-10,l),
(520,460,l),
(500,460,l),
(500,10,l),
(338,9,l),
(408,38,o),
(420,114,o),
(420,185,cs),
(420,272,o),
(397,355,o),
(311,355,cs),
(279,355,o),
(252,340,o),
(240,305,c),
(240,590,l),
(370,590,l),
(370,610,l),
(40,610,l),
(40,-10,l),
(60,-10,l),
(60,590,l),
(220,590,l),
(220,140,l),
(240,140,l),
(240,260,ls),
(240,302,o),
(271,335,o),
(311,335,cs),
(377,335,o),
(400,272,o),
(400,185,cs),
(400,86,o),
(374,10,o),
(252,8,c),
(252,-12,l)
);
}
);
width = 560;
}
);
metricLeft = "ca-tamil";
metricRight = "ca-tamil";
unicode = 2969;
},
{
glyphname = "ca-tamil";
lastChange = "2023-04-29 09:46:55 +0000";
layers = (
{
anchors = (
{
name = imatra;
pos = (283,600);
},
{
name = top;
pos = (251,600);
}
);
layerId = "7BAC99B4-31F2-487C-BACA-69B20297995E";
shapes = (
{
closed = 1;
nodes = (
(214,-10,o),
(260,38,o),
(260,102,cs),
(260,340,l),
(370,340,l),
(370,360,l),
(260,360,l),
(260,590,l),
(370,590,l),
(370,610,l),
(120,610,l),
(120,357,l),
(76,346,o),
(40,304,o),
(40,248,cs),
(40,102,ls),
(40,38,o),
(86,-10,o),
(150,-10,cs)
);
},
{
closed = 1;
nodes = (
(96,10,o),
(60,47,o),
(60,102,cs),
(60,248,ls),
(60,303,o),
(97,340,o),
(142,340,cs),
(240,340,l),
(240,102,ls),
(240,47,o),
(204,10,o),
(150,10,cs)
);
},
{
closed = 1;
nodes = (
(140,590,l),
(240,590,l),
(240,360,l),
(140,360,l)
);
}
);
width = 410;
}
);
unicode = 2970;
},
{
glyphname = "ja-tamil";
layers = (
{
anchors = (
{
name = imatra;
pos = (381,600);
},
{
name = top;
pos = (270,600);
}
);
layerId = "7BAC99B4-31F2-487C-BACA-69B20297995E";
shapes = (
{
closed = 1;
nodes = (
(169,-11,ls),
(245,-11,o),
(268,54,o),
(289,112,cs),
(311,173,o),
(330,228,o),
(399,228,cs),
(408,228,ls),
(456,228,o),
(480,183,o),
(480,123,cs),
(480,38,o),
(452,10,o),
(403,10,cs),
(347,10,o),
(325,38,o),
(325,95,c),
(305,95,l),
(305,29,o),
(336,-10,o),
(403,-10,cs),
(462,-10,o),
(500,28,o),
(500,123,cs),
(500,189,o),
(469,248,o),
(408,248,cs),
(399,248,ls),
(316,248,o),
(292,180,o),
(270,119,cs),
(249,60,o),
(231,9,o),
(169,9,cs),
(150,9,ls),
(98,9,o),
(60,51,o),
(60,106,cs),
(60,181,o),
(81,204,o),
(147,223,cs),
(414,300,ls),
(472,317,o),
(500,380,o),
(500,450,cs),
(500,473,ls),
(500,556,o),
(453,610,o),
(390,610,cs),
(371,610,ls),
(324,610,o),
(287,580,o),
(270,535,c),
(253,582,o),
(215,610,o),
(170,610,cs),
(151,610,ls),
(86,610,o),
(40,554,o),
(40,478,cs),
(40,417,ls),
(40,341,o),
(87,285,o),
(151,285,cs),
(201,285,o),
(236,325,o),
(236,377,cs),
(236,413,ls),
(236,465,o),
(200,505,o),
(151,505,cs),
(102,505,o),
(66,465,o),
(66,413,cs),
(66,402,o),
(66,390,o),
(66,377,cs),
(66,366,o),
(69,356,o),
(73,348,c),
(61,368,o),
(60,389,o),
(60,417,cs),
(60,478,ls),
(60,545,o),
(97,590,o),
(151,590,cs),
(170,590,ls),
(222,590,o),
(260,548,o),
(260,473,cs),
(260,361,l),
(280,361,l),
(280,478,ls),
(280,545,o),
(317,590,o),
(371,590,cs),
(390,590,ls),
(442,590,o),
(480,548,o),
(480,473,cs),
(480,450,ls),
(480,385,o),
(457,334,o),
(408,320,cs),
(141,243,ls),
(70,223,o),
(40,190,o),
(40,106,cs),
(40,42,o),
(88,-11,o),
(150,-11,cs)
);
},
{
closed = 1;
nodes = (
(86,413,ls),
(86,456,o),
(112,485,o),
(151,485,cs),
(190,485,o),
(216,456,o),
(216,413,cs),
(216,377,ls),
(216,334,o),
(190,305,o),
(151,305,cs),
(112,305,o),
(86,334,o),
(86,377,cs)
);
}
);
width = 540;
}
);
metricLeft = "ca-tamil";
metricRight = "ca-tamil";
unicode = 2972;
},
{
glyphname = "nya-tamil";
layers = (
{
anchors = (
{
name = imatra;
pos = (479,600);
},
{
name = top;
pos = (428,600);
}
);
layerId = "7BAC99B4-31F2-487C-BACA-69B20297995E";
shapes = (
{
closed = 1;
nodes = (
(479,40,l),
(479,260,ls),
(479,297,o),
(506,335,o),
(550,335,cs),
(609,335,o),
(639,292,o),
(639,166,cs),
(639,-25,o),
(524,-140,o),
(363,-140,cs),
(336,-140,ls),
(175,-140,o),
(60,-25,o),
(60,136,cs),
(60,245,l),
(40,245,l),
(40,136,ls),
(40,-34,o),
(166,-160,o),
(336,-160,cs),
(363,-160,ls),
(533,-160,o),
(659,-34,o),
(659,166,cs),
(659,292,o),
(629,355,o),
(550,355,cs),
(526,355,o),
(493,346,o),
(479,305,c),
(479,590,l),
(589,590,l),
(589,610,l),
(353,610,ls),
(230,610,o),
(139,519,o),
(139,396,cs),
(139,148,ls),
(139,87,o),
(181,40,o),
(239,40,cs),
(298,40,o),
(339,87,o),
(339,148,cs),
(339,192,ls),
(339,253,o),
(297,300,o),
(239,300,cs),
(205,300,o),
(177,284,o),
(159,259,c),
(159,396,ls),
(159,510,o),
(239,590,o),
(353,590,cs),
(459,590,l),
(459,40,l)
);
},
{
closed = 1;
nodes = (
(159,192,ls),
(159,244,o),
(191,280,o),
(239,280,cs),
(287,280,o),
(319,244,o),
(319,192,cs),
(319,148,ls),
(319,96,o),
(287,60,o),
(239,60,cs),
(191,60,o),
(159,96,o),
(159,148,cs)
);
}
);
width = 699;
}
);
metricLeft = "ca-tamil";
metricRight = "ca-tamil";
unicode = 2974;
},
{
glyphname = "tta-tamil";
layers = (
{
anchors = (
{
name = imatra;
pos = (200,0);
},
{
name = top;
pos = (200,600);
}
);
layerId = "7BAC99B4-31F2-487C-BACA-69B20297995E";
shapes = (
{
closed = 1;
nodes = (
(360,-10,l),
(360,10,l),
(60,10,l),
(60,610,l),
(40,610,l),
(40,-10,l)
);
}
);
width = 400;
}
);
metricLeft = "ca-tamil";
metricRight = "ca-tamil";
unicode = 2975;
},
{
glyphname = "nna-tamil";
layers = (
{
anchors = (
{
name = imatra;
pos = (800,600);
},
{
name = top;
pos = (478,600);
}
);
layerId = "7BAC99B4-31F2-487C-BACA-69B20297995E";
shapes = (
{
closed = 1;
nodes = (
(172,-10,o),
(172,10,o),
(172,10,cs),
(106,10,o),
(60,55,o),
(60,122,cs),
(60,416,ls),
(60,518,o),
(132,590,o),
(234,590,cs),
(330,590,l),
(307,572,o),
(292,544,o),
(292,511,cs),
(292,89,ls),
(292,33,o),
(334,-10,o),
(389,-10,cs),
(444,-10,o),
(487,33,o),
(487,89,cs),
(487,511,ls),
(487,544,o),
(473,572,o),
(450,590,c),
(570,590,l),
(547,572,o),
(532,544,o),
(532,511,cs),
(532,89,ls),
(532,33,o),
(574,-10,o),
(629,-10,cs),
(684,-10,o),
(727,33,o),
(727,89,cs),
(727,511,ls),
(727,544,o),
(713,572,o),
(690,590,c),
(790,590,l),
(790,-10,l),
(810,-10,l),
(810,590,l),
(910,590,l),
(910,610,l),
(234,610,ls),
(123,610,o),
(40,527,o),
(40,416,cs),
(40,122,ls),
(40,46,o),
(97,-10,o),
(172,-10,cs)
);
},
{
closed = 1;
nodes = (
(343,10,o),
(312,42,o),
(312,89,cs),
(312,511,ls),
(312,558,o),
(344,590,o),
(391,590,cs),
(436,590,o),
(467,558,o),
(467,511,cs),
(467,89,ls),
(467,42,o),
(435,10,o),
(389,10,cs)
);
},
{
closed = 1;
nodes = (
(583,10,o),
(552,42,o),
(552,89,cs),
(552,511,ls),
(552,558,o),
(584,590,o),
(631,590,cs),
(676,590,o),
(707,558,o),
(707,511,cs),
(707,89,ls),
(707,42,o),
(675,10,o),
(629,10,cs)
);
},
{
closed = 1;
nodes = (
(231,-10,o),
(272,37,o),
(272,98,cs),
(272,142,ls),
(272,203,o),
(230,250,o),
(172,250,cs),
(114,250,o),
(72,203,o),
(72,142,cs),
(72,98,ls),
(72,37,o),
(114,-10,o),
(172,-10,cs)
);
},
{
closed = 1;
nodes = (
(124,10,o),
(92,46,o),
(92,98,cs),
(92,142,ls),
(92,194,o),
(124,230,o),
(172,230,cs),
(220,230,o),
(252,194,o),
(252,142,cs),
(252,98,ls),
(252,46,o),
(220,10,o),
(172,10,cs)
);
}
);
width = 950;
}
);
metricLeft = "ca-tamil";
metricRight = "ca-tamil";
unicode = 2979;
},
{
glyphname = "ta-tamil";
lastChange = "2023-04-29 09:46:55 +0000";
layers = (
{
anchors = (
{
name = imatra;
pos = (288,600);
},
{
name = top;
pos = (234,600);
}
);
layerId = "7BAC99B4-31F2-487C-BACA-69B20297995E";
shapes = (
{
closed = 1;
nodes = (
(40,-300,o),
(60,-300,o),
(60,-300,cs),
(60,-213,ls),
(60,-129,o),
(119,-70,o),
(203,-70,cs),
(251,-70,ls),
(368,-70,o),
(420,12,o),
(420,145,cs),
(420,284,o),
(375,360,o),
(271,360,cs),
(261,360,l),
(261,590,l),
(371,590,l),
(371,610,l),
(121,610,l),
(121,357,l),
(76,346,o),
(41,304,o),
(41,248,cs),
(41,102,ls),
(41,38,o),
(88,-10,o),
(151,-10,cs),
(214,-10,o),
(261,38,o),
(261,102,cs),
(261,340,l),
(271,340,ls),
(362,340,o),
(400,277,o),
(400,145,cs),
(400,19,o),
(356,-50,o),
(251,-50,cs),
(203,-50,ls),
(110,-50,o),
(40,-120,o),
(40,-213,cs),
(40,-300,ls)
);
},
{
closed = 1;
nodes = (
(97,10,o),
(61,47,o),
(61,102,cs),
(61,248,ls),
(61,303,o),
(98,340,o),
(143,340,cs),
(241,340,l),
(241,102,ls),
(241,47,o),
(205,10,o),
(151,10,cs)
);
},
{
closed = 1;
nodes = (
(141,590,l),
(241,590,l),
(241,360,l),
(141,360,l)
);
}
);
width = 460;
}
);
metricLeft = "ca-tamil";
metricRight = "ca-tamil";
unicode = 2980;
},
{
glyphname = "na-tamil";
layers = (
{
anchors = (
{
name = bottom;
pos = (230,-300);
},
{
name = bottomright;
pos = (460,-300);
},
{
name = imatra;
pos = (230,600);
},
{
name = top;
pos = (230,600);
}
);
layerId = "7BAC99B4-31F2-487C-BACA-69B20297995E";
shapes = (
{
closed = 1;
nodes = (
(420,272,o),
(397,355,o),
(311,355,cs),
(279,355,o),
(252,340,o),
(240,305,c),
(240,590,l),
(370,590,l),
(370,610,l),
(40,610,l),
(40,-10,l),
(60,-10,l),
(60,590,l),
(220,590,l),
(220,140,l),
(240,140,l),
(240,260,ls),
(240,302,o),
(271,335,o),
(311,335,cs),
(377,335,o),
(400,272,o),
(400,185,cs),
(400,34,o),
(373,-42,o),
(252,-42,cs),
(203,-42,ls),
(110,-42,o),
(40,-112,o),
(40,-214,cs),
(40,-301,l),
(60,-301,l),
(60,-214,ls),
(60,-121,o),
(119,-62,o),
(203,-62,cs),
(252,-62,ls),
(386,-62,o),
(420,27,o),
(420,185,cs)
);
}
);
width = 460;
}
);
metricLeft = "ca-tamil";
metricRight = "ca-tamil";
unicode = 2984;
},
{
glyphname = "nnna-tamil";
layers = (
{
anchors = (
{
name = imatra;
pos = (560,600);
},
{
name = top;
pos = (389,600);
}
);
layerId = "7BAC99B4-31F2-487C-BACA-69B20297995E";
shapes = (
{
closed = 1;
nodes = (
(172,-10,o),
(172,10,o),
(172,10,cs),
(106,10,o),
(60,55,o),
(60,122,cs),
(60,416,ls),
(60,518,o),
(132,590,o),
(234,590,c),
(330,590,l),
(307,572,o),
(292,544,o),
(292,511,cs),
(292,89,ls),
(292,33,o),
(334,-10,o),
(389,-10,cs),
(444,-10,o),
(487,33,o),
(487,89,cs),
(487,511,ls),
(487,544,o),
(473,572,o),
(450,590,c),
(550,590,l),
(550,-10,l),
(570,-10,l),
(570,590,l),
(670,590,l),
(670,610,l),
(234,610,ls),
(123,610,o),
(40,527,o),
(40,416,cs),
(40,122,ls),
(40,46,o),
(97,-10,o),
(172,-10,cs)
);
},
{
closed = 1;
nodes = (
(343,10,o),
(312,42,o),
(312,89,cs),
(312,511,ls),
(312,558,o),
(344,590,o),
(391,590,cs),
(436,590,o),
(467,558,o),
(467,511,cs),
(467,89,ls),
(467,42,o),
(435,10,o),
(389,10,cs)
);
},
{
closed = 1;
nodes = (
(231,-10,o),
(272,37,o),
(272,98,cs),
(272,142,ls),
(272,203,o),
(230,250,o),
(172,250,cs),
(114,250,o),
(72,203,o),
(72,142,cs),
(72,98,ls),
(72,37,o),
(114,-10,o),
(172,-10,cs)
);
},
{
closed = 1;
nodes = (
(124,10,o),
(92,46,o),
(92,98,cs),
(92,142,ls),
(92,194,o),
(124,230,o),
(172,230,cs),
(220,230,o),
(252,194,o),
(252,142,cs),
(252,98,ls),
(252,46,o),
(220,10,o),
(172,10,cs)
);
}
);
width = 710;
}
);
metricLeft = "ca-tamil";
metricRight = "ca-tamil";
unicode = 2985;
},
{
glyphname = "pa-tamil";
layers = (
{
anchors = (
{
name = imatra;
pos = (350,550);
},
{
name = top;
pos = (200,600);
}
);
layerId = "7BAC99B4-31F2-487C-BACA-69B20297995E";
shapes = (
{
closed = 1;
nodes = (
(360,-10,l),
(360,610,l),
(340,610,l),
(340,10,l),
(60,10,l),
(60,610,l),
(40,610,l),
(40,-6,o),
(40,-10,o),
(40,-10,cs)
);
}
);
width = 400;
}
);
metricLeft = "ca-tamil";
metricRight = "ca-tamil";
unicode = 2986;
},
{
glyphname = "ma-tamil";
lastChange = "2023-04-29 09:46:55 +0000";
layers = (
{
anchors = (
{
name = imatra;
pos = (313,600);
},
{
name = top;
pos = (225,600);
}
);
layerId = "7BAC99B4-31F2-487C-BACA-69B20297995E";
shapes = (
{
closed = 1;
nodes = (
(311,-10,ls),
(367,-10,o),
(410,33,o),
(410,89,cs),
(410,511,ls),
(410,567,o),
(368,610,o),
(313,610,cs),
(258,610,o),
(215,567,o),
(215,511,cs),
(215,10,l),
(60,10,l),
(60,610,l),
(40,610,l),
(40,-10,l)
);
},
{
closed = 1;
nodes = (
(235,511,ls),
(235,558,o),
(267,590,o),
(313,590,cs),
(359,590,o),
(390,558,o),
(390,511,cs),
(390,89,ls),
(390,42,o),
(358,10,o),
(311,10,cs),
(235,10,l)
);
}
);
width = 450;
}
);
metricLeft = "ca-tamil";
metricRight = "ca-tamil";
unicode = 2990;
},
{
glyphname = "ya-tamil";
lastChange = "2023-04-29 09:46:55 +0000";
layers = (
{
anchors = (
{
name = imatra;
pos = (410,540);
},
{
name = top;
pos = (230,600);
}
);
layerId = "7BAC99B4-31F2-487C-BACA-69B20297995E";
shapes = (
{
closed = 1;
nodes = (
(174,-10,o),
(202,5,o),
(220,29,c),
(220,-10,l),
(420,-10,l),
(420,610,l),
(400,610,l),
(400,10,l),
(240,10,l),
(240,590,l),
(220,590,l),
(220,92,ls),
(220,43,o),
(188,10,o),
(140,10,cs),
(92,10,o),
(60,43,o),
(60,92,cs),
(60,610,l),
(40,610,l),
(40,92,ls),
(40,34,o),
(82,-10,o),
(140,-10,cs)
);
}
);
width = 460;
}
);
metricLeft = "ca-tamil";
metricRight = "ca-tamil";
unicode = 2991;
},
{
glyphname = "ra-tamil";
layers = (
{
anchors = (
{
name = imatra;
pos = (250,600);
},
{
name = top;
pos = (195,600);
}
);
layerId = "7BAC99B4-31F2-487C-BACA-69B20297995E";
shapes = (
{
closed = 1;
nodes = (
(260,0,l),
(260,590,l),
(360,590,l),
(360,610,l),
(40,610,l),
(40,90,l),
(60,90,l),
(60,590,l),
(240,590,l),
(240,0,l)
);
},
{
closed = 1;
nodes = (
(67,-300,l),
(87,-300,l),
(260,0,l),
(240,0,l)
);
}
);
width = 380;
}
);
metricLeft = "ca-tamil";
unicode = 2992;
},
{
glyphname = "rra-tamil";
layers = (
{
anchors = (
{
name = imatra;
pos = (311,601);
},
{
name = top;
pos = (230,600);
}
);
layerId = "7BAC99B4-31F2-487C-BACA-69B20297995E";
shapes = (
{
closed = 1;
nodes = (
(60,-301,l),
(60,-214,ls),
(60,-121,o),
(119,-62,o),
(203,-62,cs),
(252,-62,ls),
(385,-62,o),
(420,-4,o),
(420,225,cs),
(420,369,ls),
(420,507,o),
(415,611,o),
(311,611,cs),
(268,611,o),
(243,592,o),
(230,565,c),
(216,593,o),
(188,610,o),
(155,610,cs),
(107,610,o),
(70,573,o),
(70,524,cs),
(70,70,l),
(90,70,l),
(90,524,ls),
(90,564,o),
(116,590,o),
(155,590,cs),
(194,590,o),
(220,564,o),
(220,524,cs),
(220,110,l),
(240,110,l),
(240,516,ls),
(240,559,o),
(257,591,o),
(311,591,cs),
(396,591,o),
(400,506,o),
(400,369,cs),
(400,225,ls),
(400,4,o),
(373,-42,o),
(252,-42,cs),
(203,-42,ls),
(110,-42,o),
(40,-112,o),
(40,-214,cs),
(40,-301,l)
);
}
);
width = 460;
}
);
metricLeft = "ca-tamil";
metricRight = "ca-tamil";
unicode = 2993;
},
{
glyphname = "la-tamil";
lastChange = "2023-04-29 09:46:55 +0000";
layers = (
{
anchors = (
{
name = imatra;
pos = (355,600);
},
{
name = top;
pos = (288,600);
}
);
layerId = "7BAC99B4-31F2-487C-BACA-69B20297995E";
shapes = (
{
closed = 1;
nodes = (
(172,-10,ls),
(221,-10,o),
(255,31,o),
(255,82,cs),
(255,118,ls),
(255,170,o),
(219,210,o),
(170,210,cs),
(121,210,o),
(85,170,o),
(85,118,cs),
(85,82,ls),
(85,66,o),
(88,50,o),
(95,38,c),
(73,57,o),
(60,86,o),
(60,122,cs),
(60,478,ls),
(60,545,o),
(105,590,o),
(172,590,cs),
(196,590,ls),
(260,590,o),
(307,548,o),
(307,473,cs),
(307,76,ls),
(307,27,o),
(344,-10,o),
(392,-10,cs),
(440,-10,o),
(477,27,o),
(477,76,cs),
(477,523,ls),
(477,572,o),
(440,610,o),
(391,610,cs),
(355,610,l),
(355,590,l),
(391,590,ls),
(431,590,o),
(457,563,o),
(457,523,cs),
(457,76,ls),
(457,36,o),
(431,10,o),
(392,10,cs),
(353,10,o),
(327,36,o),
(327,76,cs),
(327,473,ls),
(327,558,o),
(269,610,o),
(196,610,cs),
(172,610,ls),
(96,610,o),
(40,554,o),
(40,478,cs),
(40,122,ls),
(40,48,o),
(92,-6,o),
(164,-10,cs),
(166,-10,o),
(168,-10,o),
(170,-10,cs)
);
},
{
closed = 1;
nodes = (
(129,10,o),
(105,41,o),
(105,82,cs),
(105,118,ls),
(105,161,o),
(132,190,o),
(170,190,cs),
(208,190,o),
(235,161,o),
(235,118,cs),
(235,82,ls),
(235,39,o),
(210,10,o),
(171,10,cs),
(164,10,ls)
);
}
);
width = 517;
}
);
metricLeft = "ca-tamil";
metricRight = "ca-tamil";
unicode = 2994;
},
{
glyphname = "lla-tamil";
layers = (
{
anchors = (
{
name = imatra;
pos = (497,600);
},
{
name = top;
pos = (314,600);
}
);
layerId = "7BAC99B4-31F2-487C-BACA-69B20297995E";
shapes = (
{
closed = 1;
nodes = (
(168,-10,o),
(172,-6,o),
(172,0,cs),
(172,7,o),
(169,10,o),
(162,10,cs),
(101,15,o),
(60,58,o),
(60,122,cs),
(60,478,ls),
(60,545,o),
(105,590,o),
(172,590,cs),
(196,590,ls),
(260,590,o),
(307,548,o),
(307,473,cs),
(307,200,ls),
(307,200,o),
(327,200,o),
(327,200,cs),
(327,473,ls),
(327,558,o),
(269,610,o),
(196,610,cs),
(172,610,ls),
(96,610,o),
(40,554,o),
(40,478,cs),
(40,122,ls),
(40,49,o),
(92,-5,o),
(162,-10,cs)
);
},
{
closed = 1;
nodes = (
(220,-10,o),
(255,30,o),
(255,82,cs),
(255,118,ls),
(255,170,o),
(219,210,o),
(170,210,cs),
(121,210,o),
(85,170,o),
(85,118,cs),
(85,82,ls),
(85,30,o),
(121,-10,o),
(170,-10,cs)
);
},
{
closed = 1;
nodes = (
(131,10,o),
(105,39,o),
(105,82,cs),
(105,118,ls),
(105,161,o),
(131,190,o),
(170,190,cs),
(209,190,o),
(235,161,o),
(235,118,cs),
(235,82,ls),
(235,39,o),
(209,10,o),
(170,10,cs)
);
},
{
closed = 1;
nodes = (
(487,-10,o),
(507,-10,o),
(507,-10,cs),
(507,600,ls),
(507,606,o),
(504,610,o),
(497,610,cs),
(307,610,l),
(307,200,l),
(307,200,o),
(327,200,o),
(327,200,cs),
(327,590,l),
(487,590,l),
(487,-10,ls)
);
},
{
closed = 1;
nodes = (
(597,590,ls),
(597,590,o),
(597,610,o),
(597,610,cs),
(407,610,ls),
(401,610,o),
(397,606,o),
(397,600,cs),
(397,594,o),
(401,590,o),
(407,590,cs)
);
}
);
width = 637;
}
);
metricLeft = "ca-tamil";
metricRight = "ca-tamil";
unicode = 2995;
},
{
glyphname = "llla-tamil";
layers = (
{
anchors = (
{
name = imatra;
pos = (313,600);
},
{
name = top;
pos = (225,600);
}
);
layerId = "7BAC99B4-31F2-487C-BACA-69B20297995E";
shapes = (
{
closed = 1;
nodes = (
(230,-309,o),
(271,-267,o),
(272,-212,cs),
(272,-165,o),
(303,-133,o),
(349,-133,cs),
(370,-133,l),
(370,-113,l),
(317,-113,ls),
(268,-113,o),
(235,-80,o),
(235,-31,cs),
(235,-10,l),
(311,-10,ls),
(367,-10,o),
(410,33,o),
(410,89,cs),
(410,511,ls),
(410,567,o),
(368,610,o),
(313,610,cs),
(258,610,o),
(215,567,o),
(215,511,cs),
(215,10,l),
(60,10,l),
(60,610,l),
(40,610,l),
(40,-10,l),
(215,-10,l),
(215,-31,ls),
(215,-81,o),
(247,-120,o),
(293,-130,c),
(268,-148,o),
(253,-176,o),
(252,-210,cs),
(252,-257,o),
(221,-289,o),
(175,-289,cs),
(129,-289,o),
(97,-257,o),
(97,-210,c),
(77,-210,l),
(77,-266,o),
(120,-309,o),
(175,-309,cs)
);
},
{
closed = 1;
nodes = (
(235,511,ls),
(235,558,o),
(267,590,o),
(313,590,cs),
(359,590,o),
(390,558,o),
(390,511,cs),
(390,89,ls),
(390,42,o),
(358,10,o),
(311,10,cs),
(235,10,l)
);
}
);
width = 450;
}
);
metricLeft = "ca-tamil";
metricRight = "ca-tamil";
unicode = 2996;
},
{
glyphname = "va-tamil";
layers = (
{
anchors = (
{
name = imatra;
pos = (420,540);
},
{
name = top;
pos = (320,600);
}
);
layerId = "7BAC99B4-31F2-487C-BACA-69B20297995E";
shapes = (
{
closed = 1;
nodes = (
(430,-10,l),
(430,600,l),
(410,600,l),
(410,10,l),
(110,10,ls),
(85,10,o),
(69,25,o),
(69,50,cs),
(69,75,o),
(85,90,o),
(110,90,cs),
(198,90,ls),
(274,90,o),
(330,146,o),
(330,222,cs),
(330,478,ls),
(330,554,o),
(274,610,o),
(198,610,cs),
(172,610,ls),
(96,610,o),
(40,554,o),
(40,478,cs),
(40,278,ls),
(40,226,o),
(76,186,o),
(125,186,cs),
(175,186,o),
(210,226,o),
(210,278,cs),
(210,314,ls),
(210,366,o),
(174,406,o),
(125,406,cs),
(98,406,o),
(75,394,o),
(60,375,c),
(60,478,ls),
(60,545,o),
(105,590,o),
(172,590,cs),
(198,590,ls),
(265,590,o),
(310,545,o),
(310,478,cs),
(310,222,ls),
(310,155,o),
(265,110,o),
(198,110,cs),
(110,110,ls),
(76,110,o),
(49,84,o),
(49,50,cs),
(49,16,o),
(76,-10,o),
(110,-10,cs)
);
},
{
closed = 1;
nodes = (
(86,206,o),
(60,235,o),
(60,278,cs),
(60,314,ls),
(60,357,o),
(86,386,o),
(125,386,cs),
(164,386,o),
(190,357,o),
(190,314,cs),
(190,278,ls),
(190,235,o),
(164,206,o),
(125,206,cs)
);
}
);
width = 470;
}
);
metricLeft = "ca-tamil";
metricRight = "ca-tamil";
unicode = 2997;
},
{
glyphname = "sha-tamil";
lastChange = "2023-04-29 09:46:55 +0000";
layers = (
{
anchors = (
{
name = imatra;
pos = (510,600);
},
{
name = top;
pos = (285,600);
}
);
layerId = "7BAC99B4-31F2-487C-BACA-69B20297995E";
shapes = (
{
closed = 1;
nodes = (
(198,-10,o),
(240,34,o),
(240,92,cs),
(240,590,l),
(320,590,l),
(320,92,ls),
(320,34,o),
(362,-10,o),
(420,-10,cs),
(478,-10,o),
(520,34,o),
(520,92,c),
(520,610,l),
(220,610,l),
(220,92,l),
(220,43,o),
(188,10,o),
(140,10,cs),
(92,10,o),
(60,43,o),
(60,92,cs),
(60,610,l),
(40,610,l),
(40,92,ls),
(40,34,o),
(82,-10,o),
(140,-10,cs)
);
},
{
closed = 1;
nodes = (
(372,10,o),
(340,43,o),
(340,92,cs),
(340,590,l),
(500,590,l),
(500,92,ls),
(500,43,o),
(468,10,o),
(420,10,cs)
);
}
);
width = 560;
}
);
metricLeft = "ca-tamil";
metricRight = "ca-tamil";
unicode = 2998;
},
{
glyphname = "ssa-tamil";
lastChange = "2023-04-29 09:46:55 +0000";
layers = (
{
anchors = (
{
name = imatra;
pos = (450,280);
},
{
name = top;
pos = (330,600);
}
);
layerId = "7BAC99B4-31F2-487C-BACA-69B20297995E";
shapes = (
{
closed = 1;
nodes = (
(540,-300,l),
(540,-10,l),
(620,-10,l),
(620,10,l),
(540,10,l),
(540,198,ls),
(540,251,o),
(501,290,o),
(450,290,cs),
(399,290,o),
(360,251,o),
(360,198,cs),
(360,82,ls),
(360,52,o),
(372,26,o),
(391,10,c),
(110,10,ls),
(85,10,o),
(69,25,o),
(69,50,cs),
(69,75,o),
(85,90,o),
(110,90,cs),
(198,90,ls),
(274,90,o),
(330,146,o),
(330,222,cs),
(330,478,ls),
(330,554,o),
(274,610,o),
(198,610,cs),
(172,610,ls),
(96,610,o),
(40,554,o),
(40,478,cs),
(40,278,ls),
(40,226,o),
(76,186,o),
(125,186,cs),
(175,186,o),
(210,226,o),
(210,278,cs),
(210,314,ls),
(210,366,o),
(174,406,o),
(125,406,cs),
(98,406,o),
(75,394,o),
(60,374,c),
(60,478,ls),
(60,545,o),
(105,590,o),
(172,590,cs),
(198,590,ls),
(265,590,o),
(310,545,o),
(310,478,cs),
(310,222,ls),
(310,155,o),
(265,110,o),
(198,110,cs),
(110,110,ls),
(76,110,o),
(49,84,o),
(49,50,cs),
(49,16,o),
(76,-10,o),
(110,-10,cs),
(520,-10,l),
(520,-300,l)
);
},
{
closed = 1;
nodes = (
(86,206,o),
(60,235,o),
(60,278,cs),
(60,314,ls),
(60,357,o),
(86,386,o),
(125,386,cs),
(164,386,o),
(190,357,o),
(190,314,cs),
(190,278,ls),
(190,235,o),
(164,206,o),
(125,206,cs)
);
},
{
closed = 1;
nodes = (
(408,10,o),
(380,38,o),
(380,82,cs),
(380,198,ls),
(380,242,o),
(408,270,o),
(450,270,cs),
(492,270,o),
(520,242,o),
(520,198,cs),
(520,10,l),
(444,10,ls)
);
}
);
width = 660;
}
);
metricLeft = "ca-tamil";
metricRight = "ca-tamil";
unicode = 2999;
},
{
glyphname = "sa-tamil";
lastChange = "2023-04-29 09:46:55 +0000";
layers = (
{
anchors = (
{
name = imatra;
pos = (507,600);
},
{
name = top;
pos = (314,600);
}
);
layerId = "7BAC99B4-31F2-487C-BACA-69B20297995E";
shapes = (
{
closed = 1;
nodes = (
(172,-10,ls),
(221,-9,o),
(255,31,o),
(255,82,cs),
(255,118,ls),
(255,170,o),
(219,210,o),
(170,210,cs),
(121,210,o),
(85,170,o),
(85,118,cs),
(85,82,ls),
(85,66,o),
(88,50,o),
(95,38,c),
(73,57,o),
(60,86,o),
(60,122,cs),
(60,478,ls),
(60,545,o),
(105,590,o),
(172,590,cs),
(196,590,ls),
(260,590,o),
(307,548,o),
(307,473,cs),
(307,76,l),
(327,76,l),
(327,473,ls),
(327,492,o),
(324,509,o),
(319,524,c),
(319,564,o),
(345,590,o),
(384,590,cs),
(423,590,o),
(449,564,o),
(449,524,cs),
(449,76,ls),
(449,27,o),
(486,-10,o),
(534,-10,cs),
(582,-10,o),
(619,27,o),
(619,76,cs),
(619,523,ls),
(619,572,o),
(582,610,o),
(533,610,cs),
(497,610,ls),
(497,610,o),
(497,590,o),
(497,590,cs),
(533,590,ls),
(573,590,o),
(599,563,o),
(599,523,cs),
(599,76,ls),
(599,36,o),
(573,10,o),
(534,10,cs),
(495,10,o),
(469,36,o),
(469,76,cs),
(469,524,ls),
(469,573,o),
(432,610,o),
(384,610,cs),
(346,610,o),
(316,588,o),
(304,555,c),
(281,590,o),
(241,610,o),
(196,610,cs),
(172,610,ls),
(96,610,o),
(40,554,o),
(40,478,cs),
(40,122,ls),
(40,48,o),
(92,-6,o),
(164,-10,cs),
(166,-10,o),
(168,-10,o),
(170,-10,cs)
);
},
{
closed = 1;
nodes = (
(129,13,o),
(105,41,o),
(105,82,cs),
(105,118,ls),
(105,161,o),
(132,190,o),
(170,190,cs),
(208,190,o),
(235,161,o),
(235,118,cs),
(235,82,ls),
(235,39,o),
(210,10,o),
(171,10,cs),
(164,10,ls)
);
}
);
width = 659;
}
);
metricLeft = "ca-tamil";
metricRight = "ca-tamil";
unicode = 3000;
},
{
glyphname = "ha-tamil";
layers = (
{
anchors = (
{
name = imatra;
pos = (631,601);
},
{
name = top;
pos = (400,600);
}
);
layerId = "7BAC99B4-31F2-487C-BACA-69B20297995E";
shapes = (
{
closed = 1;
nodes = (
(380,-301,l),
(380,-214,ls),
(380,-121,o),
(439,-62,o),
(523,-62,cs),
(572,-62,ls),
(705,-62,o),
(740,-4,o),
(740,225,cs),
(740,369,ls),
(740,506,o),
(735,610,o),
(631,610,cs),
(588,610,o),
(563,591,o),
(550,564,c),
(536,592,o),
(508,609,o),
(475,609,cs),
(427,609,o),
(390,572,o),
(390,523,cs),
(390,10,l),
(110,10,ls),
(85,10,o),
(69,25,o),
(69,50,cs),
(69,75,o),
(85,90,o),
(110,90,cs),
(198,90,ls),
(274,90,o),
(330,146,o),
(330,222,cs),
(330,478,ls),
(330,554,o),
(274,610,o),
(198,610,cs),
(172,610,ls),
(96,610,o),
(40,554,o),
(40,478,cs),
(40,278,ls),
(40,226,o),
(76,186,o),
(125,186,cs),
(175,186,o),
(210,226,o),
(210,278,cs),
(210,314,ls),
(210,366,o),
(174,406,o),
(125,406,cs),
(98,406,o),
(75,394,o),
(60,375,c),
(60,478,ls),
(60,545,o),
(105,590,o),
(172,590,cs),
(198,590,ls),
(265,590,o),
(310,545,o),
(310,478,cs),
(310,222,ls),
(310,155,o),
(265,110,o),
(198,110,cs),
(110,110,ls),
(76,110,o),
(49,84,o),
(49,50,cs),
(49,16,o),
(76,-10,o),
(110,-10,cs),
(410,-10,l),
(410,523,l),
(410,563,o),
(436,589,o),
(475,589,cs),
(514,589,o),
(540,563,o),
(540,523,cs),
(540,110,l),
(560,110,l),
(560,515,ls),
(560,558,o),
(577,590,o),
(631,590,cs),
(716,590,o),
(720,505,o),
(720,369,cs),
(720,225,ls),
(720,4,o),
(693,-42,o),
(572,-42,cs),
(523,-42,ls),
(430,-42,o),
(360,-112,o),
(360,-214,cs),
(360,-301,l)
);
},
{
closed = 1;
nodes = (
(86,206,o),
(60,235,o),
(60,278,cs),
(60,314,ls),
(60,357,o),
(86,386,o),
(125,386,cs),
(164,386,o),
(190,357,o),
(190,314,cs),
(190,278,ls),
(190,235,o),
(164,206,o),
(125,206,cs)
);
}
);
width = 780;
}
);
metricLeft = "ca-tamil";
metricRight = "ca-tamil";
unicode = 3001;
},
{
glyphname = "aytham-tamil";
layers = (
{
layerId = "7BAC99B4-31F2-487C-BACA-69B20297995E";
shapes = (
{
closed = 1;
nodes = (
(337,390,o),
(370,423,o),
(370,460,cs),
(370,497,o),
(337,530,o),
(300,530,cs),
(263,530,o),
(230,497,o),
(230,460,cs),
(230,423,o),
(263,390,o),
(300,390,cs)
);
},
{
closed = 1;
nodes = (
(147,-10,o),
(180,23,o),
(180,60,cs),
(180,97,o),
(147,130,o),
(110,130,cs),
(73,130,o),
(40,97,o),
(40,60,cs),
(40,23,o),
(73,-10,o),
(110,-10,cs)
);
},
{
closed = 1;
nodes = (
(82,10,o),
(60,32,o),
(60,60,cs),
(60,88,o),
(82,110,o),
(110,110,cs),
(138,110,o),
(160,88,o),
(160,60,cs),
(160,32,o),
(138,10,o),
(110,10,cs)
);
},
{
closed = 1;
nodes = (
(527,-10,o),
(560,23,o),
(560,60,cs),
(560,97,o),
(527,130,o),
(490,130,cs),
(453,130,o),
(420,97,o),
(420,60,cs),
(420,23,o),
(453,-10,o),
(490,-10,cs)
);
},
{
closed = 1;
nodes = (
(462,10,o),
(440,32,o),
(440,60,cs),
(440,88,o),
(462,110,o),
(490,110,cs),
(518,110,o),
(540,88,o),
(540,60,cs),
(540,32,o),
(518,10,o),
(490,10,cs)
);
},
{
closed = 1;
nodes = (
(272,410,o),
(250,432,o),
(250,460,cs),
(250,488,o),
(272,510,o),
(300,510,cs),
(328,510,o),
(350,488,o),
(350,460,cs),
(350,432,o),
(328,410,o),
(300,410,cs)
);
}
);
width = 600;
}
);
metricLeft = "ca-tamil";
metricRight = "ca-tamil";
unicode = 2947;
},
{
glyphname = "nga-tamil.001";
layers = (
{
anchors = (
{
name = imatra;
pos = (510,540);
},
{
name = top;
pos = (280,600);
}
);
layerId = "7BAC99B4-31F2-487C-BACA-69B20297995E";
shapes = (
{
closed = 1;
nodes = (
(520,-10,l),
(520,610,l),
(500,610,l),
(500,10,l),
(338,9,l),
(408,38,o),
(420,114,o),
(420,185,cs),
(420,272,o),
(397,355,o),
(311,355,cs),
(279,355,o),
(252,340,o),
(240,305,c),
(240,590,l),
(370,590,l),
(370,610,l),
(40,610,l),
(40,-10,l),
(60,-10,l),
(60,590,l),
(220,590,l),
(220,140,l),
(240,140,l),
(240,260,ls),
(240,302,o),
(271,335,o),
(311,335,cs),
(377,335,o),
(400,272,o),
(400,185,cs),
(400,86,o),
(374,10,o),
(252,8,c),
(252,-12,l)
);
}
);
width = 560;
}
);
metricLeft = "ca-tamil";
metricRight = "ca-tamil";
},
{
glyphname = "ten-tamil";
layers = (
{
layerId = "7BAC99B4-31F2-487C-BACA-69B20297995E";
shapes = (
{
closed = 1;
nodes = (
(181,-10,o),
(214,12,o),
(230,46,c),
(246,12,o),
(279,-10,o),
(320,-10,cs),
(377,-10,o),
(420,34,o),
(420,92,cs),
(420,548,ls),
(420,648,o),
(368,710,o),
(275,710,cs),
(194,710,o),
(150,646,o),
(150,588,c),
(170,588,l),
(170,637,o),
(203,690,o),
(275,690,cs),
(355,690,o),
(400,635,o),
(400,548,cs),
(400,92,ls),
(400,43,o),
(368,10,o),
(320,10,cs),
(272,10,o),
(240,43,o),
(240,92,cs),
(240,500,l),
(220,500,l),
(220,92,ls),
(220,43,o),
(188,10,o),
(140,10,cs),
(92,10,o),
(60,43,o),
(60,92,cs),
(60,500,l),
(40,500,l),
(40,92,ls),
(40,34,o),
(83,-10,o),
(140,-10,cs)
);
}
);
width = 460;
}
);
metricLeft = "ca-tamil";
metricRight = "ca-tamil";
unicode = 3056;
},
{
glyphname = "onehundred-tamil";
lastChange = "2023-04-29 09:46:55 +0000";
layers = (
{
layerId = "7BAC99B4-31F2-487C-BACA-69B20297995E";
shapes = (
{
closed = 1;
nodes = (
(60,-10,o),
(60,-10,cs),
(60,478,ls),
(60,545,o),
(105,590,o),
(172,590,cs),
(196,590,ls),
(260,590,o),
(307,548,o),
(307,473,cs),
(307,-10,ls),
(307,-10,o),
(327,-10,o),
(327,-10,cs),
(327,590,l),
(487,590,l),
(487,-10,ls),
(487,-10,o),
(507,-10,o),
(507,-10,cs),
(507,590,l),
(587,590,ls),
(587,590,o),
(587,610,o),
(587,610,cs),
(307,610,l),
(307,550,l),
(284,588,o),
(243,610,o),
(196,610,cs),
(172,610,ls),
(96,610,o),
(40,554,o),
(40,478,cs),
(40,-10,ls),
(40,-10,o)
);
}
);
width = 627;
}
);
metricLeft = "ca-tamil";
metricRight = "ca-tamil";
unicode = 3057;
},
{
glyphname = "onethousand-tamil";
layers = (
{
layerId = "7BAC99B4-31F2-487C-BACA-69B20297995E";
shapes = (
{
closed = 1;
nodes = (
(304,-190,l),
(304,-128,ls),
(304,-79,o),
(337,-46,o),
(386,-46,cs),
(415,-46,ls),
(488,-46,o),
(520,6,o),
(520,87,cs),
(520,172,o),
(492,220,o),
(427,220,cs),
(425,220,l),
(425,340,l),
(469,340,l),
(469,360,l),
(259,360,l),
(259,590,l),
(369,590,l),
(369,606,o),
(369,610,o),
(369,610,cs),
(119,610,l),
(119,357,l),
(75,346,o),
(40,303,o),
(40,248,cs),
(40,102,ls),
(40,38,o),
(87,-10,o),
(150,-10,cs),
(213,-10,o),
(260,38,o),
(260,102,cs),
(260,340,l),
(405,340,l),
(405,220,l),
(356,220,ls),
(316,220,o),
(285,189,o),
(285,149,cs),
(285,61,ls),
(285,21,o),
(316,-10,o),
(355,-10,cs),
(394,-10,o),
(425,21,o),
(425,61,cs),
(425,200,l),
(427,200,ls),
(479,200,o),
(500,165,o),
(500,87,cs),
(500,13,o),
(475,-26,o),
(415,-26,cs),
(386,-26,ls),
(328,-26,o),
(284,-70,o),
(284,-128,cs),
(284,-190,l)
);
},
{
closed = 1;
nodes = (
(96,10,o),
(60,47,o),
(60,102,cs),
(60,248,ls),
(60,303,o),
(97,340,o),
(142,340,cs),
(240,340,l),
(240,102,ls),
(240,47,o),
(204,10,o),
(150,10,cs)
);
},
{
closed = 1;
nodes = (
(325,10,o),
(305,30,o),
(305,61,cs),
(305,149,ls),
(305,180,o),
(325,200,o),
(356,200,cs),
(405,200,l),
(405,61,ls),
(405,30,o),
(385,10,o),
(355,10,cs)
);
},
{
closed = 1;
nodes = (
(139,590,l),
(239,590,l),
(239,360,l),
(139,360,l)
);
}
);
width = 560;
}
);
metricLeft = "ca-tamil";
metricRight = "ca-tamil";
unicode = 3058;
},
{
glyphname = "zero-tamil";
lastChange = "2023-04-29 09:46:55 +0000";
layers = (
{
layerId = "7BAC99B4-31F2-487C-BACA-69B20297995E";
shapes = (
{
closed = 1;
nodes = (
(227,-10,ls),
(320,-10,o),
(390,60,o),
(390,153,cs),
(390,447,ls),
(390,540,o),
(320,610,o),
(227,610,cs),
(203,610,ls),
(110,610,o),
(40,540,o),
(40,447,cs),
(40,153,ls),
(40,60,o),
(110,-10,o),
(203,-10,cs)
);
},
{
closed = 1;
nodes = (
(119,10,o),
(60,69,o),
(60,153,cs),
(60,447,ls),
(60,531,o),
(119,590,o),
(203,590,cs),
(227,590,ls),
(311,590,o),
(370,531,o),
(370,447,cs),
(370,153,ls),
(370,69,o),
(311,10,o),
(227,10,cs),
(203,10,ls)
);
}
);
width = 430;
}
);
metricLeft = "ca-tamil";
metricRight = "ca-tamil";
unicode = 3046;
},
{
glyphname = "one-tamil";
layers = (
{
layerId = "7BAC99B4-31F2-487C-BACA-69B20297995E";
shapes = (
{
closed = 1;
nodes = (
(177,-10,o),
(202,-1,o),
(220,14,c),
(247,-4,o),
(276,-10,o),
(300,-10,cs),
(392,-10,o),
(420,74,o),
(420,175,cs),
(420,275,o),
(392,360,o),
(290,360,cs),
(260,360,l),
(260,590,l),
(370,590,l),
(370,610,l),
(120,610,l),
(120,357,l),
(75,347,o),
(40,303,o),
(40,248,cs),
(40,102,ls),
(40,38,o),
(87,-10,o),
(150,-10,cs)
);
},
{
closed = 1;
nodes = (
(96,10,o),
(60,47,o),
(60,102,cs),
(60,248,ls),
(60,303,o),
(97,340,o),
(142,340,cs),
(240,340,l),
(240,102,ls),
(240,47,o),
(204,10,o),
(150,10,cs)
);
},
{
closed = 1;
nodes = (
(279,10,o),
(257,14,o),
(235,29,c),
(251,48,o),
(260,73,o),
(260,102,cs),
(260,340,l),
(290,340,ls),
(377,340,o),
(400,271,o),
(400,175,cs),
(400,79,o),
(377,10,o),
(300,10,cs)
);
},
{
closed = 1;
nodes = (
(140,590,l),
(240,590,l),
(240,360,l),
(140,360,l)
);
}
);
width = 460;
}
);
metricLeft = "ca-tamil";
metricRight = "ca-tamil";
unicode = 3047;
},
{
glyphname = "two-tamil";
layers = (
{
layerId = "7BAC99B4-31F2-487C-BACA-69B20297995E";
shapes = (
{
closed = 1;
nodes = (
(430,-10,l),
(430,10,l),
(110,10,ls),
(85,10,o),
(69,25,o),
(69,50,cs),
(69,75,o),
(85,90,o),
(110,90,cs),
(198,90,ls),
(274,90,o),
(330,146,o),
(330,222,cs),
(330,478,ls),
(330,554,o),
(274,610,o),
(198,610,cs),
(172,610,ls),
(96,610,o),
(40,554,o),
(40,478,cs),
(40,278,ls),
(40,226,o),
(76,186,o),
(125,186,cs),
(175,186,o),
(210,226,o),
(210,278,cs),
(210,314,ls),
(210,366,o),
(174,406,o),
(125,406,cs),
(98,406,o),
(75,394,o),
(60,375,c),
(60,478,ls),
(60,545,o),
(105,590,o),
(172,590,cs),
(198,590,ls),
(265,590,o),
(310,545,o),
(310,478,cs),
(310,222,ls),
(310,155,o),
(265,110,o),
(198,110,cs),
(110,110,ls),
(76,110,o),
(49,84,o),
(49,50,cs),
(49,16,o),
(76,-10,o),
(110,-10,cs)
);
},
{
closed = 1;
nodes = (
(86,206,o),
(60,235,o),
(60,278,cs),
(60,314,ls),
(60,357,o),
(86,386,o),
(125,386,cs),
(164,386,o),
(190,357,o),
(190,314,cs),
(190,278,ls),
(190,235,o),
(164,206,o),
(125,206,cs)
);
}
);
width = 470;
}
);
metricLeft = "ca-tamil";
metricRight = "ca-tamil";
unicode = 3048;
},
{
glyphname = "three-tamil";
layers = (
{
layerId = "7BAC99B4-31F2-487C-BACA-69B20297995E";
shapes = (
{
closed = 1;
nodes = (
(490,-10,l),
(490,10,l),
(338,9,l),
(408,38,o),
(420,114,o),
(420,185,cs),
(420,272,o),
(397,355,o),
(311,355,cs),
(279,355,o),
(252,340,o),
(240,305,c),
(240,590,l),
(370,590,l),
(370,610,l),
(40,610,l),
(40,-10,l),
(60,-10,l),
(60,590,l),
(220,590,l),
(220,140,l),
(240,140,l),
(240,260,ls),
(240,302,o),
(271,335,o),
(311,335,cs),
(377,335,o),
(400,272,o),
(400,185,cs),
(400,86,o),
(374,10,o),
(252,8,c),
(252,-12,l)
);
}
);
width = 530;
}
);
metricLeft = "ca-tamil";
metricRight = "ca-tamil";
unicode = 3049;
},
{
glyphname = "four-tamil";
lastChange = "2023-04-29 09:46:55 +0000";
layers = (
{
anchors = (
{
name = imatra;
pos = (205,600);
},
{
name = top;
pos = (205,600);
}
);
layerId = "7BAC99B4-31F2-487C-BACA-69B20297995E";
shapes = (
{
closed = 1;
nodes = (
(214,-10,o),
(260,38,o),
(260,102,cs),
(260,340,l),
(370,340,l),
(370,360,l),
(260,360,l),
(260,590,l),
(370,590,l),
(370,610,l),
(120,610,l),
(120,357,l),
(76,346,o),
(40,304,o),
(40,248,cs),
(40,102,ls),
(40,38,o),
(86,-10,o),
(150,-10,cs)
);
},
{
closed = 1;
nodes = (
(96,10,o),
(60,47,o),
(60,102,cs),
(60,248,ls),
(60,303,o),
(97,340,o),
(142,340,cs),
(240,340,l),
(240,102,ls),
(240,47,o),
(204,10,o),
(150,10,cs)
);
},
{
closed = 1;
nodes = (
(140,590,l),
(240,590,l),
(240,360,l),
(140,360,l)
);
},
{
closed = 1;
nodes = (
(350,340,l),
(370,340,l),
(370,500,l),
(350,500,l)
);
}
);
width = 410;
}
);
metricLeft = "ca-tamil";
metricRight = "ca-tamil";
unicode = 3050;
},
{
glyphname = "five-tamil";
layers = (
{
layerId = "7BAC99B4-31F2-487C-BACA-69B20297995E";
shapes = (
{
closed = 1;
nodes = (
(500,185,l),
(500,104,ls),
(500,-38,o),
(428,-130,o),
(280,-130,cs),
(132,-130,o),
(60,-38,o),
(60,104,cs),
(60,576,ls),
(60,718,o),
(152,790,o),
(280,790,cs),
(408,790,o),
(500,718,o),
(500,576,cs),
(500,540,l),
(520,540,l),
(520,576,ls),
(520,727,o),
(417,810,o),
(280,810,cs),
(143,810,o),
(40,727,o),
(40,576,cs),
(40,104,ls),
(40,-47,o),
(123,-150,o),
(280,-150,cs),
(437,-150,o),
(520,-47,o),
(520,104,cs),
(520,185,l)
);
},
{
closed = 1;
nodes = (
(520,185,l),
(520,272,o),
(497,355,o),
(411,355,cs),
(379,355,o),
(352,340,o),
(340,305,c),
(340,590,l),
(440,590,l),
(440,610,l),
(140,610,l),
(140,80,l),
(160,80,l),
(160,590,l),
(320,590,l),
(320,140,l),
(340,140,l),
(340,260,ls),
(340,302,o),
(371,335,o),
(411,335,cs),
(477,335,o),
(500,272,o),
(500,185,c)
);
}
);
width = 560;
}
);
metricLeft = "ca-tamil";
metricRight = "ca-tamil";
unicode = 3051;
},
{
glyphname = "six-tamil";
lastChange = "2023-04-29 09:46:55 +0000";
layers = (
{
layerId = "7BAC99B4-31F2-487C-BACA-69B20297995E";
shapes = (
{
closed = 1;
nodes = (
(214,-10,o),
(260,38,o),
(260,102,cs),
(260,340,l),
(268,340,ls),
(317,340,o),
(350,307,o),
(350,258,cs),
(350,-10,ls),
(350,-10,o),
(370,-10,o),
(370,-10,cs),
(370,340,l),
(500,340,l),
(500,-10,ls),
(500,-10,o),
(520,-10,o),
(520,-10,cs),
(520,340,l),
(600,340,l),
(600,360,l),
(350,360,l),
(350,320,l),
(332,345,o),
(302,360,o),
(268,360,cs),
(260,360,l),
(260,590,l),
(370,590,l),
(370,610,l),
(120,610,l),
(120,357,l),
(76,346,o),
(40,304,o),
(40,248,cs),
(40,102,ls),
(40,38,o),
(86,-10,o),
(150,-10,cs)
);
},
{
closed = 1;
nodes = (
(96,10,o),
(60,47,o),
(60,102,cs),
(60,248,ls),
(60,303,o),
(97,340,o),
(142,340,cs),
(240,340,l),
(240,102,ls),
(240,47,o),
(204,10,o),
(150,10,cs)
);
},
{
closed = 1;
nodes = (
(140,590,l),
(240,590,l),
(240,360,l),
(140,360,l)
);
}
);
width = 640;
}
);
metricLeft = "ca-tamil";
metricRight = "ca-tamil";
unicode = 3052;
},
{
glyphname = "seven-tamil";
layers = (
{
layerId = "7BAC99B4-31F2-487C-BACA-69B20297995E";
shapes = (
{
closed = 1;
nodes = (
(360,0,o),
(380,0,o),
(380,0,cs),
(380,600,ls),
(380,606,o),
(376,610,o),
(370,610,cs),
(254,610,ls),
(131,610,o),
(40,519,o),
(40,396,cs),
(40,175,ls),
(40,175,o),
(60,175,o),
(60,175,cs),
(60,396,ls),
(60,510,o),
(140,590,o),
(254,590,cs),
(360,590,l),
(360,0,ls)
);
},
{
closed = 1;
nodes = (
(199,40,o),
(240,87,o),
(240,148,cs),
(240,192,ls),
(240,253,o),
(198,300,o),
(140,300,cs),
(82,300,o),
(40,253,o),
(40,192,cs),
(40,148,ls),
(40,87,o),
(82,40,o),
(140,40,cs)
);
},
{
closed = 1;
nodes = (
(92,60,o),
(60,96,o),
(60,148,cs),
(60,192,ls),
(60,244,o),
(92,280,o),
(140,280,cs),
(188,280,o),
(220,244,o),
(220,192,cs),
(220,148,ls),
(220,96,o),
(188,60,o),
(140,60,cs)
);
},
{
closed = 1;
nodes = (
(490,590,l),
(490,610,l),
(310,610,ls),
(304,610,o),
(300,606,o),
(300,600,cs),
(300,594,o),
(304,590,o),
(310,590,cs)
);
}
);
width = 530;
}
);
metricLeft = "ca-tamil";
metricRight = "ca-tamil";
unicode = 3053;
},
{
glyphname = "eight-tamil";
layers = (
{
layerId = "7BAC99B4-31F2-487C-BACA-69B20297995E";
shapes = (
{
closed = 1;
nodes = (
(228,-10,ls),
(304,-10,o),
(360,46,o),
(360,122,cs),
(360,240,l),
(420,240,l),
(420,-10,l),
(440,-10,l),
(440,460,l),
(420,460,l),
(420,260,l),
(360,260,l),
(360,478,ls),
(360,554,o),
(304,610,o),
(210,610,cs),
(116,610,o),
(60,554,o),
(60,478,cs),
(60,403,ls),
(60,340,o),
(92,287,o),
(142,260,c),
(40,260,l),
(40,122,ls),
(40,46,o),
(86,-10,o),
(172,-10,cs)
);
},
{
closed = 1;
nodes = (
(95,10,o),
(60,55,o),
(60,122,cs),
(60,240,l),
(340,240,l),
(340,122,ls),
(340,55,o),
(295,10,o),
(228,10,cs),
(172,10,ls)
);
},
{
closed = 1;
nodes = (
(139,260,o),
(80,319,o),
(80,403,cs),
(80,478,ls),
(80,545,o),
(125,590,o),
(210,590,cs),
(295,590,o),
(340,545,o),
(340,478,cs),
(340,260,l),
(223,260,ls)
);
}
);
width = 480;
}
);
metricLeft = "ca-tamil";
metricRight = "ca-tamil";
unicode = 3054;
},
{
glyphname = "nine-tamil";
layers = (
{
layerId = "7BAC99B4-31F2-487C-BACA-69B20297995E";
shapes = (
{
closed = 1;
nodes = (
(213,-10,o),
(260,38,o),
(260,102,cs),
(260,340,l),
(335,340,l),
(316,323,o),
(304,298,o),
(304,268,cs),
(304,242,ls),
(304,190,o),
(340,150,o),
(389,150,cs),
(439,150,o),
(474,190,o),
(474,242,cs),
(474,268,ls),
(474,298,o),
(462,323,o),
(443,340,c),
(447,340,ls),
(531,340,o),
(590,281,o),
(590,197,cs),
(590,153,ls),
(590,69,o),
(531,10,o),
(447,10,cs),
(304,10,l),
(304,-10,l),
(447,-10,ls),
(540,-10,o),
(610,60,o),
(610,153,cs),
(610,197,ls),
(610,290,o),
(540,360,o),
(447,360,cs),
(260,360,l),
(260,590,l),
(370,590,l),
(370,610,l),
(120,610,l),
(120,357,l),
(75,347,o),
(40,303,o),
(40,248,cs),
(40,102,ls),
(40,38,o),
(87,-10,o),
(150,-10,cs)
);
},
{
closed = 1;
nodes = (
(96,10,o),
(60,47,o),
(60,102,cs),
(60,248,ls),
(60,303,o),
(97,340,o),
(142,340,cs),
(240,340,l),
(240,102,ls),
(240,47,o),
(204,10,o),
(150,10,cs)
);
},
{
closed = 1;
nodes = (
(350,170,o),
(324,199,o),
(324,242,cs),
(324,268,ls),
(324,311,o),
(350,340,o),
(389,340,cs),
(428,340,o),
(454,311,o),
(454,268,cs),
(454,242,ls),
(454,199,o),
(428,170,o),
(389,170,cs)
);
},
{
closed = 1;
nodes = (
(140,590,l),
(240,590,l),
(240,360,l),
(140,360,l)
);
}
);
width = 650;
}
);
metricLeft = "ca-tamil";
metricRight = "ca-tamil";
unicode = 3055;
},
{
glyphname = zero;
layers = (
{
layerId = "7BAC99B4-31F2-487C-BACA-69B20297995E";
shapes = (
{
closed = 1;
nodes = (
(280,0,o),
(350,70,o),
(350,163,cs),
(350,437,ls),
(350,530,o),
(280,600,o),
(195,600,cs),
(110,600,o),
(40,530,o),
(40,437,cs),
(40,163,ls),
(40,70,o),
(110,0,o),
(195,0,cs)
);
},
{
closed = 1;
nodes = (
(119,20,o),
(60,79,o),
(60,163,cs),
(60,437,ls),
(60,521,o),
(119,580,o),
(195,580,cs),
(271,580,o),
(330,521,o),
(330,437,cs),
(330,163,ls),
(330,79,o),
(271,20,o),
(195,20,cs)
);
}
);
width = 390;
}
);
metricLeft = "ca-tamil";
metricRight = "ca-tamil";
unicode = 48;
},
{
glyphname = one;
layers = (
{
layerId = "7BAC99B4-31F2-487C-BACA-69B20297995E";
shapes = (
{
closed = 1;
nodes = (
(184,0,l),
(184,600,l),
(161,600,l),
(40,391,l),
(58,381,l),
(164,570,l),
(164,0,l)
);
}
);
width = 224;
}
);
metricLeft = "ca-tamil";
metricRight = "ca-tamil";
unicode = 49;
},
{
glyphname = two;
layers = (
{
layerId = "7BAC99B4-31F2-487C-BACA-69B20297995E";
shapes = (
{
closed = 1;
nodes = (
(330,0,l),
(330,70,l),
(310,70,l),
(310,20,l),
(110,20,ls),
(85,20,o),
(69,35,o),
(69,60,cs),
(69,85,o),
(85,100,o),
(110,100,cs),
(198,100,ls),
(274,100,o),
(330,156,o),
(330,232,cs),
(330,468,ls),
(330,544,o),
(274,600,o),
(198,600,cs),
(172,600,ls),
(96,600,o),
(40,544,o),
(40,468,cs),
(40,315,l),
(60,315,l),
(60,468,ls),
(60,535,o),
(105,580,o),
(172,580,cs),
(198,580,ls),
(265,580,o),
(310,535,o),
(310,468,cs),
(310,232,ls),
(310,165,o),
(265,120,o),
(198,120,cs),
(110,120,ls),
(76,120,o),
(49,94,o),
(49,60,cs),
(49,26,o),
(76,0,o),
(110,0,cs)
);
}
);
width = 370;
}
);
metricLeft = "ca-tamil";
metricRight = "ca-tamil";
unicode = 50;
},
{
glyphname = three;
layers = (
{
layerId = "7BAC99B4-31F2-487C-BACA-69B20297995E";
shapes = (
{
closed = 1;
nodes = (
(198,0,ls),
(274,0,o),
(330,56,o),
(330,132,cs),
(330,168,ls),
(330,225,o),
(299,271,o),
(251,290,c),
(299,309,o),
(330,355,o),
(330,412,cs),
(330,468,ls),
(330,544,o),
(274,600,o),
(198,600,cs),
(172,600,ls),
(96,600,o),
(40,544,o),
(40,468,cs),
(40,415,l),
(60,415,l),
(60,468,ls),
(60,535,o),
(105,580,o),
(172,580,cs),
(198,580,ls),
(265,580,o),
(310,535,o),
(310,468,cs),
(310,412,ls),
(310,345,o),
(265,300,o),
(198,300,cs),
(130,300,l),
(130,280,l),
(198,280,ls),
(265,280,o),
(310,235,o),
(310,168,cs),
(310,132,ls),
(310,65,o),
(265,20,o),
(198,20,cs),
(172,20,ls),
(105,20,o),
(60,65,o),
(60,132,cs),
(60,175,l),
(40,175,l),
(40,132,ls),
(40,56,o),
(96,0,o),
(172,0,cs)
);
}
);
width = 370;
}
);
metricLeft = "ca-tamil";
metricRight = "ca-tamil";
unicode = 51;
},
{
glyphname = four;
layers = (
{
layerId = "7BAC99B4-31F2-487C-BACA-69B20297995E";
shapes = (
{
closed = 1;
nodes = (
(293,0,l),
(293,170,l),
(353,170,l),
(353,190,l),
(293,190,l),
(293,600,l),
(270,600,l),
(40,170,l),
(273,170,l),
(273,0,l)
);
},
{
closed = 1;
nodes = (
(273,565,l),
(273,190,l),
(77,190,l)
);
}
);
width = 393;
}
);
metricLeft = "ca-tamil";
metricRight = "ca-tamil";
unicode = 52;
},
{
glyphname = five;
lastChange = "2023-04-29 09:46:55 +0000";
layers = (
{
layerId = "7BAC99B4-31F2-487C-BACA-69B20297995E";
shapes = (
{
closed = 1;
nodes = (
(198,0,ls),
(274,0,o),
(330,56,o),
(330,132,cs),
(330,258,ls),
(330,334,o),
(274,390,o),
(198,390,cs),
(172,390,ls),
(127,390,o),
(68,367,o),
(60,324,c),
(79,580,l),
(310,580,l),
(310,530,l),
(330,530,l),
(330,600,l),
(64,600,l),
(40,268,l),
(60,268,l),
(61,279,ls),
(68,341,o),
(111,370,o),
(172,370,cs),
(198,370,ls),
(265,370,o),
(310,325,o),
(310,258,cs),
(310,132,ls),
(310,65,o),
(265,20,o),
(198,20,cs),
(172,20,ls),
(105,20,o),
(60,65,o),
(60,132,cs),
(60,165,l),
(40,165,l),
(40,132,ls),
(40,56,o),
(96,0,o),
(172,0,cs)
);
}
);
width = 370;
}
);
metricLeft = "ca-tamil";
metricRight = "ca-tamil";
unicode = 53;
},
{
glyphname = six;
lastChange = "2023-04-29 09:46:55 +0000";
layers = (
{
layerId = "7BAC99B4-31F2-487C-BACA-69B20297995E";
shapes = (
{
closed = 1;
nodes = (
(280,0,o),
(350,70,o),
(350,163,cs),
(350,187,ls),
(350,280,o),
(280,350,o),
(195,350,cs),
(137,350,o),
(87,318,o),
(60,268,c),
(60,437,ls),
(60,521,o),
(119,580,o),
(195,580,cs),
(271,580,o),
(330,521,o),
(330,437,c),
(350,437,l),
(350,530,o),
(280,600,o),
(195,600,cs),
(110,600,o),
(40,530,o),
(40,437,cs),
(40,163,ls),
(40,70,o),
(110,0,o),
(195,0,cs)
);
},
{
closed = 1;
nodes = (
(119,20,o),
(60,79,o),
(60,163,cs),
(60,187,ls),
(60,271,o),
(119,330,o),
(195,330,cs),
(271,330,o),
(330,271,o),
(330,187,cs),
(330,163,ls),
(330,79,o),
(271,20,o),
(195,20,cs)
);
}
);
width = 390;
}
);
metricLeft = "ca-tamil";
metricRight = "ca-tamil";
unicode = 54;
},
{
glyphname = seven;
layers = (
{
layerId = "7BAC99B4-31F2-487C-BACA-69B20297995E";
shapes = (
{
closed = 1;
nodes = (
(59,0,l),
(401,600,l),
(40,600,l),
(40,470,l),
(60,470,l),
(60,580,l),
(368,580,l),
(41,10,l)
);
}
);
width = 426;
}
);
metricLeft = "ca-tamil";
unicode = 55;
},
{
glyphname = eight;
layers = (
{
layerId = "7BAC99B4-31F2-487C-BACA-69B20297995E";
shapes = (
{
closed = 1;
nodes = (
(218,0,ls),
(304,0,o),
(360,56,o),
(360,142,cs),
(360,173,ls),
(360,238,o),
(329,285,o),
(276,305,c),
(329,325,o),
(360,372,o),
(360,437,cs),
(360,468,ls),
(360,554,o),
(304,610,o),
(218,610,cs),
(182,610,ls),
(96,610,o),
(40,554,o),
(40,468,cs),
(40,437,ls),
(40,372,o),
(71,325,o),
(124,305,c),
(71,285,o),
(40,238,o),
(40,173,cs),
(40,142,ls),
(40,56,o),
(96,0,o),
(182,0,cs)
);
},
{
closed = 1;
nodes = (
(105,20,o),
(60,65,o),
(60,142,cs),
(60,173,ls),
(60,250,o),
(105,295,o),
(182,295,cs),
(218,295,ls),
(295,295,o),
(340,250,o),
(340,173,cs),
(340,142,ls),
(340,65,o),
(295,20,o),
(218,20,cs),
(182,20,ls)
);
},
{
closed = 1;
nodes = (
(105,315,o),
(60,360,o),
(60,437,cs),
(60,468,ls),
(60,545,o),
(105,590,o),
(182,590,cs),
(218,590,ls),
(295,590,o),
(340,545,o),
(340,468,cs),
(340,437,ls),
(340,360,o),
(295,315,o),
(218,315,cs),
(182,315,ls)
);
}
);
width = 400;
}
);
metricLeft = "ca-tamil";
metricRight = "ca-tamil";
unicode = 56;
},
{
glyphname = nine;
layers = (
{
layerId = "7BAC99B4-31F2-487C-BACA-69B20297995E";
shapes = (
{
closed = 1;
nodes = (
(110,600,o),
(40,530,o),
(40,437,cs),
(40,413,ls),
(40,320,o),
(110,250,o),
(195,250,cs),
(253,250,o),
(303,282,o),
(330,332,c),
(330,163,ls),
(330,79,o),
(271,20,o),
(195,20,cs),
(119,20,o),
(70,79,o),
(70,163,c),
(50,163,l),
(50,70,o),
(110,0,o),
(195,0,cs),
(280,0,o),
(350,70,o),
(350,163,cs),
(350,437,ls),
(350,530,o),
(280,600,o),
(195,600,cs)
);
},
{
closed = 1;
nodes = (
(271,580,o),
(330,521,o),
(330,437,cs),
(330,413,ls),
(330,329,o),
(271,270,o),
(195,270,cs),
(119,270,o),
(60,329,o),
(60,413,cs),
(60,437,ls),
(60,521,o),
(119,580,o),
(195,580,cs)
);
}
);
width = 390;
}
);
metricLeft = "ca-tamil";
metricRight = "ca-tamil";
unicode = 57;
},
{
glyphname = period;
layers = (
{
layerId = "7BAC99B4-31F2-487C-BACA-69B20297995E";
shapes = (
{
closed = 1;
nodes = (
(109,-8,o),
(145,9,o),
(156,39,cs),
(167,69,o),
(150,105,o),
(120,116,cs),
(89,127,o),
(54,110,o),
(43,80,cs),
(32,50,o),
(49,14,o),
(79,3,cs)
);
},
{
closed = 1;
nodes = (
(64,30,o),
(54,51,o),
(62,73,cs),
(70,95,o),
(91,105,o),
(113,97,cs),
(135,89,o),
(145,67,o),
(137,46,cs),
(129,24,o),
(107,14,o),
(86,22,cs)
);
}
);
width = 199;
}
);
metricLeft = "ca-tamil";
metricRight = "ca-tamil";
unicode = 46;
},
{
glyphname = comma;
layers = (
{
layerId = "7BAC99B4-31F2-487C-BACA-69B20297995E";
shapes = (
{
closed = 1;
nodes = (
(86,-95,l),
(104,-102,l),
(156,39,l),
(137,46,l)
);
},
{
closed = 1;
nodes = (
(109,-8,o),
(145,9,o),
(156,39,cs),
(167,69,o),
(150,105,o),
(120,116,cs),
(89,127,o),
(54,110,o),
(43,80,cs),
(32,50,o),
(49,14,o),
(79,3,cs)
);
},
{
closed = 1;
nodes = (
(64,30,o),
(54,51,o),
(62,73,cs),
(70,95,o),
(91,105,o),
(113,97,cs),
(135,89,o),
(145,67,o),
(137,46,cs),
(129,24,o),
(107,14,o),
(86,22,cs)
);
}
);
width = 199;
}
);
metricLeft = "ca-tamil";
metricRight = "ca-tamil";
unicode = 44;
},
{
glyphname = colon;
layers = (
{
layerId = "7BAC99B4-31F2-487C-BACA-69B20297995E";
shapes = (
{
closed = 1;
nodes = (
(109,342,o),
(145,359,o),
(156,389,cs),
(167,419,o),
(150,455,o),
(120,466,cs),
(89,477,o),
(54,460,o),
(43,430,cs),
(32,400,o),
(49,364,o),
(79,353,cs)
);
},
{
closed = 1;
nodes = (
(64,380,o),
(54,401,o),
(62,423,cs),
(70,445,o),
(91,455,o),
(113,447,cs),
(135,439,o),
(145,417,o),
(137,396,cs),
(129,374,o),
(107,364,o),
(86,372,cs)
);
},
{
closed = 1;
nodes = (
(109,-8,o),
(145,9,o),
(156,39,cs),
(167,69,o),
(150,105,o),
(120,116,cs),
(89,127,o),
(54,110,o),
(43,80,cs),
(32,50,o),
(49,14,o),
(79,3,cs)
);
},
{
closed = 1;
nodes = (
(64,30,o),
(54,51,o),
(62,73,cs),
(70,95,o),
(91,105,o),
(113,97,cs),
(135,89,o),
(145,67,o),
(137,46,cs),
(129,24,o),
(107,14,o),
(86,22,cs)
);
}
);
width = 199;
}
);
metricLeft = "ca-tamil";
metricRight = "ca-tamil";
unicode = 58;
},
{
glyphname = semicolon;
layers = (
{
layerId = "7BAC99B4-31F2-487C-BACA-69B20297995E";
shapes = (
{
closed = 1;
nodes = (
(109,342,o),
(145,359,o),
(156,389,cs),
(167,419,o),
(150,455,o),
(120,466,cs),
(89,477,o),
(54,460,o),
(43,430,cs),
(32,400,o),
(49,364,o),
(79,353,cs)
);
},
{
closed = 1;
nodes = (
(64,380,o),
(54,401,o),
(62,423,cs),
(70,445,o),
(91,455,o),
(113,447,cs),
(135,439,o),
(145,417,o),
(137,396,cs),
(129,374,o),
(107,364,o),
(86,372,cs)
);
},
{
closed = 1;
nodes = (
(86,-95,l),
(104,-102,l),
(156,39,l),
(137,46,l)
);
},
{
closed = 1;
nodes = (
(109,-8,o),
(145,9,o),
(156,39,cs),
(167,69,o),
(150,105,o),
(120,116,cs),
(89,127,o),
(54,110,o),
(43,80,cs),
(32,50,o),
(49,14,o),
(79,3,cs)
);
},
{
closed = 1;
nodes = (
(64,30,o),
(54,51,o),
(62,73,cs),
(70,95,o),
(91,105,o),
(113,97,cs),
(135,89,o),
(145,67,o),
(137,46,cs),
(129,24,o),
(107,14,o),
(86,22,cs)
);
}
);
width = 199;
}
);
metricLeft = "ca-tamil";
metricRight = "ca-tamil";
unicode = 59;
},
{
glyphname = exclam;
layers = (
{
layerId = "7BAC99B4-31F2-487C-BACA-69B20297995E";
shapes = (
{
closed = 1;
nodes = (
(100,160,l),
(100,600,l),
(80,600,l),
(80,160,l)
);
},
{
closed = 1;
nodes = (
(116,0,o),
(140,24,o),
(140,50,cs),
(140,76,o),
(116,100,o),
(90,100,cs),
(64,100,o),
(40,76,o),
(40,50,cs),
(40,24,o),
(64,0,o),
(90,0,cs)
);
},
{
closed = 1;
nodes = (
(71,15,o),
(55,31,o),
(55,50,cs),
(55,69,o),
(71,85,o),
(90,85,cs),
(109,85,o),
(125,69,o),
(125,50,cs),
(125,31,o),
(109,15,o),
(90,15,cs)
);
}
);
width = 180;
}
);
metricLeft = "ca-tamil";
metricRight = "ca-tamil";
unicode = 33;
},
{
glyphname = question;
layers = (
{
layerId = "7BAC99B4-31F2-487C-BACA-69B20297995E";
shapes = (
{
closed = 1;
nodes = (
(199,200,l),
(199,225,o),
(215,240,o),
(240,240,cs),
(298,240,o),
(330,283,o),
(330,352,cs),
(330,468,ls),
(330,544,o),
(274,600,o),
(198,600,cs),
(172,600,ls),
(96,600,o),
(40,544,o),
(40,468,cs),
(40,365,l),
(60,365,l),
(60,468,ls),
(60,535,o),
(105,580,o),
(172,580,cs),
(198,580,ls),
(265,580,o),
(310,535,o),
(310,468,cs),
(310,352,ls),
(310,298,o),
(283,260,o),
(240,260,cs),
(206,260,o),
(179,234,o),
(179,200,c)
);
},
{
closed = 1;
nodes = (
(216,0,o),
(240,24,o),
(240,50,cs),
(240,76,o),
(216,100,o),
(190,100,cs),
(164,100,o),
(140,76,o),
(140,50,cs),
(140,24,o),
(164,0,o),
(190,0,cs)
);
},
{
closed = 1;
nodes = (
(171,15,o),
(155,31,o),
(155,50,cs),
(155,69,o),
(171,85,o),
(190,85,cs),
(209,85,o),
(225,69,o),
(225,50,cs),
(225,31,o),
(209,15,o),
(190,15,cs)
);
},
{
closed = 1;
nodes = (
(179,160,l),
(199,160,l),
(199,200,l),
(179,200,l)
);
}
);
width = 370;
}
);
metricLeft = "ca-tamil";
metricRight = "ca-tamil";
unicode = 63;
},
{
glyphname = hyphen;
layers = (
{
layerId = "7BAC99B4-31F2-487C-BACA-69B20297995E";
shapes = (
{
closed = 1;
nodes = (
(210,290,l),
(210,310,l),
(40,310,ls),
(40,310,o),
(40,290,o),
(40,290,cs)
);
}
);
width = 250;
}
);
metricLeft = "ca-tamil";
metricRight = "ca-tamil";
unicode = 45;
},
{
glyphname = quotesinglbase;
layers = (
{
layerId = "7BAC99B4-31F2-487C-BACA-69B20297995E";
shapes = (
{
closed = 1;
nodes = (
(140,-90,l),
(160,-90,l),
(160,60,l),
(140,60,l)
);
},
{
closed = 1;
nodes = (
(132,0,o),
(160,28,o),
(160,60,cs),
(160,92,o),
(132,120,o),
(100,120,cs),
(67,120,o),
(40,92,o),
(40,60,cs),
(40,28,o),
(68,0,o),
(100,0,cs)
);
},
{
closed = 1;
nodes = (
(77,20,o),
(60,37,o),
(60,60,cs),
(60,83,o),
(77,100,o),
(100,100,cs),
(123,100,o),
(140,83,o),
(140,60,cs),
(140,37,o),
(123,20,o),
(100,20,cs)
);
}
);
width = 200;
}
);
metricLeft = "ca-tamil";
metricRight = "ca-tamil";
unicode = 8218;
},
{
glyphname = quotedblbase;
layers = (
{
layerId = "7BAC99B4-31F2-487C-BACA-69B20297995E";
shapes = (
{
closed = 1;
nodes = (
(140,-90,l),
(160,-90,l),
(160,60,l),
(140,60,l)
);
},
{
closed = 1;
nodes = (
(132,0,o),
(160,28,o),
(160,60,cs),
(160,92,o),
(132,120,o),
(100,120,cs),
(67,120,o),
(40,92,o),
(40,60,cs),
(40,28,o),
(68,0,o),
(100,0,cs)
);
},
{
closed = 1;
nodes = (
(77,20,o),
(60,37,o),
(60,60,cs),
(60,83,o),
(77,100,o),
(100,100,cs),
(123,100,o),
(140,83,o),
(140,60,cs),
(140,37,o),
(123,20,o),
(100,20,cs)
);
},
{
closed = 1;
nodes = (
(280,-90,l),
(300,-90,l),
(300,60,l),
(280,60,l)
);
},
{
closed = 1;
nodes = (
(272,0,o),
(300,28,o),
(300,60,cs),
(300,92,o),
(272,120,o),
(240,120,cs),
(207,120,o),
(180,92,o),
(180,60,cs),
(180,28,o),
(208,0,o),
(240,0,cs)
);
},
{
closed = 1;
nodes = (
(217,20,o),
(200,37,o),
(200,60,cs),
(200,83,o),
(217,100,o),
(240,100,cs),
(263,100,o),
(280,83,o),
(280,60,cs),
(280,37,o),
(263,20,o),
(240,20,cs)
);
}
);
width = 340;
}
);
metricLeft = "ca-tamil";
metricRight = "ca-tamil";
unicode = 8222;
},
{
glyphname = quotedblleft;
layers = (
{
layerId = "7BAC99B4-31F2-487C-BACA-69B20297995E";
shapes = (
{
closed = 1;
nodes = (
(200,810,l),
(180,810,l),
(180,660,l),
(200,660,l)
);
},
{
closed = 1;
nodes = (
(208,720,o),
(180,692,o),
(180,660,cs),
(180,628,o),
(208,600,o),
(240,600,cs),
(273,600,o),
(300,628,o),
(300,660,cs),
(300,692,o),
(272,720,o),
(240,720,cs)
);
},
{
closed = 1;
nodes = (
(263,700,o),
(280,683,o),
(280,660,cs),
(280,637,o),
(263,620,o),
(240,620,cs),
(217,620,o),
(200,637,o),
(200,660,cs),
(200,683,o),
(217,700,o),
(240,700,cs)
);
},
{
closed = 1;
nodes = (
(60,810,l),
(40,810,l),
(40,660,l),
(60,660,l)
);
},
{
closed = 1;
nodes = (
(68,720,o),
(40,692,o),
(40,660,cs),
(40,628,o),
(68,600,o),
(100,600,cs),
(133,600,o),
(160,628,o),
(160,660,cs),
(160,692,o),
(132,720,o),
(100,720,cs)
);
},
{
closed = 1;
nodes = (
(123,700,o),
(140,683,o),
(140,660,cs),
(140,637,o),
(123,620,o),
(100,620,cs),
(77,620,o),
(60,637,o),
(60,660,cs),
(60,683,o),
(77,700,o),
(100,700,cs)
);
}
);
width = 340;
}
);
metricLeft = "ca-tamil";
metricRight = "ca-tamil";
unicode = 8220;
},
{
glyphname = quotedblright;
layers = (
{
layerId = "7BAC99B4-31F2-487C-BACA-69B20297995E";
shapes = (
{
closed = 1;
nodes = (
(140,600,l),
(160,600,l),
(160,750,l),
(140,750,l)
);
},
{
closed = 1;
nodes = (
(132,690,o),
(160,718,o),
(160,750,cs),
(160,782,o),
(132,810,o),
(100,810,cs),
(67,810,o),
(40,782,o),
(40,750,cs),
(40,718,o),
(68,690,o),
(100,690,cs)
);
},
{
closed = 1;
nodes = (
(77,710,o),
(60,727,o),
(60,750,cs),
(60,773,o),
(77,790,o),
(100,790,cs),
(123,790,o),
(140,773,o),
(140,750,cs),
(140,727,o),
(123,710,o),
(100,710,cs)
);
},
{
closed = 1;
nodes = (
(280,600,l),
(300,600,l),
(300,750,l),
(280,750,l)
);
},
{
closed = 1;
nodes = (
(272,690,o),
(300,718,o),
(300,750,cs),
(300,782,o),
(272,810,o),
(240,810,cs),
(207,810,o),
(180,782,o),
(180,750,cs),
(180,718,o),
(208,690,o),
(240,690,cs)
);
},
{
closed = 1;
nodes = (
(217,710,o),
(200,727,o),
(200,750,cs),
(200,773,o),
(217,790,o),
(240,790,cs),
(263,790,o),
(280,773,o),
(280,750,cs),
(280,727,o),
(263,710,o),
(240,710,cs)
);
}
);
width = 340;
}
);
metricLeft = "ca-tamil";
metricRight = "ca-tamil";
unicode = 8221;
},
{
glyphname = quoteleft;
layers = (
{
layerId = "7BAC99B4-31F2-487C-BACA-69B20297995E";
shapes = (
{
closed = 1;
nodes = (
(60,810,l),
(40,810,l),
(40,660,l),
(60,660,l)
);
},
{
closed = 1;
nodes = (
(68,720,o),
(40,692,o),
(40,660,cs),
(40,628,o),
(68,600,o),
(100,600,cs),
(133,600,o),
(160,628,o),
(160,660,cs),
(160,692,o),
(132,720,o),
(100,720,cs)
);
},
{
closed = 1;
nodes = (
(123,700,o),
(140,683,o),
(140,660,cs),
(140,637,o),
(123,620,o),
(100,620,cs),
(77,620,o),
(60,637,o),
(60,660,cs),
(60,683,o),
(77,700,o),
(100,700,cs)
);
}
);
width = 200;
}
);
metricLeft = "ca-tamil";
metricRight = "ca-tamil";
unicode = 8216;
},
{
glyphname = quoteright;
layers = (
{
layerId = "7BAC99B4-31F2-487C-BACA-69B20297995E";
shapes = (
{
closed = 1;
nodes = (
(140,600,l),
(160,600,l),
(160,750,l),
(140,750,l)
);
},
{
closed = 1;
nodes = (
(132,690,o),
(160,718,o),
(160,750,cs),
(160,782,o),
(132,810,o),
(100,810,cs),
(67,810,o),
(40,782,o),
(40,750,cs),
(40,718,o),
(68,690,o),
(100,690,cs)
);
},
{
closed = 1;
nodes = (
(77,710,o),
(60,727,o),
(60,750,cs),
(60,773,o),
(77,790,o),
(100,790,cs),
(123,790,o),
(140,773,o),
(140,750,cs),
(140,727,o),
(123,710,o),
(100,710,cs)
);
}
);
width = 200;
}
);
metricLeft = "ca-tamil";
metricRight = "ca-tamil";
unicode = 8217;
},
{
glyphname = quotedbl;
layers = (
{
layerId = "7BAC99B4-31F2-487C-BACA-69B20297995E";
shapes = (
{
closed = 1;
nodes = (
(140,600,l),
(160,600,l),
(160,750,l),
(140,750,l)
);
},
{
closed = 1;
nodes = (
(132,690,o),
(160,718,o),
(160,750,cs),
(160,782,o),
(132,810,o),
(100,810,cs),
(67,810,o),
(40,782,o),
(40,750,cs),
(40,718,o),
(68,690,o),
(100,690,cs)
);
},
{
closed = 1;
nodes = (
(77,710,o),
(60,727,o),
(60,750,cs),
(60,773,o),
(77,790,o),
(100,790,cs),
(123,790,o),
(140,773,o),
(140,750,cs),
(140,727,o),
(123,710,o),
(100,710,cs)
);
},
{
closed = 1;
nodes = (
(280,600,l),
(300,600,l),
(300,750,l),
(280,750,l)
);
},
{
closed = 1;
nodes = (
(272,690,o),
(300,718,o),
(300,750,cs),
(300,782,o),
(272,810,o),
(240,810,cs),
(207,810,o),
(180,782,o),
(180,750,cs),
(180,718,o),
(208,690,o),
(240,690,cs)
);
},
{
closed = 1;
nodes = (
(217,710,o),
(200,727,o),
(200,750,cs),
(200,773,o),
(217,790,o),
(240,790,cs),
(263,790,o),
(280,773,o),
(280,750,cs),
(280,727,o),
(263,710,o),
(240,710,cs)
);
}
);
width = 340;
}
);
metricLeft = "ca-tamil";
metricRight = "ca-tamil";
unicode = 34;
},
{
glyphname = quotesingle;
layers = (
{
layerId = "7BAC99B4-31F2-487C-BACA-69B20297995E";
shapes = (
{
closed = 1;
nodes = (
(140,600,l),
(160,600,l),
(160,750,l),
(140,750,l)
);
},
{
closed = 1;
nodes = (
(132,690,o),
(160,718,o),
(160,750,cs),
(160,782,o),
(132,810,o),
(100,810,cs),
(67,810,o),
(40,782,o),
(40,750,cs),
(40,718,o),
(68,690,o),
(100,690,cs)
);
},
{
closed = 1;
nodes = (
(77,710,o),
(60,727,o),
(60,750,cs),
(60,773,o),
(77,790,o),
(100,790,cs),
(123,790,o),
(140,773,o),
(140,750,cs),
(140,727,o),
(123,710,o),
(100,710,cs)
);
}
);
width = 200;
}
);
metricLeft = "ca-tamil";
metricRight = "ca-tamil";
unicode = 39;
},
{
glyphname = "iiMatra-tamil";
layers = (
{
anchors = (
{
name = _imatra;
pos = (132,570);
},
{
name = top;
pos = (172,800);
}
);
layerId = "7BAC99B4-31F2-487C-BACA-69B20297995E";
shapes = (
{
closed = 1;
nodes = (
(132,580,l),
(83,580,o),
(30,603,o),
(30,680,cs),
(30,767,o),
(83,790,o),
(125,790,cs),
(164,790,o),
(186,780,o),
(200,764,c),
(194,767,o),
(187,768,o),
(180,768,cs),
(148,768,o),
(120,740,o),
(120,708,cs),
(120,676,o),
(148,648,o),
(180,648,cs),
(212,648,o),
(240,676,o),
(240,708,cs),
(240,766,o),
(196,810,o),
(125,810,cs),
(74,810,o),
(10,776,o),
(10,680,cs),
(10,594,o),
(74,560,o),
(132,560,c)
);
},
{
closed = 1;
nodes = (
(157,668,o),
(140,685,o),
(140,708,cs),
(140,731,o),
(157,748,o),
(180,748,cs),
(203,748,o),
(220,731,o),
(220,708,cs),
(220,685,o),
(203,668,o),
(180,668,cs)
);
}
);
width = 240;
}
);
unicode = 3008;
},
{
glyphname = "pulli-tamil";
lastChange = "2023-04-29 09:46:55 +0000";
layers = (
{
anchors = (
{
name = _top;
pos = (60,600);
}
);
layerId = "7BAC99B4-31F2-487C-BACA-69B20297995E";
shapes = (
{
closed = 1;
nodes = (
(97,670,o),
(130,703,o),
(130,740,cs),
(130,777,o),
(97,810,o),
(60,810,cs),
(23,810,o),
(-10,777,o),
(-10,740,cs),
(-10,703,o),
(23,670,o),
(60,670,cs)
);
},
{
closed = 1;
nodes = (
(32,690,o),
(10,712,o),
(10,740,cs),
(10,768,o),
(32,790,o),
(60,790,cs),
(88,790,o),
(110,768,o),
(110,740,cs),
(110,712,o),
(88,690,o),
(60,690,cs)
);
}
);
width = 120;
}
);
unicode = 3021;
},
{
glyphname = "iiMatra-tamil.001";
layers = (
{
anchors = (
{
name = _imatra;
pos = (52,500);
},
{
name = top;
pos = (51,800);
}
);
layerId = "7BAC99B4-31F2-487C-BACA-69B20297995E";
shapes = (
{
closed = 1;
nodes = (
(52,510,l),
(3,510,o),
(-60,543,o),
(-60,650,cs),
(-60,757,o),
(3,790,o),
(52,790,cs),
(58,790,ls),
(84,790,o),
(106,780,o),
(120,764,c),
(114,767,o),
(107,768,o),
(100,768,cs),
(68,768,o),
(40,740,o),
(40,708,cs),
(40,676,o),
(68,648,o),
(100,648,cs),
(132,648,o),
(160,676,o),
(160,708,cs),
(160,766,o),
(116,810,o),
(58,810,cs),
(52,810,ls),
(-6,810,o),
(-80,766,o),
(-80,650,cs),
(-80,534,o),
(-6,490,o),
(52,490,c)
);
},
{
closed = 1;
nodes = (
(77,668,o),
(60,685,o),
(60,708,cs),
(60,731,o),
(77,748,o),
(100,748,cs),
(123,748,o),
(140,731,o),
(140,708,cs),
(140,685,o),
(123,668,o),
(100,668,cs)
);
}
);
width = 175;
}
);
},
{
glyphname = "aaMatra-tamil";
layers = (
{
layerId = "7BAC99B4-31F2-487C-BACA-69B20297995E";
shapes = (
{
closed = 1;
nodes = (
(60,-10,l),
(60,590,l),
(250,590,l),
(250,-10,l),
(270,-10,l),
(270,590,l),
(380,590,l),
(380,610,l),
(40,610,l),
(40,-10,l)
);
}
);
width = 390;
}
);
metricLeft = "ca-tamil";
unicode = 3006;
},
{
glyphname = "iMatra-tamil";
layers = (
{
anchors = (
{
name = _imatra;
pos = (-170,600);
}
);
layerId = "7BAC99B4-31F2-487C-BACA-69B20297995E";
shapes = (
{
closed = 1;
nodes = (
(20,-10,l),
(20,638,ls),
(20,766,o),
(-64,810,o),
(-146,810,c),
(-146,790,l),
(-73,790,o),
(0,757,o),
(0,638,cs),
(0,-10,l)
);
},
{
closed = 1;
nodes = (
(-170,590,l),
(-170,610,l),
(-188,610,ls),
(-237,610,o),
(-260,643,o),
(-260,695,cs),
(-260,757,o),
(-218,790,o),
(-146,790,c),
(-146,810,l),
(-227,810,o),
(-280,766,o),
(-280,695,cs),
(-280,634,o),
(-246,590,o),
(-188,590,cs)
);
}
);
width = 85;
}
);
unicode = 3007;
},
{
glyphname = "uMatra-tamil";
layers = (
{
layerId = "7BAC99B4-31F2-487C-BACA-69B20297995E";
shapes = (
{
closed = 1;
nodes = (
(213,470,o),
(260,518,o),
(260,582,c),
(260,610,l),
(-90,610,l),
(-90,590,l),
(40,590,l),
(40,582,ls),
(40,518,o),
(87,470,o),
(150,470,cs)
);
},
{
closed = 1;
nodes = (
(96,490,o),
(60,527,o),
(60,582,cs),
(60,590,l),
(240,590,l),
(240,582,ls),
(240,527,o),
(204,490,o),
(150,490,cs)
);
}
);
width = 300;
}
);
metricRight = "ca-tamil";
unicode = 3009;
},
{
glyphname = "uuMatra-tamil";
layers = (
{
layerId = "7BAC99B4-31F2-487C-BACA-69B20297995E";
shapes = (
{
closed = 1;
nodes = (
(353,360,o),
(400,471,o),
(400,558,cs),
(400,680,o),
(327,757,o),
(211,757,cs),
(88,757,o),
(41,664,o),
(41,610,c),
(-90,610,l),
(-90,590,l),
(40,590,l),
(40,582,ls),
(40,518,o),
(87,470,o),
(150,470,cs),
(213,470,o),
(260,518,o),
(260,582,c),
(260,610,l),
(61,610,l),
(61,657,o),
(100,737,o),
(211,737,cs),
(315,737,o),
(380,668,o),
(380,558,cs),
(380,476,o),
(338,380,o),
(202,378,c),
(202,358,l)
);
},
{
closed = 1;
nodes = (
(96,490,o),
(60,527,o),
(60,582,cs),
(60,590,l),
(240,590,l),
(240,582,ls),
(240,527,o),
(204,490,o),
(150,490,cs)
);
}
);
width = 440;
}
);
metricRight = "ca-tamil";
unicode = 3010;
},
{
glyphname = "eMatra-tamil";
layers = (
{
layerId = "7BAC99B4-31F2-487C-BACA-69B20297995E";
shapes = (
{
closed = 1;
nodes = (
(430,-10,l),
(430,516,ls),
(430,627,o),
(347,710,o),
(236,710,cs),
(234,710,ls),
(123,710,o),
(40,627,o),
(40,516,cs),
(40,98,ls),
(40,37,o),
(82,-10,o),
(140,-10,cs),
(199,-10,o),
(240,37,o),
(240,98,cs),
(240,142,ls),
(240,203,o),
(198,250,o),
(140,250,cs),
(106,250,o),
(78,234,o),
(60,208,c),
(60,516,ls),
(60,618,o),
(132,690,o),
(234,690,cs),
(236,690,ls),
(338,690,o),
(410,618,o),
(410,516,cs),
(410,-10,l)
);
},
{
closed = 1;
nodes = (
(92,10,o),
(60,46,o),
(60,98,cs),
(60,142,ls),
(60,194,o),
(92,230,o),
(140,230,cs),
(188,230,o),
(220,194,o),
(220,142,cs),
(220,98,ls),
(220,46,o),
(188,10,o),
(140,10,cs)
);
}
);
width = 455;
}
);
metricLeft = "ca-tamil";
unicode = 3014;
},
{
glyphname = "eeMatra-tamil";
layers = (
{
layerId = "7BAC99B4-31F2-487C-BACA-69B20297995E";
shapes = (
{
closed = 1;
nodes = (
(302,-10,ls),
(352,-10,o),
(387,30,o),
(387,82,cs),
(387,118,ls),
(387,170,o),
(351,210,o),
(302,210,cs),
(253,210,o),
(217,170,o),
(217,118,cs),
(217,82,ls),
(217,52,o),
(229,27,o),
(248,10,c),
(163,13,o),
(60,76,o),
(60,340,cs),
(60,614,o),
(163,677,o),
(248,680,c),
(229,663,o),
(217,638,o),
(217,608,cs),
(217,572,ls),
(217,520,o),
(253,480,o),
(302,480,cs),
(352,480,o),
(387,520,o),
(387,572,cs),
(387,608,ls),
(387,660,o),
(351,700,o),
(302,700,cs),
(253,700,ls),
(161,700,o),
(40,633,o),
(40,340,cs),
(40,57,o),
(161,-10,o),
(253,-10,cs)
);
},
{
closed = 1;
nodes = (
(263,10,o),
(237,39,o),
(237,82,cs),
(237,118,ls),
(237,161,o),
(263,190,o),
(302,190,cs),
(341,190,o),
(367,161,o),
(367,118,cs),
(367,82,ls),
(367,39,o),
(341,10,o),
(302,10,cs)
);
},
{
closed = 1;
nodes = (
(263,500,o),
(237,529,o),
(237,572,cs),
(237,608,ls),
(237,651,o),
(263,680,o),
(302,680,cs),
(341,680,o),
(367,651,o),
(367,608,cs),
(367,572,ls),
(367,529,o),
(341,500,o),
(302,500,cs)
);
}
);
width = 407;
}
);
metricLeft = "ca-tamil";
unicode = 3015;
},
{
glyphname = "aiMatra-tamil";
layers = (
{
layerId = "7BAC99B4-31F2-487C-BACA-69B20297995E";
shapes = (
{
closed = 1;
nodes = (
(172,-10,ls),
(221,-9,o),
(255,31,o),
(255,82,cs),
(255,118,ls),
(255,170,o),
(219,210,o),
(170,210,cs),
(121,210,o),
(85,170,o),
(85,118,cs),
(85,82,ls),
(85,66,o),
(89,51,o),
(95,37,c),
(73,57,o),
(60,87,o),
(60,122,cs),
(60,416,ls),
(60,518,o),
(132,590,o),
(234,590,cs),
(330,590,l),
(307,572,o),
(292,544,o),
(292,511,cs),
(292,89,ls),
(292,33,o),
(334,-10,o),
(389,-10,cs),
(444,-10,o),
(487,33,o),
(487,89,cs),
(487,511,ls),
(487,544,o),
(473,572,o),
(450,590,c),
(515,590,ls),
(582,590,o),
(627,545,o),
(627,478,cs),
(627,122,ls),
(627,55,o),
(582,10,o),
(515,10,cs),
(503,10,l),
(503,-10,l),
(515,-10,ls),
(591,-10,o),
(647,46,o),
(647,122,cs),
(647,478,ls),
(647,554,o),
(591,610,o),
(515,610,cs),
(234,610,ls),
(123,610,o),
(40,527,o),
(40,416,cs),
(40,122,ls),
(40,48,o),
(93,-6,o),
(164,-10,cs),
(166,-10,o),
(168,-10,o),
(170,-10,cs)
);
},
{
closed = 1;
nodes = (
(129,13,o),
(105,41,o),
(105,82,cs),
(105,118,ls),
(105,161,o),
(131,190,o),
(170,190,cs),
(209,190,o),
(235,161,o),
(235,118,cs),
(235,82,ls),
(235,39,o),
(210,10,o),
(171,10,cs),
(165,10,ls)
);
},
{
closed = 1;
nodes = (
(343,10,o),
(312,42,o),
(312,89,cs),
(312,511,ls),
(312,558,o),
(344,590,o),
(391,590,cs),
(436,590,o),
(467,558,o),
(467,511,cs),
(467,89,ls),
(467,42,o),
(435,10,o),
(389,10,cs)
);
}
);
width = 687;
}
);
metricLeft = "ca-tamil";
metricRight = "ca-tamil";
unicode = 3016;
},
{
glyphname = "auLength-tamil";
layers = (
{
anchors = (
{
name = imatra;
pos = (497,600);
},
{
name = top;
pos = (314,600);
}
);
layerId = "7BAC99B4-31F2-487C-BACA-69B20297995E";
shapes = (
{
closed = 1;
nodes = (
(168,-10,o),
(172,-6,o),
(172,0,cs),
(172,7,o),
(169,10,o),
(162,10,cs),
(101,15,o),
(60,58,o),
(60,122,cs),
(60,478,ls),
(60,545,o),
(105,590,o),
(172,590,cs),
(196,590,ls),
(260,590,o),
(307,548,o),
(307,473,cs),
(307,200,ls),
(307,200,o),
(327,200,o),
(327,200,cs),
(327,473,ls),
(327,558,o),
(269,610,o),
(196,610,cs),
(172,610,ls),
(96,610,o),
(40,554,o),
(40,478,cs),
(40,122,ls),
(40,49,o),
(92,-5,o),
(162,-10,cs)
);
},
{
closed = 1;
nodes = (
(220,-10,o),
(255,30,o),
(255,82,cs),
(255,118,ls),
(255,170,o),
(219,210,o),
(170,210,cs),
(121,210,o),
(85,170,o),
(85,118,cs),
(85,82,ls),
(85,30,o),
(121,-10,o),
(170,-10,cs)
);
},
{
closed = 1;
nodes = (
(131,10,o),
(105,39,o),
(105,82,cs),
(105,118,ls),
(105,161,o),
(131,190,o),
(170,190,cs),
(209,190,o),
(235,161,o),
(235,118,cs),
(235,82,ls),
(235,39,o),
(209,10,o),
(170,10,cs)
);
},
{
closed = 1;
nodes = (
(487,-10,o),
(507,-10,o),
(507,-10,cs),
(507,600,ls),
(507,606,o),
(504,610,o),
(497,610,cs),
(307,610,l),
(307,200,l),
(307,200,o),
(327,200,o),
(327,200,cs),
(327,590,l),
(487,590,l),
(487,-10,ls)
);
},
{
closed = 1;
nodes = (
(597,590,ls),
(597,590,o),
(597,610,o),
(597,610,cs),
(407,610,ls),
(401,610,o),
(397,606,o),
(397,600,cs),
(397,594,o),
(401,590,o),
(407,590,cs)
);
}
);
width = 637;
}
);
unicode = 3031;
},
{
glyphname = "iMatra-tamil.001";
layers = (
{
anchors = (
{
name = _imatra;
pos = (-50,550);
}
);
layerId = "7BAC99B4-31F2-487C-BACA-69B20297995E";
shapes = (
{
closed = 1;
nodes = (
(60,-10,l),
(60,658,ls),
(60,766,o),
(16,810,o),
(-50,810,cs),
(-116,810,o),
(-160,766,o),
(-160,675,cs),
(-160,584,o),
(-116,540,o),
(-58,540,cs),
(-40,540,l),
(-40,560,l),
(-58,560,ls),
(-107,560,o),
(-140,593,o),
(-140,675,cs),
(-140,757,o),
(-107,790,o),
(-50,790,cs),
(7,790,o),
(40,757,o),
(40,658,cs),
(40,-10,l)
);
}
);
width = 85;
}
);
},
{
glyphname = "iMatra-tamil.002";
layers = (
{
anchors = (
{
name = _imatra;
pos = (-128,600);
}
);
layerId = "7BAC99B4-31F2-487C-BACA-69B20297995E";
shapes = (
{
closed = 1;
nodes = (
(50,-10,l),
(50,608,ls),
(50,766,o),
(-14,810,o),
(-96,810,c),
(-96,790,l),
(-23,790,o),
(30,757,o),
(30,608,cs),
(30,-10,l)
);
},
{
closed = 1;
nodes = (
(-128,610,l),
(-177,610,o),
(-200,643,o),
(-200,695,cs),
(-200,757,o),
(-158,790,o),
(-96,790,c),
(-96,810,l),
(-167,810,o),
(-220,766,o),
(-220,695,cs),
(-220,634,o),
(-186,590,o),
(-128,590,c)
);
}
);
width = 75;
}
);
},
{
glyphname = "uMatra-tamil.001";
layers = (
{
layerId = "7BAC99B4-31F2-487C-BACA-69B20297995E";
shapes = (
{
closed = 1;
nodes = (
(83,150,o),
(130,198,o),
(130,262,c),
(130,290,l),
(-220,290,l),
(-220,270,l),
(-90,270,l),
(-90,262,ls),
(-90,198,o),
(-43,150,o),
(20,150,cs)
);
},
{
closed = 1;
nodes = (
(-34,170,o),
(-70,207,o),
(-70,262,cs),
(-70,270,l),
(110,270,l),
(110,262,ls),
(110,207,o),
(74,170,o),
(20,170,cs)
);
}
);
width = 170;
}
);
metricRight = "ca-tamil";
},
{
glyphname = "uuMatra-tamil.001";
layers = (
{
layerId = "7BAC99B4-31F2-487C-BACA-69B20297995E";
shapes = (
{
closed = 1;
nodes = (
(223,40,o),
(270,151,o),
(270,238,cs),
(270,335,o),
(220,437,o),
(81,437,cs),
(-42,437,o),
(-89,344,o),
(-89,290,c),
(-220,290,l),
(-220,270,l),
(-90,270,l),
(-90,262,ls),
(-90,198,o),
(-43,150,o),
(20,150,cs),
(83,150,o),
(130,198,o),
(130,262,c),
(130,290,l),
(-69,290,l),
(-69,337,o),
(-30,417,o),
(81,417,cs),
(209,417,o),
(250,328,o),
(250,238,cs),
(250,156,o),
(208,60,o),
(72,58,c),
(72,38,l)
);
},
{
closed = 1;
nodes = (
(-34,170,o),
(-70,207,o),
(-70,262,cs),
(-70,270,l),
(110,270,l),
(110,262,ls),
(110,207,o),
(74,170,o),
(20,170,cs)
);
}
